<svg width="311" height="311" viewBox="0 0 311 311" fill="none" xmlns="http://www.w3.org/2000/svg">
<path d="M53.5795 277.96C-2.57127 245.543 -2.57127 192.982 53.5795 160.566C109.73 128.15 200.763 128.15 256.914 160.566C313.064 192.982 313.064 245.543 256.914 277.96C200.763 310.376 109.73 310.382 53.5795 277.96Z" fill="#F5F5F5"/>
<path d="M98.5153 279.525C122.88 279.525 142.631 268.122 142.631 254.057C142.631 239.992 122.88 228.59 98.5153 228.59C74.1507 228.59 54.3994 239.992 54.3994 254.057C54.3994 268.122 74.1507 279.525 98.5153 279.525Z" fill="#E0E0E0"/>
<path d="M200.492 242.168C231.085 225.669 249.229 199.953 241.019 184.729C232.808 169.505 201.352 170.539 170.76 187.038C140.167 203.537 122.023 229.253 130.233 244.477C138.443 259.701 169.899 258.667 200.492 242.168Z" fill="#E0E0E0"/>
<path d="M236.489 90.7716L236.396 90.7157C236.39 90.7157 236.39 90.7095 236.384 90.7095L212.711 77.0847C212.705 77.0785 212.699 77.0785 212.686 77.0723L212.55 77.004V77.0102C201.49 71.4336 186.735 73.1041 170.868 83.3692C138.986 103.986 114.686 151.443 116.599 189.362C117.555 208.265 124.84 221.225 135.856 226.92V226.926L135.956 226.976C135.962 226.976 135.962 226.982 135.968 226.982L159.647 240.613C159.653 240.613 159.653 240.619 159.659 240.619L159.777 240.681V240.675C170.837 246.27 185.605 244.599 201.49 234.334C233.372 213.717 257.672 166.26 255.759 128.342C254.796 109.433 247.506 96.4723 236.489 90.7716Z" fill="#37474F"/>
<path d="M158.833 240.178L135.968 226.975C135.949 226.975 135.949 226.975 135.949 226.975L135.844 226.913C124.833 221.2 117.549 208.24 116.599 189.361C115.748 172.452 120.114 153.654 128.019 136.191L128.18 135.806L151.704 149.816C143.78 167.273 139.427 186.07 140.278 202.986C141.215 221.486 148.214 234.291 158.833 240.178Z" fill="#263238"/>
<path d="M201.483 234.328C233.366 213.711 257.665 166.254 255.746 128.336C253.834 90.4176 226.435 76.3892 194.553 97.0064C162.671 117.624 138.371 165.08 140.284 202.999C142.203 240.917 169.601 254.945 201.483 234.328Z" fill="#455A64"/>
<path d="M228.485 87.828L188.523 170.135L179.922 160.814C177.271 157.933 173.489 156.281 169.546 156.281C165.981 156.281 162.572 157.61 159.945 160.025C154.225 165.31 153.872 174.271 159.15 179.997L181.81 204.539C184.319 207.259 187.735 208.861 191.43 209.06C191.69 209.072 191.951 209.078 192.212 209.078C192.889 209.078 193.572 209.029 194.261 208.929C198.894 208.24 202.881 205.321 204.912 201.117L250.741 106.719C246.059 96.2674 238.234 89.7593 228.485 87.828Z" fill="#37474F"/>
<path d="M260.938 60.7152C260.689 60.5724 260.435 60.4357 260.168 60.3115C254.07 57.3618 246.704 59.9079 243.761 65.9875L192.907 170.725L190.02 167.596C189.156 166.664 188.188 165.894 187.138 165.292C185.623 164.422 179.177 160.69 178.134 160.088C173.613 157.479 167.719 157.97 163.658 161.702C158.69 166.291 158.386 174.073 162.969 179.041L185.629 203.589C186.492 204.52 187.48 205.303 188.554 205.917C190.032 206.762 196.453 210.482 197.509 211.09C199.167 212.053 201.036 212.618 203.005 212.724C203.812 212.767 204.625 212.736 205.464 212.618C209.488 212.022 212.947 209.482 214.711 205.837L274.867 81.9285C277.692 76.0973 275.488 69.1111 269.967 65.9316C269.713 65.7825 262.54 61.6405 260.938 60.7152Z" fill="#0B8C09"/>
<path opacity="0.15" d="M260.938 60.7152C260.689 60.5724 260.435 60.4357 260.168 60.3115C254.07 57.3618 246.704 59.9079 243.761 65.9875L192.907 170.725L190.02 167.596C189.156 166.664 188.188 165.894 187.138 165.292C185.623 164.422 179.177 160.69 178.134 160.088C173.613 157.479 167.719 157.97 163.658 161.702C158.69 166.291 158.386 174.073 162.969 179.041L185.629 203.589C186.492 204.52 187.48 205.303 188.554 205.917C190.032 206.762 196.453 210.482 197.509 211.09C199.167 212.053 201.036 212.618 203.005 212.724C203.812 212.767 204.625 212.736 205.464 212.618C209.488 212.022 212.947 209.482 214.711 205.837L274.867 81.9285C277.692 76.0973 275.488 69.1111 269.967 65.9316C269.713 65.7825 262.54 61.6405 260.938 60.7152Z" fill="black"/>
<path opacity="0.15" d="M197.503 211.09C196.453 210.482 190.032 206.756 188.548 205.917C187.474 205.303 186.486 204.526 185.623 203.595L162.963 179.053C161.932 177.929 161.156 176.656 160.621 175.321L169.632 180.519C170.166 181.86 170.949 183.133 171.986 184.257L194.646 208.799C195.491 209.706 196.453 210.476 197.503 211.09Z" fill="black"/>
<path opacity="0.15" d="M255.622 67.4158C254.467 68.4466 253.492 69.7197 252.778 71.1915L200.477 178.923L192.914 170.725L243.761 65.9875C244.475 64.5095 245.457 63.2427 246.612 62.2118L255.622 67.4158Z" fill="black"/>
<path d="M269.185 65.5155C263.087 62.5658 255.722 65.1119 252.778 71.1915L200.477 178.923L190.02 167.596C185.449 162.634 177.674 162.317 172.675 166.912C167.707 171.502 167.403 179.283 171.986 184.257L194.646 208.805C196.82 211.165 199.788 212.556 202.999 212.73C203.806 212.773 204.62 212.742 205.458 212.624C209.482 212.028 212.941 209.488 214.705 205.843L274.861 81.9348C277.817 75.8241 275.271 68.4653 269.185 65.5155Z" fill="#0B8C09"/>
<path d="M97.6399 77.6188C92.9017 77.6188 89.6601 78.8546 86.2943 83.6425C83.2079 88.0392 74.7188 102.695 74.7188 102.695C74.7188 102.695 68.5275 89.958 67.8878 87.4119C67.242 84.8721 67.3041 83.7418 67.9127 82.6365C68.6641 81.2765 69.3348 80.0842 69.4838 78.2646C69.726 75.2155 70.4712 72.6011 69.7881 72.5142C67.894 72.4086 67.8195 74.8367 66.8259 76.2774C66.472 76.7929 65.3107 76.8674 64.9195 76.0663C64.5034 75.2155 64.7269 73.8183 64.522 72.8122C64.6152 71.9428 64.6897 71.6634 64.789 71.148C65.3231 71.2722 66.0994 71.2846 66.9625 71.2101C67.7823 72.4955 68.3412 73.0358 69.4838 72.5142C69.6328 72.272 68.9932 70.6263 68.248 69.434C68.13 69.2477 67.9499 69.1049 67.7388 69.0428C66.5899 68.7261 65.2921 68.6515 63.5284 68.9248C63.3173 68.9558 63.1061 69.049 62.9881 69.2229C62.3299 70.1978 61.9387 71.1852 61.7772 71.6882C61.6903 71.9553 61.4481 71.949 61.386 71.7193C60.7774 68.7198 60.7712 64.4598 60.7712 62.4664C60.7712 60.8952 58.4735 60.6531 58.3927 62.9011C58.312 65.205 58.2499 69.4651 58.548 71.9491C58.5853 72.2223 58.2748 72.3527 58.1692 72.0546C57.7717 70.9865 56.7968 67.7821 56.3869 62.2428C56.2751 60.7524 53.8657 60.5102 53.8843 62.603C53.934 68.341 55.2629 73.632 55.2629 73.632C55.3312 73.8928 55.0952 74.1225 54.9151 73.8245C54.1141 72.5142 52.8534 69.2601 52.2138 67.0183C51.7046 65.2236 49.3013 65.677 49.7236 67.9188C50.475 71.9366 51.6673 77.0226 53.4434 80.6493C55.3436 84.5305 56.9893 86.4742 57.927 89.5234C58.8709 92.5725 62.777 109.842 66.9563 116.574C70.229 121.846 73.9736 121.362 78.0039 118.58C82.0342 115.798 96.4352 95.7334 96.4352 95.7334L97.6399 77.6188Z" fill="#F0B1B1"/>
<path d="M74.7186 102.695C74.7186 102.695 76.7369 106.123 77.0474 108.855C77.0474 108.855 78.0223 104.937 75.6253 101.142L74.7186 102.695Z" fill="#CE8888"/>
<path d="M98.6458 77.6312C96.2363 77.3828 93.2431 77.3021 89.8959 79.4011C86.5487 81.5063 85.3875 84.4436 83.7667 87.0021C82.1459 89.5668 76.5444 98.6521 76.5444 98.6521C76.5444 98.6521 78.5999 107.278 86.7785 109.054L99.0184 92.4483L98.6458 77.6312Z" fill="#455A64"/>
<path d="M109.62 229.292C110.216 229.217 111.06 231.329 111.073 232.024C111.085 232.713 110.396 234.198 109.477 235.589C108.558 236.98 107.291 238.7 106.465 240.948C105.763 242.861 105.118 244.115 103.161 246.618C100.988 249.406 95.8833 254.076 88.1332 252.045C86.2391 251.548 85.2952 250.952 84.6121 250.263C84.0346 249.685 83.7613 248.741 84.0718 247.891L109.62 229.292Z" fill="#263238"/>
<path d="M94.3987 226.87C94.3925 226.895 94.3862 226.913 94.38 226.938C94.2434 227.51 94.3614 228.106 94.4297 228.683C94.6843 230.72 94.4111 232.825 93.6473 234.732C93.1318 236.011 92.399 237.203 91.4924 238.247C90.5671 239.302 89.0519 240.42 87.872 241.178C83.9472 243.687 83.525 245.357 84.0776 247.891C85.388 250.84 94.2931 252.635 99.4101 248.245C101.41 246.531 102.925 245.022 104.279 241.619C105.229 239.228 105.943 237.874 106.862 236.154C107.856 234.291 109.731 232.192 109.787 230.273C109.818 229.217 108.775 227.255 107.756 225.64C106.825 224.156 105.869 222.746 105.03 222.914L105.26 223.752C104.564 224.479 103.552 224.746 102.937 225.597C102.18 226.646 102.211 228.056 101.739 229.261C101.695 229.379 101.633 229.503 101.509 229.54C101.385 229.577 101.242 229.491 101.18 229.373C101.118 229.255 101.112 229.118 101.105 228.987C101.087 228.385 101.068 227.783 101.05 227.18C101.037 226.833 101.019 226.46 100.789 226.199C100.304 225.653 99.1121 225.715 98.4476 225.69C97.5409 225.653 96.6715 225.796 95.7711 225.851C95.4357 225.87 95.1873 225.851 94.9017 226.081C94.6595 226.274 94.4794 226.566 94.3987 226.87Z" fill="#37474F"/>
<path d="M81.2393 190.765C83.3072 197.565 92.9762 221.101 93.5537 222.517C94.1374 223.933 95.4788 227.187 95.4788 227.187C95.4788 227.187 97.0561 227.839 99.4035 227.348C99.6085 229.602 99.9438 233.136 100.08 234.924C100.124 236.992 100.304 239.545 99.8631 241.588C99.4843 243.326 99.0433 245.152 98.7142 246.897C98.5714 247.667 98.4223 248.443 98.3106 249.22C98.1864 250.039 98.1056 250.927 98.5031 251.66C98.6894 252.002 98.9688 252.281 99.2669 252.53C100.608 253.635 102.409 254.101 104.142 253.958C105.055 253.883 105.98 253.635 106.725 253.101C108.228 252.027 108.756 250.157 109.52 248.568C110.352 246.841 110.079 246.655 110.153 244.811C110.203 243.519 110.563 240.24 111.078 236.812C111.594 233.384 113.817 221.337 114.885 209.333C115.624 201.024 114.885 193.311 114.885 193.311C123.368 170.266 127.144 156.56 128.255 148.91C129.379 141.135 128.839 138.365 128.696 133.894L87.4431 134.887C84.1269 156.219 78.4634 181.649 81.2393 190.765Z" fill="#F0B1B1"/>
<path d="M80.5935 173.75C81.4443 165.913 87.3065 135.788 87.3065 135.788H128.864C128.864 135.788 129.125 141.569 129.05 144.227C128.976 146.885 128.125 151.741 126.634 157.877C125.144 164.012 119.648 181.407 118.586 183.971C117.524 186.536 115.469 193.951 115.469 193.951C116.487 207.886 113.836 220.393 111.848 237.017C111.848 237.017 111.271 239.265 105.384 238.818C99.6582 238.383 98.5031 236.278 98.5031 236.278L98.1181 221.933C98.1181 221.933 94.9883 222.896 93.1501 222.455C93.1501 222.455 80.8481 192.088 80.2519 190.256C79.6682 188.424 79.7427 181.587 80.5935 173.75Z" fill="#0B8C09"/>
<path opacity="0.45" d="M80.5935 173.75C81.4443 165.913 87.3065 135.788 87.3065 135.788H128.864C128.864 135.788 129.125 141.569 129.05 144.227C128.976 146.885 128.125 151.741 126.634 157.877C125.144 164.012 119.648 181.407 118.586 183.971C117.524 186.536 115.469 193.951 115.469 193.951C116.487 207.886 113.836 220.393 111.848 237.017C111.848 237.017 111.271 239.265 105.384 238.818C99.6582 238.383 98.5031 236.278 98.5031 236.278L98.1181 221.933C98.1181 221.933 94.9883 222.896 93.1501 222.455C93.1501 222.455 80.8481 192.088 80.2519 190.256C79.6682 188.424 79.7427 181.587 80.5935 173.75Z" fill="black"/>
<path opacity="0.2" d="M98.2243 155.424C92.3372 150.114 91.0331 145.898 91.0331 145.898C95.4173 151.077 101.398 154.2 101.398 154.2C101.398 154.2 95.8086 183.71 96.2184 189.778C96.6221 195.845 98.1373 221.933 98.1373 221.933C98.1497 222.181 94.1753 194.348 94.0636 192.119C93.7593 186.256 98.2243 155.424 98.2243 155.424Z" fill="black"/>
<path d="M111.178 251.791C111.756 251.958 111.687 253.685 111.426 254.324C111.166 254.964 110.135 256.187 108.744 257.106C107.353 258.025 106.055 259.311 104.8 261.354C103.906 262.807 101.658 265.564 98.6215 267.384C95.5848 269.203 91.0887 269.843 87.754 268.893C83.8541 267.788 83.4939 266.831 83.5312 265.36L111.178 251.791Z" fill="#263238"/>
<path d="M99.1118 242.761C98.0872 247.754 96.3049 251.375 92.1752 254.449C88.8902 256.889 86.4993 258.131 83.8787 260.317C82.7609 261.248 82.6677 263.229 83.5247 265.366C85.2946 266.788 87.8158 267.601 91.2065 267.601C94.9884 267.595 96.4477 266.931 98.6212 265.44C99.8694 264.583 100.739 263.801 101.59 262.95C103.409 261.124 104.676 258.876 105.986 257.429C107.297 255.982 110.141 254.504 110.942 252.759C111.383 251.803 111.196 249.58 110.898 247.692C110.625 245.959 111.159 242.917 110.321 242.743C110.339 242.749 110.209 243.985 110.209 243.985C110.141 244.264 109.967 244.407 109.377 244.612C108.986 244.749 108.185 244.73 107.781 244.662C107.303 244.581 107.03 244.587 106.713 244.966C106.154 245.624 106.005 246.556 105.285 247.102C105.235 247.139 105.179 247.177 105.117 247.189C105.055 247.201 104.986 247.189 104.943 247.139C104.9 247.083 104.906 247.009 104.912 246.934C104.98 246.313 105.049 245.699 105.117 245.078C105.136 244.891 105.16 244.699 105.129 244.513C105.08 244.165 104.819 243.873 104.527 243.699C104.018 243.389 103.428 243.165 102.856 243.004C102.254 242.836 101.627 242.743 101.006 242.687C100.385 242.625 99.7328 242.612 99.1118 242.761Z" fill="#455A64"/>
<path d="M125.113 79.4073C125.113 79.4073 126.827 81.7608 128.193 86.5984C128.193 86.5984 130.801 97.6584 130.801 110.768C130.801 121.735 129.323 139.52 129.323 139.52C116.587 145.904 96.0441 142.128 87.0085 135.906C87.3749 133.931 87.6854 123.548 88.3934 116.698C88.8778 104.949 89.269 98.7887 89.3559 93.5661C89.5236 83.1208 94.7214 77.7243 98.6461 77.6436L108.619 77.7989L125.113 79.4073Z" fill="#0B8C09"/>
<path d="M128.255 136.291C126.361 137.85 122.642 140.843 121.965 142.352C121.188 144.078 120.704 146.68 120.195 147.686C119.686 148.692 120.468 149.158 121.555 148.81C122.648 148.462 123.3 147.525 124.144 145.27C124.989 143.01 127.336 141.24 127.336 141.24L128.255 136.291Z" fill="#CE8888"/>
<path d="M121.338 156.616C121.791 157.492 122.847 157.492 123.828 157.573C125.225 157.684 126.014 157.585 127.349 157.175C128.684 156.759 129.932 155.97 130.734 154.821C131.69 153.449 131.932 151.723 132.479 150.139C133.627 146.817 137.03 144.42 137.583 140.899C137.813 139.439 137.813 137.732 138.229 136.825C138.471 136.291 144.066 126.659 146.06 122.486C147.979 118.474 149.413 116.586 147.674 111.768C145.936 106.949 140.011 89.9891 135.826 84.0958C133.447 80.7548 129.678 79.7985 125.107 79.4072C121.63 88.4676 125.679 97.8199 125.679 97.8199L134.876 115.568C134.876 115.568 131.299 127.789 129.063 134.583C128.442 136.471 127.188 137.638 125.778 139.731C125.163 140.638 123.76 142.234 123.257 143.209C122.611 144.463 122.629 145.27 122.325 147.028C121.847 149.822 121.12 156.2 121.338 156.616Z" fill="#F0B1B1"/>
<path d="M124.623 79.3575C127.026 79.4507 130.479 79.8606 132.541 80.9038C134.609 81.9471 136.037 83.2326 138.409 87.9894C140.787 92.7463 144.246 101.987 144.246 101.987C144.246 101.987 143.098 108.961 132.069 110.768L124.617 97.025C124.623 97.025 121.3 88.4614 124.623 79.3575Z" fill="#455A64"/>
<path d="M95.9695 57.163C96.3296 57.6847 96.5284 58.405 96.814 58.9763C97.2115 59.7836 97.6151 60.5972 98.2051 61.2865C99.6334 62.9321 101.645 64.1369 103.471 65.3043C104.583 66.0123 105.85 66.6767 107.203 66.4842C108.582 66.2855 110.066 66.5836 111.47 66.714C113.097 66.863 114.73 67.0059 116.357 67.1549L116.084 72.2906C116.084 72.2906 116.686 70.9306 117.518 69.3036C118.232 67.9063 121.194 60.8145 121.207 60.7897C122.679 57.2748 124.424 52.5987 122.666 48.9037C122.25 48.0343 121.635 47.2208 120.754 46.7116C120.934 46.0347 120.99 45.5627 120.915 44.9604C120.679 42.9732 119.667 41.8367 118.319 40.8493C116.972 39.862 115.338 39.3279 113.711 38.9491C111.526 38.4461 109.284 38.1977 107.042 38.2101C104.812 38.2163 102.689 38.5951 100.497 38.9615C99.2918 39.1664 98.0747 39.3279 96.8513 39.3403C96.3359 39.3465 95.7645 39.3776 95.2739 39.2658C94.6343 39.1168 93.9885 38.8 93.3675 38.5765C93.2557 38.5392 93.1315 38.4958 93.0259 38.5517C92.9204 38.6013 92.8707 38.7317 92.8396 38.8435C92.4484 40.278 92.939 42.1472 93.8519 43.3209C93.4793 43.2713 93.1874 43.147 93.0446 43.0849C92.7403 42.9607 92.4794 42.7869 92.2062 42.613C91.7094 42.3025 91.4051 41.9423 91.0263 41.489C90.9704 41.4269 90.9145 41.3586 90.8338 41.3462C90.7096 41.3213 90.604 41.4331 90.5295 41.5324C89.8216 42.5012 89.6477 43.7929 89.8837 44.9666C90.1196 46.1403 90.7406 47.2084 91.4983 48.1399C90.6847 49.3446 90.6723 50.9841 91.2809 52.3068C91.5479 52.8905 91.9267 53.4246 92.3801 53.8841C92.939 54.4555 93.5972 54.9212 94.1872 55.4553C94.7896 55.9893 95.5099 56.4861 95.9695 57.163Z" fill="#37474F"/>
<path d="M110.855 48.6056C110.867 49.9718 111.059 50.9344 111.209 51.3505C111.5 52.195 111.979 52.7477 112.593 53.3936C113.227 54.0518 114.009 54.5797 114.518 55.3373C115.214 56.3681 115.456 57.7033 115.599 58.9142C115.686 59.647 115.916 60.4543 116.543 60.8393C117.872 61.6591 118.667 60.0693 119.375 59.2868C120.288 58.4423 122.995 57.4114 124.25 60.2929C125.547 63.2737 123.157 67.2232 120.971 67.8318C117.214 68.8813 116.394 66.3228 116.394 66.3228L115.674 79.7364C113.55 83.7542 108.569 85.0335 105.297 84.3939C102.471 83.8412 100.919 81.8602 103.576 78.9912L103.719 74.905C103.719 74.905 100.329 75.3086 98.6954 74.9981C95.9754 74.4889 94.6216 72.1726 93.8888 69.1856C92.7089 64.3853 92.1687 59.3365 93.628 48.5311C94.2987 48.1647 96.9814 50.2575 101.049 50.537C105.098 50.8102 108.83 49.7234 110.855 48.6056Z" fill="#F0B1B1"/>
<path d="M103.732 74.905C103.732 74.905 109.88 73.8741 112.053 72.806C113.506 72.0919 114.73 70.8126 115.102 69.9805C115.102 69.9805 114.643 71.7814 113.314 73.3711C111.687 75.3149 103.682 76.5258 103.682 76.5258L103.732 74.905Z" fill="#CE8888"/>
<path d="M106.905 53.3812L109.768 54.2568C109.992 53.4433 109.532 52.5801 108.743 52.3441C107.948 52.1019 107.129 52.5677 106.905 53.3812Z" fill="#263238"/>
<path d="M105.912 66.9686L101.701 68.3969C102.074 69.6017 103.322 70.2599 104.483 69.8687C105.645 69.4713 106.284 68.1734 105.912 66.9686Z" fill="#CE8888"/>
<path d="M105.57 67.9995C104.408 67.9995 103.433 68.8005 103.166 69.8811C103.582 70.0115 104.036 70.0115 104.477 69.8625C105.296 69.583 105.843 68.8626 105.973 68.0367C105.843 68.0181 105.706 67.9995 105.57 67.9995Z" fill="#F28F8F"/>
<path d="M94.1247 53.8593L97.031 53.4743C96.9441 52.6856 96.2237 52.1267 95.4226 52.2323C94.6215 52.3441 94.044 53.0706 94.1247 53.8593Z" fill="#263238"/>
<path d="M112.028 55.1013L121.635 58.3926C121.635 58.3926 120.132 58.2684 118.866 59.7961L112.066 57.2127L112.028 55.1013Z" fill="#263238"/>
<path d="M95.5593 58.8521C95.5407 59.5104 96.0375 60.0569 96.6709 60.0755C97.3044 60.0941 97.8384 59.5787 97.857 58.9204C97.8757 58.2622 97.3851 57.7157 96.7454 57.6909C96.112 57.6722 95.578 58.1877 95.5593 58.8521Z" fill="#263238"/>
<path d="M106.532 58.8522C106.514 59.5104 107.011 60.0569 107.644 60.0755C108.277 60.0942 108.811 59.5787 108.83 58.9205C108.849 58.2622 108.352 57.7157 107.718 57.6909C107.085 57.6785 106.551 58.1939 106.532 58.8522Z" fill="#263238"/>
<path d="M89.8897 55.7968C89.9332 56.3806 90.3058 56.9208 90.4983 57.1506C90.5976 57.2686 90.6908 57.4301 90.7405 57.635C90.964 58.5603 91.1566 60.3115 91.5913 61.2927C92.0322 62.2739 92.9512 63.8326 95.5284 63.8885C96.0314 63.9009 96.4723 63.8574 96.8698 63.7767C96.907 63.7705 96.9381 63.7643 96.9691 63.7518C97.3852 63.6525 97.7454 63.5097 98.0559 63.3234C98.0807 63.3109 98.0993 63.2985 98.118 63.2799C98.149 63.2613 98.1801 63.2426 98.2111 63.224C98.2359 63.2054 98.267 63.1867 98.3291 63.1433C98.3664 63.1184 98.4036 63.0874 98.4347 63.0625C98.4781 63.0315 98.5154 63.0004 98.5527 62.9632C98.5899 62.9321 98.6272 62.9011 98.6644 62.8638C98.739 62.7955 98.8073 62.7272 98.8756 62.6527C99.2544 62.2366 99.5338 61.7522 99.7512 61.2616C100.316 59.9824 100.173 58.1939 101.105 57.989C101.142 57.9828 101.179 57.9765 101.217 57.9703C101.254 57.9641 101.297 57.9641 101.341 57.9641C102.608 57.9828 102.471 59.9327 103.179 61.3237C103.887 62.7148 105.061 64.0748 107.818 64.112C107.942 64.112 108.06 64.112 108.172 64.112C108.271 64.1058 108.364 64.0996 108.458 64.0934C108.694 64.0748 108.917 64.0437 109.122 64.0002C109.19 63.9816 109.265 63.9692 109.333 63.9506C109.402 63.9319 109.47 63.9133 109.532 63.8947C109.575 63.8823 109.619 63.8698 109.656 63.8574C109.936 63.7581 110.184 63.6401 110.401 63.5097C110.488 63.4538 110.569 63.3979 110.65 63.342C110.805 63.224 110.948 63.0998 111.078 62.9632C111.494 62.5347 111.743 62.0565 111.91 61.6715C112.339 60.7089 112.451 58.9577 112.662 58.0449C112.718 57.8027 112.792 57.635 112.873 57.517C113.053 57.2562 113.475 56.7966 113.494 56.2129C113.513 55.6292 113.096 55.1199 112.724 55.0641C112.507 55.033 112.283 55.002 112.047 54.9771C109.873 54.7163 107.042 54.5983 105.346 55.0578C103.223 55.6416 102.484 56.3185 101.297 56.3061C100.186 56.2812 99.4717 55.5733 97.4535 54.915C95.8451 54.3934 93.1996 54.4058 91.1752 54.5921C90.9578 54.6107 90.7467 54.6356 90.548 54.6604C90.2188 54.6915 89.8524 55.2131 89.8897 55.7968ZM103.875 57.132C103.986 56.9643 104.198 56.7966 104.477 56.6352C104.514 56.6103 104.545 56.5917 104.589 56.5731C104.607 56.5607 104.626 56.5545 104.651 56.542C104.744 56.4924 104.843 56.4427 104.949 56.3992C105.036 56.3619 105.129 56.3247 105.228 56.2874C105.508 56.1819 105.818 56.0825 106.135 56.0018C106.253 55.9707 106.377 55.9459 106.495 55.9148C106.806 55.8465 107.116 55.7968 107.427 55.7658C107.501 55.7596 107.576 55.7534 107.644 55.7472C109.693 55.5795 110.966 56.0639 111.432 56.4799C111.91 56.9146 111.693 58.8087 111.501 59.765C111.494 59.7899 111.488 59.8147 111.488 59.8333C111.482 59.8582 111.476 59.883 111.476 59.9079C111.451 60.0258 111.426 60.1563 111.389 60.2929C111.37 60.3674 111.345 60.4481 111.32 60.5351C111.32 60.5413 111.32 60.5413 111.314 60.5475C111.277 60.6779 111.233 60.8083 111.178 60.9511C111.159 60.9946 111.14 61.0443 111.122 61.0878C111.109 61.1126 111.097 61.1436 111.084 61.1685C111.072 61.1995 111.06 61.2306 111.041 61.2616C111.022 61.2989 111.004 61.3362 110.985 61.3734C110.966 61.4169 110.942 61.4604 110.917 61.5038C110.892 61.5473 110.867 61.5908 110.836 61.6404C110.811 61.6839 110.78 61.7336 110.749 61.7771C110.24 62.5098 109.383 63.1308 107.886 63.1246C106.408 63.1246 105.464 62.6154 104.862 61.9696C104.266 61.3299 103.999 60.5599 103.868 60.0321C103.62 58.9639 103.477 57.7157 103.875 57.132ZM91.8396 56.126C91.9514 56.0204 92.1191 55.9086 92.3427 55.8093C92.3551 55.803 92.3675 55.7968 92.3799 55.7906C92.4482 55.7596 92.5227 55.7285 92.6035 55.7037C92.6469 55.6913 92.6904 55.6726 92.7401 55.6602C92.7774 55.6478 92.8146 55.6354 92.8519 55.6292C92.8767 55.623 92.9016 55.6167 92.9264 55.6105C92.9388 55.6043 92.945 55.6043 92.9575 55.6043C92.9947 55.5981 93.032 55.5857 93.0692 55.5795C93.2121 55.5484 93.3735 55.5236 93.5412 55.505C93.6219 55.4925 93.7089 55.4863 93.7958 55.4801C93.8455 55.4739 93.8952 55.4739 93.951 55.4677C93.9883 55.4677 94.0318 55.4615 94.069 55.4615C94.1746 55.4615 94.2864 55.4553 94.3982 55.4553C94.4354 55.4553 94.4789 55.4553 94.5162 55.4553C94.5534 55.4553 94.5907 55.4553 94.6279 55.4615C94.9198 55.4739 95.2365 55.4988 95.5719 55.5484C97.0312 55.7596 98.5589 56.4365 98.9501 57.0326C99.3475 57.635 99.2606 58.877 99.0681 59.9451C99.0308 60.1563 98.9749 60.4047 98.8818 60.6593C98.8756 60.6779 98.8694 60.6965 98.8632 60.7152C98.8569 60.74 98.8445 60.7648 98.8383 60.7897C98.8321 60.8083 98.8259 60.8207 98.8197 60.8394C98.8073 60.8704 98.7949 60.8952 98.7824 60.9263C98.7576 60.9884 98.7328 61.0443 98.7017 61.1002C98.6769 61.1499 98.652 61.1995 98.6272 61.2492C98.6148 61.2678 98.6086 61.2865 98.5961 61.3051C98.5775 61.3362 98.5589 61.3734 98.534 61.4045C98.5154 61.4355 98.4968 61.4604 98.4781 61.4914C98.4781 61.4976 98.4719 61.5038 98.4719 61.5038C97.9627 62.2801 97.056 62.9508 95.4352 62.8949C94.8204 62.8762 94.3174 62.7396 93.9014 62.5285C92.4482 61.7895 92.0818 60.1625 91.908 59.4048C91.6906 58.4485 91.4049 56.542 91.8396 56.126Z" fill="#263238"/>
<path d="M101.695 58.0386L101.477 66.0185L97.0249 64.733L101.179 57.9703C101.372 57.9517 101.54 57.9827 101.695 58.0386Z" fill="#CE8888"/>
<path d="M163.956 59.0509C176.663 59.0509 186.964 50.0288 186.964 38.8994C186.964 27.7701 176.663 18.748 163.956 18.748C151.249 18.748 140.948 27.7701 140.948 38.8994C140.948 50.0288 151.249 59.0509 163.956 59.0509Z" fill="#0B8C09"/>
<path d="M145.594 50.5556C145.469 53.257 143.184 58.0883 139.048 59.8458C138.787 59.9575 138.819 60.3301 139.098 60.386C141.358 60.858 147.382 61.4231 151.828 55.5671L145.594 50.5556Z" fill="#0B8C09"/>
<path d="M148.357 37.3035C148.407 36.3968 148.605 35.546 148.953 34.7449C149.301 33.9438 149.791 33.2483 150.431 32.6584C151.071 32.0684 151.847 31.6027 152.76 31.2549C153.673 30.9072 154.728 30.7333 155.921 30.7333C157.101 30.7333 158.15 30.9072 159.069 31.2549C159.988 31.6027 160.771 32.0684 161.404 32.6584C162.044 33.2483 162.534 33.9438 162.882 34.7449C163.23 35.546 163.429 36.3968 163.478 37.3035C163.509 37.999 163.528 38.7255 163.528 39.4832C163.528 40.2408 163.509 40.9549 163.478 41.6132C163.429 42.5199 163.23 43.3706 162.882 44.1717C162.534 44.9728 162.044 45.6683 161.404 46.2707C160.765 46.8669 159.988 47.3388 159.069 47.6742C158.15 48.0157 157.101 48.1834 155.921 48.1834C154.728 48.1834 153.673 48.0157 152.76 47.6742C151.847 47.3326 151.071 46.8669 150.431 46.2707C149.791 45.6745 149.301 44.9728 148.953 44.1717C148.605 43.3706 148.407 42.5199 148.357 41.6132C148.326 40.9487 148.307 40.2408 148.307 39.4832C148.307 38.7255 148.326 37.999 148.357 37.3035ZM158.995 41.4952C159.013 41.2033 159.026 40.8804 159.044 40.5264C159.063 40.1725 159.069 39.8061 159.069 39.4397C159.069 39.0671 159.063 38.7069 159.044 38.3592C159.026 38.0114 159.013 37.7009 158.995 37.4277C158.964 37.024 158.877 36.6514 158.74 36.3161C158.603 35.9745 158.411 35.6826 158.156 35.4342C157.908 35.1858 157.597 34.9871 157.225 34.8381C156.852 34.6953 156.418 34.6207 155.915 34.6207C155.411 34.6207 154.977 34.6953 154.604 34.8381C154.232 34.9809 153.921 35.1796 153.673 35.4342C153.424 35.6826 153.232 35.9807 153.089 36.3161C152.952 36.6576 152.865 37.024 152.834 37.4277C152.803 37.7009 152.778 38.0114 152.772 38.3592C152.766 38.7069 152.76 39.0671 152.76 39.4397C152.76 39.8123 152.766 40.1725 152.772 40.5264C152.778 40.8804 152.797 41.2033 152.834 41.4952C152.896 42.3025 153.176 42.9732 153.673 43.5072C154.163 44.0413 154.915 44.3083 155.915 44.3083C156.914 44.3083 157.66 44.0413 158.144 43.5072C158.628 42.9732 158.914 42.3025 158.995 41.4952Z" fill="#FAFAFA"/>
<path d="M180.68 47.1401C180.73 47.2022 180.755 47.2953 180.755 47.4071C180.755 47.55 180.699 47.6804 180.599 47.7797C180.494 47.8853 180.37 47.935 180.227 47.935H176.364C176.141 47.935 175.954 47.8853 175.805 47.7921C175.662 47.6928 175.513 47.5562 175.37 47.3823L170.794 41.6132V47.2829C170.794 47.463 170.732 47.6121 170.601 47.7425C170.471 47.8729 170.322 47.935 170.142 47.935H166.968C166.788 47.935 166.639 47.8729 166.509 47.7425C166.378 47.6121 166.316 47.463 166.316 47.2829V31.6337C166.316 31.4536 166.378 31.3046 166.509 31.1742C166.639 31.0438 166.794 30.9817 166.968 30.9817H170.142C170.322 30.9817 170.471 31.0438 170.601 31.1742C170.732 31.3046 170.794 31.4598 170.794 31.6337V36.7446L175.06 31.5095C175.141 31.4102 175.246 31.2984 175.377 31.168C175.507 31.0376 175.724 30.9755 176.029 30.9755H179.811C179.953 30.9755 180.084 31.0314 180.189 31.1307C180.295 31.2363 180.345 31.3605 180.345 31.5033C180.345 31.6151 180.32 31.7082 180.27 31.7703L174.284 39.0857L180.68 47.1401Z" fill="#FAFAFA"/>
<path d="M223.324 57.9517L219.84 59.0012L217.325 50.5991L220.796 49.5558L223.324 57.9517Z" fill="#E0E0E0"/>
<path d="M234.197 50.4935C234.334 50.9468 233.887 51.9156 233.21 52.1205C233.21 52.1205 233.533 52.4621 233.701 53.0085C233.899 53.6606 233.371 54.5362 232.322 54.8467C231.279 55.1572 224.355 57.2438 224.355 57.2438L222.007 49.444H222.001C222.001 49.444 223.355 45.9912 223.417 45.4758C223.498 44.9666 222.684 43.0415 222.579 42.6813C222.492 42.3894 223.758 41.8492 224.777 42.2652C225.013 42.3584 225.236 42.5012 225.429 42.7123C225.826 43.147 226.124 43.5755 226.342 44.0227C226.683 44.7058 226.826 45.4199 226.826 46.2272L231.639 44.7803C232.043 44.6623 232.39 44.6933 232.67 44.8113C233.098 44.9914 233.372 45.3578 233.465 45.6559C233.688 46.3576 233.278 46.8979 233.055 47.109C233.055 47.109 234.079 47.0221 234.371 47.9908C234.533 48.5311 234.266 49.2515 233.576 49.6054C233.583 49.593 233.999 49.8166 234.197 50.4935Z" fill="#E0E0E0"/>
<path d="M273.24 145.072L268.781 143.997L271.383 133.229L275.842 134.304L273.24 145.072Z" fill="#E0E0E0"/>
<path d="M289.864 143.861C289.727 144.438 288.622 145.215 287.753 145.003C287.753 145.003 287.889 145.587 287.722 146.283C287.523 147.121 286.386 147.736 285.051 147.407C283.716 147.084 274.83 144.948 274.83 144.948L277.239 134.943L277.233 134.937C277.233 134.937 280.909 132.031 281.307 131.509C281.716 131 282.058 128.392 282.17 127.926C282.263 127.547 283.983 127.771 284.834 128.87C285.026 129.125 285.182 129.423 285.256 129.777C285.411 130.509 285.467 131.168 285.418 131.789C285.356 132.757 285.057 133.621 284.542 134.502L290.715 135.987C291.23 136.111 291.59 136.372 291.82 136.676C292.174 137.142 292.242 137.719 292.149 138.104C291.944 139.011 291.149 139.34 290.777 139.433C290.777 139.433 291.951 139.992 291.652 141.234C291.485 141.93 290.733 142.544 289.758 142.488C289.765 142.495 290.075 142.998 289.864 143.861Z" fill="#E0E0E0"/>
<path d="M47.7053 138.632L52.5802 140.098L56.1075 128.336L51.2388 126.87L47.7053 138.632Z" fill="#E0E0E0"/>
<path d="M32.4722 128.181C32.2859 128.814 32.9069 130.174 33.857 130.46C33.857 130.46 33.4037 130.938 33.1739 131.702C32.8945 132.615 33.6397 133.838 35.1053 134.273C36.5646 134.707 46.2646 137.632 46.2646 137.632L49.5497 126.709H49.5559C49.5559 126.709 47.6619 121.877 47.5687 121.151C47.4569 120.437 48.5934 117.742 48.7424 117.239C48.8666 116.829 47.0906 116.077 45.6623 116.655C45.3331 116.791 45.0226 116.99 44.7494 117.282C44.1905 117.897 43.7744 118.493 43.4701 119.114C42.9857 120.07 42.7932 121.07 42.7932 122.2L36.0554 120.17C35.4903 120.002 34.9997 120.052 34.6147 120.213C34.0123 120.462 33.6273 120.977 33.5031 121.393C33.1926 122.38 33.7701 123.138 34.0744 123.43C34.0744 123.43 32.6399 123.312 32.23 124.666C32.0003 125.423 32.3791 126.429 33.3416 126.926C33.3354 126.926 32.7579 127.237 32.4722 128.181Z" fill="#E0E0E0"/>
</svg>
