<svg width="312" height="311" viewBox="0 0 312 311" fill="none" xmlns="http://www.w3.org/2000/svg">
<g clip-path="url(#clip0_185_11801)">
<path d="M325.193 251.137H-14V251.307H325.193V251.137Z" fill="#EBEBEB"/>
<path d="M44.0565 257.596H21.5884V257.765H44.0565V257.596Z" fill="#EBEBEB"/>
<path d="M107.994 255.757H102.099V255.927H107.994V255.757Z" fill="#EBEBEB"/>
<path d="M57.7531 263.898H44.7349V264.067H57.7531V263.898Z" fill="#EBEBEB"/>
<path d="M291.206 262.758H261.906V262.928H291.206V262.758Z" fill="#EBEBEB"/>
<path d="M255.862 262.758H251.568V262.928H255.862V262.758Z" fill="#EBEBEB"/>
<path d="M237.606 259.895H174.055V260.065H237.606V259.895Z" fill="#EBEBEB"/>
<path d="M146.784 220.881H15.7947C13.6578 220.881 11.9211 219.145 11.9211 217.008V32.8736C11.9211 30.7367 13.6578 29 15.7947 29H146.791C148.928 29 150.665 30.7367 150.665 32.8736V217.008C150.658 219.145 148.921 220.881 146.784 220.881ZM15.7947 29.1696C13.7528 29.1696 12.0907 30.8316 12.0907 32.8736V217.008C12.0907 219.05 13.7528 220.712 15.7947 220.712H146.791C148.833 220.712 150.495 219.05 150.495 217.008V32.8736C150.495 30.8316 148.833 29.1696 146.791 29.1696H15.7947Z" fill="#EBEBEB"/>
<path d="M293.519 220.881H162.523C160.386 220.881 158.649 219.145 158.649 217.008V32.8736C158.649 30.7367 160.386 29 162.523 29H293.519C295.656 29 297.393 30.7367 297.393 32.8736V217.008C297.393 219.145 295.656 220.881 293.519 220.881ZM162.523 29.1696C160.481 29.1696 158.819 30.8316 158.819 32.8736V217.008C158.819 219.05 160.481 220.712 162.523 220.712H293.519C295.561 220.712 297.223 219.05 297.223 217.008V32.8736C297.223 30.8316 295.561 29.1696 293.519 29.1696H162.523Z" fill="#EBEBEB"/>
<path d="M158.493 41.7062H27.646V187.552H158.493V41.7062Z" fill="#EBEBEB"/>
<path d="M162.74 41.7062H29.627V187.552H162.74V41.7062Z" fill="#F5F5F5"/>
<path d="M158.493 187.552H27.646V195.456H158.493V187.552Z" fill="#EBEBEB"/>
<path d="M182.942 187.552H49.8293V195.456H182.942V187.552Z" fill="#F0F0F0"/>
<path d="M156.789 181.599L156.789 47.6585L35.5814 47.6585L35.5814 181.599L156.789 181.599Z" fill="#FAFAFA"/>
<path d="M40.5081 181.596L75.4585 47.6556H91.9568L57.0064 181.596H40.5081Z" fill="white"/>
<path d="M38.3441 124.659C38.1067 124.659 37.9167 124.469 37.9167 124.232V51.5292C37.9167 51.2918 38.1067 51.1018 38.3441 51.1018C38.5816 51.1018 38.7715 51.2918 38.7715 51.5292V124.232C38.7647 124.462 38.5748 124.659 38.3441 124.659Z" fill="#F1F1F1"/>
<path d="M60.5479 181.596L95.4983 47.6556H101.929L66.9857 181.596H60.5479Z" fill="white"/>
<path d="M156.794 181.601L156.794 47.6603H156.041L156.041 181.601H156.794Z" fill="#EBEBEB"/>
<path d="M164.151 54.0867H33.3039L32.7544 49.9689H163.608L164.151 54.0867Z" fill="#EBEBEB"/>
<path d="M164.151 57.1055H33.3039L32.7544 52.9877H163.608L164.151 57.1055Z" fill="#EBEBEB"/>
<path d="M164.151 60.7213H33.3039L32.7544 56.6035H163.608L164.151 60.7213Z" fill="#EBEBEB"/>
<path d="M164.151 64.7441H33.3039L32.7544 60.6263H163.608L164.151 64.7441Z" fill="#EBEBEB"/>
<path d="M164.151 69.5674H33.3039L32.7544 65.4496H163.608L164.151 69.5674Z" fill="#EBEBEB"/>
<path d="M164.151 74.9946H33.3039L32.7544 70.8768H163.608L164.151 74.9946Z" fill="#EBEBEB"/>
<path d="M38.6904 178.442H53.3164V179.887H52.3938L51.6272 187.552H40.3728L39.613 179.887H38.6904V178.442Z" fill="#EBEBEB"/>
<path d="M37.6114 165.016C37.6047 165.003 37.6114 164.996 37.6047 164.982C37.4147 164.345 37.2383 163.707 37.0823 163.056C36.1258 164.297 35.1964 164.609 34.5044 164.609C34.4298 164.609 34.3552 164.603 34.2806 164.596C32.9102 164.46 31.5942 163.13 30.7598 161.034C30.7258 160.953 30.7326 160.865 30.7733 160.79C30.814 160.715 30.8819 160.661 30.9633 160.641C33.6361 159.942 35.7595 160.98 36.7702 161.645C36.6481 161.034 36.5396 160.424 36.4582 159.813C36.2343 159.854 36.0172 159.881 35.8002 159.881C33.5615 159.881 31.913 157.887 31.8384 157.785C31.7773 157.71 31.757 157.615 31.7841 157.527C31.8045 157.439 31.8723 157.364 31.9605 157.33C33.2969 156.801 34.4298 156.754 35.3253 157.195C35.8816 157.466 36.3225 157.927 36.6481 158.531C37.1298 157.086 38.5476 154.325 42.4823 153.552C42.5704 153.531 42.6519 153.558 42.7197 153.606C42.7875 153.66 42.8282 153.735 42.835 153.823C42.9503 155.858 42.8893 158.348 41.3561 159.528C40.7795 159.976 40.0469 160.2 39.1582 160.2C38.5408 160.2 37.8421 160.084 37.0687 159.874C37.279 161.333 37.6047 162.791 38.0117 164.223C38.8054 163.171 40.8813 160.81 44.029 160.003C44.185 159.962 44.3478 160.057 44.3885 160.213C44.8498 161.964 44.6124 163.388 43.7034 164.324C42.9571 165.098 41.7835 165.491 40.3046 165.491C39.6941 165.491 39.0361 165.423 38.3305 165.288C38.7036 166.488 39.1242 167.655 39.572 168.781C40.4878 167.974 43.1742 165.919 46.0981 166.773C46.1795 166.794 46.2473 166.855 46.2812 166.929C46.3151 167.004 46.3219 167.092 46.288 167.167C45.4943 169.107 44.592 170.179 43.4524 170.552C43.1539 170.647 42.8418 170.694 42.5162 170.694C41.7971 170.694 40.9898 170.457 40.0672 169.975C40.6981 171.461 41.3629 172.845 42.0006 174.086C42.6858 173.34 44.5649 171.814 47.8958 172.519C48.045 172.553 48.14 172.689 48.1264 172.838C48.0179 174.046 47.1631 175.199 45.9963 175.701C45.6707 175.843 45.2026 175.979 44.626 175.979C44.0832 175.979 43.4456 175.85 42.7468 175.491C44.2257 178.211 45.4061 179.941 45.4332 179.982C45.5282 180.117 45.4943 180.3 45.3586 180.395C45.3111 180.429 45.2501 180.45 45.189 180.45C45.094 180.45 45.0059 180.402 44.9448 180.321C44.9109 180.273 43.4388 178.109 41.7089 174.805C41.6885 174.778 41.6682 174.744 41.6614 174.717C41.4715 174.351 41.2747 173.964 41.078 173.571C40.2707 174.67 39.1921 175.274 38.032 175.274C37.9099 175.274 37.781 175.267 37.6522 175.253C36.2954 175.104 35.0539 174.134 34.6401 172.899C34.5926 172.764 34.6537 172.614 34.7758 172.546C37.1501 171.224 39.3345 171.821 40.4675 172.323C40.0401 171.42 39.6195 170.464 39.2124 169.467C39.1853 169.433 39.1717 169.385 39.165 169.344C39.0496 169.06 38.9411 168.775 38.8258 168.49C37.8421 169.724 36.872 170.335 35.8612 170.335C35.8612 170.335 35.8612 170.335 35.8544 170.335C34.6266 170.335 33.3783 169.426 32.0487 167.56C31.9537 167.431 31.9808 167.248 32.1097 167.153C34.1992 165.579 37.0687 166.651 38.3645 167.282C38.0999 166.543 37.8489 165.79 37.625 165.03C37.6182 165.023 37.6114 165.016 37.6114 165.016Z" fill="#EBEBEB"/>
<path d="M52.9364 172.906C52.448 173.048 51.9596 173.13 51.4983 173.13C50.5078 173.13 49.6056 172.804 48.8797 172.16C47.7603 171.169 47.2719 169.595 47.6722 168.259C47.7129 168.123 47.8418 168.035 47.9842 168.049C51.2472 168.395 52.8822 170.559 53.5131 171.651C54.1711 170.172 54.8088 168.605 55.365 166.977C54.5035 167.425 53.7301 167.655 53.0382 167.655C52.7058 167.655 52.3869 167.601 52.0817 167.499C50.4739 166.95 49.497 164.976 48.6897 162.913C48.6558 162.839 48.6626 162.751 48.7033 162.676C48.7372 162.601 48.8051 162.547 48.8865 162.52C52.2038 161.597 54.8902 164.765 55.7246 165.898C56.1588 164.535 56.5319 163.137 56.8236 161.733C56.0774 161.869 55.3718 161.936 54.7274 161.936C53.0382 161.936 51.7153 161.482 50.8741 160.593C49.8837 159.542 49.6395 157.961 50.1754 156.035C50.2161 155.878 50.3789 155.784 50.5349 155.831C53.9201 156.754 56.1452 159.331 57.0407 160.546C57.0814 160.295 57.1289 160.044 57.1628 159.793C57.1696 159.725 57.2035 159.671 57.251 159.623C57.6037 158.551 58.2278 157.771 59.0622 157.378C60.0527 156.91 61.2874 156.977 62.7459 157.581C62.8341 157.615 62.8951 157.69 62.9223 157.785C62.9426 157.873 62.9223 157.975 62.8612 158.043C62.773 158.144 60.9685 160.281 58.5331 160.281C58.2821 160.281 58.0175 160.247 57.7597 160.2C57.6512 160.899 57.5223 161.597 57.3731 162.296C58.4856 161.577 60.8464 160.444 63.8042 161.258C63.8856 161.278 63.9534 161.339 63.9941 161.414C64.028 161.489 64.0348 161.577 64.0009 161.658C63.0579 163.951 61.5926 165.396 60.0866 165.518C60.0188 165.525 59.9509 165.525 59.8763 165.525C59.1097 165.525 58.0786 165.172 57.0271 163.761C56.6133 165.376 56.0977 166.957 55.5279 168.483C56.9525 167.811 60.1477 166.644 62.4338 168.415C62.5627 168.51 62.5831 168.693 62.4949 168.822C61.016 170.837 59.6524 171.814 58.3092 171.814C58.2957 171.814 58.2889 171.814 58.2753 171.814C57.1628 171.8 56.1045 171.115 55.0394 169.731C54.4289 171.244 53.7776 172.689 53.1264 174.025C54.551 173.143 56.1113 173.279 57.9565 174.446C58.0379 174.5 58.0922 174.588 58.0922 174.683C58.0922 174.778 58.0515 174.873 57.97 174.934C57.8683 175.009 56.1045 176.257 54.2525 176.257C53.5877 176.257 52.9161 176.094 52.2987 175.66C50.1076 179.866 48.1335 182.688 48.0928 182.743C48.0317 182.831 47.9299 182.878 47.8282 182.878C47.7603 182.878 47.6993 182.858 47.6382 182.817C47.489 182.715 47.4551 182.512 47.5636 182.363C47.5975 182.308 50.345 178.394 52.9364 172.906Z" fill="#EBEBEB"/>
<path d="M275.956 93.8876H245.259V127.597H275.956V93.8876Z" fill="#EBEBEB"/>
<path d="M272.767 96.0381C272.74 96.0381 272.706 96.0313 272.679 96.011C272.598 95.9635 264.403 91.0927 261.798 91.0927C259.193 91.0927 251.385 95.9635 251.303 96.011C251.229 96.0585 251.12 96.0381 251.073 95.9567C251.025 95.8753 251.045 95.7735 251.127 95.726C251.452 95.5225 259.105 90.7535 261.805 90.7535C264.505 90.7535 272.516 95.5225 272.856 95.7193C272.937 95.7668 272.964 95.8685 272.917 95.9499C272.883 96.011 272.822 96.0381 272.767 96.0381Z" fill="#EBEBEB"/>
<path d="M279.28 93.8876H247.572V127.597H279.28V93.8876Z" fill="#F5F5F5"/>
<path d="M276.625 124.943V96.5455H250.23V124.943H276.625Z" fill="white"/>
<path d="M264.138 114.171C263.704 114.171 263.284 114.219 262.877 114.307C262.985 113.954 263.039 113.581 263.039 113.188C263.039 112.231 262.693 111.356 262.124 110.678C262.415 110.766 262.721 110.827 263.039 110.827C264.824 110.827 266.269 109.382 266.269 107.598C266.269 105.814 264.824 104.369 263.039 104.369C261.255 104.369 259.81 105.814 259.81 107.598C259.81 108.324 260.054 108.982 260.455 109.518C260.041 109.368 259.593 109.28 259.132 109.28C256.975 109.28 255.224 111.03 255.224 113.188C255.224 115.325 256.934 117.054 259.057 117.095C258.548 117.963 258.257 118.968 258.257 120.046C258.257 123.296 260.889 125.928 264.138 125.928C267.388 125.928 270.02 123.296 270.02 120.046C270.02 116.797 267.381 114.171 264.138 114.171Z" fill="#F5F5F5"/>
<path d="M258.454 101.567C258.454 103.351 257.009 104.796 255.224 104.796C253.44 104.796 251.995 103.351 251.995 101.567C251.995 99.7827 253.44 98.3378 255.224 98.3378C257.009 98.3378 258.454 99.7827 258.454 101.567Z" fill="#F5F5F5"/>
<path d="M234.377 61.9085H199.685V99.9999H234.377V61.9085Z" fill="#EBEBEB"/>
<path d="M230.097 63.4688C230.07 63.4688 230.036 63.462 230.009 63.4417C229.927 63.3942 221.732 58.5234 219.127 58.5234C216.522 58.5234 208.714 63.3942 208.633 63.4417C208.558 63.4892 208.45 63.4688 208.402 63.3874C208.355 63.306 208.375 63.2043 208.456 63.1568C208.782 62.9533 216.427 58.1842 219.127 58.1842C221.827 58.1842 229.839 62.9533 230.178 63.15C230.26 63.1975 230.287 63.2992 230.239 63.3806C230.212 63.4417 230.151 63.4688 230.097 63.4688Z" fill="#EBEBEB"/>
<path d="M238.129 61.9085H202.297V99.9999H238.129V61.9085Z" fill="#F5F5F5"/>
<path d="M235.129 96.9939V64.9063H205.3V96.9939H235.129Z" fill="white"/>
<path d="M209.569 98.9416H209.047C208.45 98.9416 207.968 98.46 207.968 97.863V69.52C207.968 68.9231 208.45 68.4414 209.047 68.4414H209.569C210.166 68.4414 210.648 68.9231 210.648 69.52V97.863C210.648 98.46 210.166 98.9416 209.569 98.9416Z" fill="#F5F5F5"/>
<path d="M218.245 83.6983H216.359C216.292 83.6983 216.23 83.7051 216.169 83.7186V77.7692C216.169 77.1722 215.688 76.6906 215.091 76.6906H213.205C212.608 76.6906 212.126 77.1722 212.126 77.7692V97.8698C212.126 98.4667 212.608 98.9484 213.205 98.9484H215.091C215.328 98.9484 215.545 98.867 215.722 98.7381C215.898 98.867 216.115 98.9484 216.353 98.9484H218.238C218.835 98.9484 219.317 98.4667 219.317 97.8698V84.7769C219.324 84.1799 218.835 83.6983 218.245 83.6983Z" fill="#F5F5F5"/>
<path d="M228.611 98.9416H221.624C221.027 98.9416 220.545 98.46 220.545 97.863V76.6838C220.545 76.0868 221.027 75.6052 221.624 75.6052H228.611C229.208 75.6052 229.69 76.0868 229.69 76.6838V97.863C229.69 98.46 229.208 98.9416 228.611 98.9416Z" fill="#F5F5F5"/>
<path d="M230.287 73.0544C232.111 73.0544 233.591 71.5752 233.591 69.7506C233.591 67.926 232.111 66.4469 230.287 66.4469C228.462 66.4469 226.983 67.926 226.983 69.7506C226.983 71.5752 228.462 73.0544 230.287 73.0544Z" fill="#F5F5F5"/>
<path d="M110.24 178.394C110.24 183.455 115.707 187.552 122.45 187.552C129.194 187.552 134.661 183.455 134.661 178.394H110.24Z" fill="#EBEBEB"/>
<path d="M155.596 281.773C228.24 281.773 287.129 278.335 287.129 274.094C287.129 269.853 228.24 266.415 155.596 266.415C82.9532 266.415 24.0642 269.853 24.0642 274.094C24.0642 278.335 82.9532 281.773 155.596 281.773Z" fill="#F5F5F5"/>
<path d="M218.435 274.847C225.206 274.847 230.694 274.51 230.694 274.094C230.694 273.678 225.206 273.341 218.435 273.341C211.665 273.341 206.177 273.678 206.177 274.094C206.177 274.51 211.665 274.847 218.435 274.847Z" fill="#E6E6E6"/>
<path d="M135.164 256.286H242.328C252.714 256.286 261.214 247.786 261.214 237.4V176.834C261.214 166.448 252.714 157.948 242.328 157.948H135.164C124.778 157.948 116.277 166.448 116.277 176.834V237.4C116.277 247.786 124.778 256.286 135.164 256.286Z" fill="#263238"/>
<path d="M223.639 274.094H213.497L192.887 225.271H208.409L223.639 274.094Z" fill="#263238"/>
<path d="M264.267 202.138H263.589V207.117H264.267V202.138Z" fill="#0066FF"/>
<path opacity="0.2" d="M264.267 202.138H263.589V207.117H264.267V202.138Z" fill="black"/>
<path d="M264.267 180.911H263.589V198.739H264.267V180.911Z" fill="#0066FF"/>
<path opacity="0.2" d="M264.267 180.911H263.589V198.739H264.267V180.911Z" fill="black"/>
<path d="M178.078 154.895H168.879V155.573H178.078V154.895Z" fill="#0066FF"/>
<path opacity="0.2" d="M178.078 154.895H168.879V155.573H178.078V154.895Z" fill="black"/>
<path d="M251.547 225.271L223.618 274.094L203.009 225.271H251.547Z" fill="#0066FF"/>
<path opacity="0.2" d="M251.554 225.271L223.625 274.094L203.016 225.271H251.554Z" fill="black"/>
<path d="M143.698 256.286H242.328C252.714 256.286 261.214 247.786 261.214 237.4V176.834C261.214 166.448 252.714 157.948 242.328 157.948H143.698C133.311 157.948 124.811 166.448 124.811 176.834V237.4C124.811 247.786 133.311 256.286 143.698 256.286Z" fill="#0066FF"/>
<path opacity="0.2" d="M143.698 256.286H242.328C252.714 256.286 261.214 247.786 261.214 237.4V176.834C261.214 166.448 252.714 157.948 242.328 157.948H143.698C133.311 157.948 124.811 166.448 124.811 176.834V237.4C124.811 247.786 133.311 256.286 143.698 256.286Z" fill="black"/>
<path opacity="0.7" d="M177.814 256.286H159.769L178.858 157.948H196.91L177.814 256.286Z" fill="#0066FF"/>
<path opacity="0.7" d="M194.115 256.286H183.851L202.948 157.948H213.205L194.115 256.286Z" fill="#0066FF"/>
<path d="M236.745 189.676H186.599C183.709 189.676 181.368 187.335 181.368 184.445C181.368 181.555 183.709 179.215 186.599 179.215H236.745C239.635 179.215 241.975 181.555 241.975 184.445C241.982 187.335 239.635 189.676 236.745 189.676Z" fill="white"/>
<path d="M169.415 189.676H146.703C143.813 189.676 141.472 187.335 141.472 184.445C141.472 181.555 143.813 179.215 146.703 179.215H169.415C172.305 179.215 174.645 181.555 174.645 184.445C174.652 187.335 172.305 189.676 169.415 189.676Z" fill="white"/>
<path d="M236.745 211.737H152.028C149.139 211.737 146.798 209.396 146.798 206.506C146.798 203.617 149.139 201.276 152.028 201.276H236.745C239.635 201.276 241.976 203.617 241.976 206.506C241.976 209.396 239.635 211.737 236.745 211.737Z" fill="white"/>
<path d="M236.745 233.791H197.5C194.61 233.791 192.27 231.451 192.27 228.561C192.27 225.671 194.61 223.33 197.5 223.33H236.745C239.635 223.33 241.975 225.671 241.975 228.561C241.982 231.451 239.635 233.791 236.745 233.791Z" fill="white"/>
<path opacity="0.1" d="M149.301 157.948C149.301 157.948 141.798 198.515 141.798 215.651C141.798 233.228 147.999 256.286 147.999 256.286H128.19L126.874 234.029C125.646 213.209 127.701 192.328 132.979 172.153L136.697 157.941H149.301V157.948Z" fill="black"/>
<path d="M138.969 274.094C138.969 274.894 127.844 275.546 114.12 275.546C100.396 275.546 89.2708 274.894 89.2708 274.094C89.2708 273.293 100.396 272.642 114.12 272.642C127.844 272.642 138.969 273.293 138.969 274.094Z" fill="#E6E6E6"/>
<path d="M130.449 105.508C128.346 105.841 126.379 106.01 124.344 106.159C122.322 106.295 120.294 106.329 118.258 106.316C114.168 106.295 110.125 105.875 105.939 104.938C104.406 104.538 103.348 103.853 102.405 103.161C101.475 102.455 100.675 101.709 99.9217 100.949C98.4293 99.4231 97.1607 97.8018 95.96 96.1669C93.5992 92.8496 91.5369 89.4576 89.7256 85.8554L92.2695 84.3358C93.4092 85.869 94.5828 87.436 95.7904 88.942C96.9775 90.4616 98.2054 91.9473 99.474 93.3583C100.729 94.783 102.038 96.1397 103.381 97.3337C104.053 97.9239 104.738 98.4666 105.41 98.9008C106.075 99.3281 106.746 99.647 107.133 99.6945C108.856 99.9794 110.749 100.217 112.601 100.312C114.473 100.393 116.352 100.447 118.245 100.414C120.138 100.386 122.03 100.285 123.93 100.149C125.809 100.027 127.756 99.8166 129.54 99.5995L130.449 105.508Z" fill="#FF8B7B"/>
<path d="M136.554 99.9997C131.391 96.886 124.404 99.145 124.404 99.145L127.938 111.376C127.938 111.376 133.528 109.802 135.72 107.421C138.006 104.938 139.668 101.879 136.554 99.9997Z" fill="#263238"/>
<path d="M92.7103 85.6248L93.9585 81.4188L88.0498 82.1515C88.0498 82.1515 88.6332 84.8922 90.2003 86.7577L92.7103 85.6248Z" fill="#FF8B7B"/>
<path d="M93.5312 76.5141L88.6129 77.396L88.0498 82.1515L93.9585 81.4188L93.5312 76.5141Z" fill="#FF8B7B"/>
<path d="M160.658 61.4268C165.881 61.5354 164.416 65.8974 164.416 65.8974C164.416 65.8974 170.108 62.3019 171.919 66.5079C173.73 70.7071 169.653 72.0368 167.265 72.6677C168.764 73.5292 168.839 76.3174 166.736 77.24C164.633 78.1626 161.112 75.6322 158.453 75.6729L155.841 72.5727C159.389 70.2594 155.427 61.3183 160.658 61.4268Z" fill="#263238"/>
<path d="M159.843 77.8234C162.123 78.2168 163.778 77.9387 163.33 75.4219C162.882 72.9051 160.929 70.2661 158.052 69.2011C155.176 68.136 154.531 72.8915 154.531 72.8915L159.843 77.8234Z" fill="#0066FF"/>
<path d="M93.1853 253.627L87.3647 252.955L88.5248 239.442L94.3453 240.107L93.1853 253.627Z" fill="#FF8B7B"/>
<path d="M131.737 269.467L125.89 269.203L124.635 255.567L130.482 255.839L131.737 269.467Z" fill="#FF8B7B"/>
<path d="M125.666 267.432H132.247C132.484 267.432 132.681 267.602 132.715 267.832L133.461 273.036C133.536 273.578 133.074 274.087 132.525 274.08C130.232 274.04 129.126 273.904 126.229 273.904C124.452 273.904 121.847 274.087 119.391 274.087C116.99 274.087 116.8 271.658 117.824 271.435C122.41 270.451 123.136 269.087 124.683 267.785C124.968 267.561 125.314 267.432 125.666 267.432Z" fill="#263238"/>
<path d="M87.1677 250.825L93.7006 250.052C93.938 250.025 94.1483 250.167 94.2093 250.391L95.5661 255.472C95.7086 256.001 95.3083 256.564 94.7588 256.619C92.4795 256.849 91.3601 256.843 88.4906 257.189C86.72 257.399 83.0906 258.016 80.6484 258.301C78.2605 258.586 77.7924 256.191 78.7829 255.852C83.2263 254.333 84.8544 252.765 86.2383 251.293C86.4893 251.036 86.8217 250.866 87.1677 250.825Z" fill="#263238"/>
<path d="M88.5315 239.442L87.9277 246.409L93.7483 247.081L94.3453 240.114L88.5315 239.442Z" fill="#EA7063"/>
<path d="M130.483 255.839L124.628 255.574L125.286 262.602L131.134 262.867L130.483 255.839Z" fill="#EA7063"/>
<path d="M130.883 98.4463C130.883 98.4463 127.932 98.6295 123.936 133.214C133.013 135.785 142.402 138.444 146.818 139.699C149.07 130.276 150.692 124.53 160.562 106.682C160.562 106.682 156.065 104.28 151.207 102.645C147.408 101.37 144.288 100.353 140.815 99.7013C136.235 98.8465 130.883 98.4463 130.883 98.4463Z" fill="#263238"/>
<path d="M153.494 90.6584C151.893 93.8129 149.498 99.7555 151.208 102.652C151.208 102.652 149.335 105.786 143.121 104.023C136.29 102.089 140.815 99.708 140.815 99.708C144.797 99.8776 145.482 97.0827 145.57 94.3013L153.494 90.6584Z" fill="#FF8B7B"/>
<path d="M134.417 98.7855C136.29 98.989 138.644 99.3011 140.815 99.7013C144.288 100.353 147.409 101.37 151.208 102.646C153.155 103.297 155.034 104.07 156.594 104.769C156.289 105.902 154.03 111.777 140.699 108.378C128.244 105.203 133 99.9388 134.417 98.7855Z" fill="#FF8B7B"/>
<path d="M150.264 92.1373L145.577 94.2877C145.556 94.9458 145.502 95.6038 145.373 96.2211C146.859 96.4179 149.362 95.7531 149.939 94.3013C150.224 93.589 150.285 92.5239 150.264 92.1373Z" fill="#EA7063"/>
<path d="M156.471 83.23C155.074 88.8742 154.599 91.2892 151.18 93.6907C146.038 97.2997 139.41 94.3488 139.098 88.4061C138.813 83.0536 141.147 74.7299 147.15 73.4816C153.066 72.247 157.869 77.5859 156.471 83.23Z" fill="#FF8B7B"/>
<path d="M154.64 88.6708C152.937 87.7889 151.574 85.2653 154.03 82.9452C154.03 82.9452 150.665 81.0118 152.34 78.339C154.016 75.6729 160.847 73.4614 161.912 77.0365C162.977 80.6116 159.667 82.0905 159.667 82.0905C159.667 82.0905 162.387 86.2422 157.503 87.6125C157.503 87.6125 157.082 93.6094 153.582 90.9366L154.64 88.6708Z" fill="#263238"/>
<path d="M156.41 88.5418C156.078 89.7019 155.244 90.5973 154.368 91.0586C153.052 91.7574 152.075 90.6584 152.177 89.2541C152.265 87.9855 153.059 86.0928 154.504 85.9775C155.929 85.8554 156.79 87.2122 156.41 88.5418Z" fill="#FF8B7B"/>
<path d="M123.936 133.214C123.936 133.214 97.3568 164.562 92.8591 181.847C88.1783 199.824 86.0549 244.231 86.0549 244.231L95.186 245.425C95.186 245.425 101.291 204.77 108.971 188.21C117.152 170.565 140.692 137.969 140.692 137.969L123.936 133.214Z" fill="#0066FF"/>
<path d="M96.4411 245.588L84.8068 244.069L84.6033 240.88L97.4044 243.478L96.4411 245.588Z" fill="#0066FF"/>
<path opacity="0.3" d="M96.4411 245.588L84.8068 244.069L84.6033 240.88L97.4044 243.478L96.4411 245.588Z" fill="black"/>
<path opacity="0.2" d="M123.482 147.466C120.382 158.687 119.506 164.874 118.591 170.939C121.012 167.004 123.577 163.022 126.066 159.25C126.969 157.255 127.891 155.281 128.8 153.362C128.8 153.341 128.814 153.314 128.821 153.294L123.482 147.466Z" fill="black"/>
<path d="M129.98 134.923C129.98 134.923 122.288 174.52 119.506 197.274C117.254 215.651 124.343 260.241 124.343 260.241L131.968 260.709C131.968 260.709 130.36 220.888 133.908 203.081C142.877 158.029 151.261 151.978 146.825 139.692L129.98 134.923Z" fill="#0066FF"/>
<path d="M132.911 260.77L123.041 260.167L122.579 257.358L133.271 258.471L132.911 260.77Z" fill="#0066FF"/>
<path opacity="0.3" d="M132.911 260.77L123.041 260.167L122.579 257.358L133.271 258.471L132.911 260.77Z" fill="black"/>
<path d="M147.544 138.451L147.998 140.791C148.032 140.974 147.802 141.083 147.537 141.008L123.543 134.204C123.339 134.143 123.197 133.994 123.217 133.865L123.59 131.755C123.617 131.606 123.828 131.538 124.051 131.606L147.225 138.173C147.388 138.227 147.517 138.335 147.544 138.451Z" fill="#0066FF"/>
<path opacity="0.4" d="M147.544 138.451L147.998 140.791C148.032 140.974 147.802 141.083 147.537 141.008L123.543 134.204C123.339 134.143 123.197 133.994 123.217 133.865L123.59 131.755C123.617 131.606 123.828 131.538 124.051 131.606L147.225 138.173C147.388 138.227 147.517 138.335 147.544 138.451Z" fill="black"/>
<path d="M143.698 140.16L144.315 140.337C144.437 140.371 144.552 140.337 144.566 140.255L145.027 137.515C145.041 137.433 144.953 137.338 144.83 137.304L144.213 137.128C144.091 137.094 143.976 137.128 143.962 137.209L143.501 139.95C143.48 140.031 143.575 140.126 143.698 140.16Z" fill="#0066FF"/>
<path d="M125.212 134.923L125.829 135.099C125.951 135.133 126.066 135.099 126.08 135.018L126.541 132.277C126.555 132.196 126.467 132.101 126.344 132.067L125.727 131.891C125.605 131.857 125.49 131.891 125.476 131.972L125.015 134.713C125.001 134.794 125.089 134.889 125.212 134.923Z" fill="#0066FF"/>
<path d="M134.458 137.542L135.075 137.718C135.197 137.752 135.313 137.718 135.326 137.637L135.788 134.896C135.801 134.815 135.713 134.72 135.591 134.686L134.974 134.509C134.851 134.475 134.736 134.509 134.723 134.591L134.261 137.331C134.241 137.413 134.329 137.508 134.458 137.542Z" fill="#0066FF"/>
<path d="M147.524 83.2369C147.436 83.6982 147.124 84.0306 146.818 83.9764C146.513 83.9221 146.337 83.5015 146.425 83.0334C146.513 82.5721 146.825 82.2397 147.13 82.294C147.429 82.3482 147.605 82.7688 147.524 83.2369Z" fill="#263238"/>
<path d="M142.273 82.2668C142.185 82.7281 141.873 83.0605 141.568 83.0062C141.262 82.9519 141.086 82.5313 141.174 82.0632C141.262 81.6019 141.574 81.2695 141.88 81.3238C142.178 81.3849 142.354 81.8055 142.273 82.2668Z" fill="#263238"/>
<path d="M142.002 81.3781L140.943 80.849C140.95 80.849 141.357 81.8259 142.002 81.3781Z" fill="#263238"/>
<path d="M143.515 83.3251C143.515 83.3251 142.361 85.1771 141.317 85.9843C141.825 86.6695 142.918 86.6017 142.918 86.6017L143.515 83.3251Z" fill="#FF5652"/>
<path d="M145.027 88.8064C144.769 88.8064 144.498 88.7861 144.213 88.7318C144.139 88.7182 144.084 88.6436 144.105 88.569C144.118 88.4943 144.193 88.4469 144.267 88.4604C146.303 88.8335 147.524 87.5853 147.531 87.5717C147.585 87.5175 147.673 87.5175 147.727 87.565C147.782 87.6192 147.788 87.7074 147.734 87.7617C147.68 87.8092 146.71 88.8064 145.027 88.8064Z" fill="#263238"/>
<path d="M149.464 81.8327C149.362 81.8327 149.267 81.7784 149.213 81.6766C148.656 80.5709 147.646 80.4487 147.632 80.442C147.483 80.4284 147.367 80.2859 147.388 80.1367C147.408 79.9874 147.537 79.8721 147.693 79.8925C147.747 79.8993 149.016 80.0553 149.708 81.4256C149.776 81.5613 149.721 81.7309 149.586 81.7987C149.552 81.8259 149.504 81.8327 149.464 81.8327Z" fill="#263238"/>
<path d="M140.38 79.4175C140.312 79.4175 140.238 79.3904 140.19 79.3361C140.082 79.2276 140.075 79.0512 140.184 78.9427C141.249 77.8369 142.51 78.0675 142.565 78.0811C142.714 78.1082 142.816 78.2575 142.782 78.4067C142.755 78.556 142.605 78.651 142.456 78.6238C142.402 78.617 141.425 78.4542 140.577 79.3293C140.523 79.3904 140.455 79.4175 140.38 79.4175Z" fill="#263238"/>
<path d="M161.274 113.106C161.736 115.182 162.021 117.136 162.299 119.157C162.557 121.165 162.713 123.194 162.828 125.222C163.052 129.306 162.882 133.37 162.197 137.603C161.892 139.156 161.274 140.255 160.637 141.239C159.992 142.209 159.294 143.057 158.581 143.851C157.15 145.431 155.61 146.795 154.043 148.091C150.875 150.648 147.619 152.914 144.132 154.942L142.456 152.493C143.921 151.265 145.414 149.997 146.838 148.701C148.283 147.426 149.694 146.11 151.024 144.753C152.367 143.41 153.643 142.026 154.748 140.608C155.298 139.902 155.8 139.183 156.187 138.491C156.573 137.806 156.851 137.107 156.879 136.721C157.062 134.984 157.177 133.078 157.163 131.226C157.136 129.354 157.068 127.474 156.926 125.589C156.784 123.703 156.566 121.817 156.315 119.931C156.078 118.065 155.752 116.132 155.427 114.361L161.274 113.106Z" fill="#FF8B7B"/>
<path d="M160.562 106.682C162.658 108.032 163.174 116.702 163.174 116.702L152.476 120.541C152.476 120.541 151.099 113.032 152.903 110.345C154.782 107.537 158.167 105.142 160.562 106.682Z" fill="#263238"/>
<path d="M123.658 268.457C123.21 268.457 122.79 268.382 122.546 268.151C122.349 267.975 122.274 267.724 122.315 267.412C122.349 267.181 122.485 267.073 122.593 267.025C123.271 266.713 125.056 267.866 125.252 267.995C125.3 268.029 125.32 268.083 125.313 268.138C125.307 268.192 125.266 268.233 125.212 268.246C124.791 268.348 124.201 268.457 123.658 268.457ZM122.885 267.249C122.817 267.249 122.756 267.256 122.708 267.283C122.661 267.303 122.607 267.344 122.593 267.459C122.566 267.676 122.607 267.839 122.736 267.955C123.034 268.226 123.801 268.26 124.818 268.056C124.187 267.67 123.333 267.249 122.885 267.249Z" fill="#0066FF"/>
<path d="M125.178 268.253C125.157 268.253 125.13 268.246 125.11 268.233C124.554 267.914 123.489 266.652 123.617 265.994C123.645 265.865 123.74 265.648 124.085 265.607C124.303 265.58 124.506 265.641 124.676 265.79C125.313 266.353 125.32 268.043 125.32 268.111C125.32 268.158 125.293 268.205 125.252 268.233C125.225 268.246 125.198 268.253 125.178 268.253ZM124.18 265.879C124.16 265.879 124.14 265.879 124.119 265.885C123.943 265.906 123.902 265.987 123.889 266.048C123.807 266.448 124.472 267.398 125.028 267.846C124.995 267.283 124.866 266.34 124.486 266.001C124.391 265.919 124.296 265.879 124.18 265.879Z" fill="#0066FF"/>
<path d="M84.5899 252.135C84.2168 252.135 83.8844 252.074 83.6537 251.911C83.4434 251.761 83.3349 251.544 83.3281 251.266C83.3213 251.103 83.3892 250.961 83.518 250.873C84.1829 250.398 86.6454 251.307 86.9235 251.415C86.9778 251.436 87.0117 251.49 87.0117 251.551C87.0117 251.612 86.971 251.66 86.9168 251.68C86.2994 251.877 85.3565 252.135 84.5899 252.135ZM84.1015 251.015C83.9115 251.015 83.7623 251.042 83.6741 251.103C83.6198 251.144 83.5995 251.192 83.5995 251.266C83.6062 251.456 83.6741 251.592 83.8097 251.687C84.2032 251.958 85.1665 251.904 86.4283 251.538C85.6685 251.273 84.6917 251.015 84.1015 251.015Z" fill="#0066FF"/>
<path d="M86.8694 251.687C86.8559 251.687 86.8423 251.687 86.8287 251.68C86.0961 251.449 84.5765 250.357 84.6104 249.686C84.6172 249.53 84.7054 249.319 85.0785 249.238C85.3566 249.177 85.6212 249.224 85.8722 249.387C86.6727 249.909 86.9983 251.456 87.0119 251.524C87.0187 251.571 87.0051 251.619 86.9712 251.653C86.9373 251.673 86.9034 251.687 86.8694 251.687ZM85.3092 249.482C85.2549 249.482 85.1938 249.489 85.1396 249.502C84.8886 249.557 84.8886 249.658 84.8886 249.692C84.8682 250.093 85.9197 250.974 86.6727 251.314C86.5506 250.866 86.2453 249.95 85.723 249.611C85.5873 249.53 85.4516 249.482 85.3092 249.482Z" fill="#0066FF"/>
<path opacity="0.6" d="M111.854 80.2384C87.5069 74.6078 63.2072 89.7765 57.5766 114.117C55.5685 122.8 56.213 131.477 58.974 139.305L45.7659 153.334L65.7036 151.788C71.8702 159.867 80.7774 165.932 91.4551 168.401C115.802 174.032 140.102 158.863 145.733 134.523C151.363 110.169 136.195 85.869 111.854 80.2384Z" fill="#0066FF"/>
<path opacity="0.1" d="M111.854 80.2384C87.5069 74.6078 63.2072 89.7765 57.5766 114.117C55.5685 122.8 56.213 131.477 58.974 139.305L45.7659 153.334L65.7036 151.788C71.8702 159.867 80.7774 165.932 91.4551 168.401C115.802 174.032 140.102 158.863 145.733 134.523C151.363 110.169 136.195 85.869 111.854 80.2384Z" fill="black"/>
<path d="M101.692 167.364C98.4291 167.364 95.1525 166.99 91.9505 166.244C82.2089 163.992 73.512 158.375 67.454 150.438L66.7281 149.481L51.5255 150.662C51.4848 150.655 51.4509 150.641 51.4305 150.607C51.4102 150.573 51.417 150.533 51.4441 150.499L61.4978 139.828L61.05 138.559C58.3365 130.853 57.8752 122.57 59.7204 114.605C64.2656 94.973 81.4898 81.2628 101.611 81.2628C104.867 81.2628 108.15 81.6359 111.352 82.3821C134.472 87.7346 148.928 110.895 143.582 134.014C139.037 153.653 121.813 167.364 101.692 167.364ZM66.7688 149.291C66.796 149.291 66.8231 149.305 66.8435 149.332L67.6033 150.329C73.6341 158.232 82.2971 163.816 91.9912 166.061C95.1796 166.8 98.4427 167.174 101.692 167.174C121.725 167.174 138.874 153.524 143.399 133.973C148.725 110.956 134.329 87.8974 111.312 82.5721C108.123 81.8327 104.86 81.4595 101.611 81.4595C81.578 81.4595 64.4284 95.1087 59.9036 114.66C58.0651 122.59 58.5264 130.839 61.2264 138.512L61.6945 139.835C61.7081 139.869 61.7013 139.909 61.6742 139.93L51.7562 150.465L66.7621 149.298C66.7621 149.291 66.7688 149.291 66.7688 149.291Z" fill="white"/>
<path d="M117.349 116.613C117.573 116.111 117.417 115.521 116.983 115.182C114.989 113.635 112.126 112.346 109.141 111.654C99.06 109.321 88.9657 115.623 86.632 125.704C85.0717 132.447 88.7689 137.013 93.2259 138.044C97.1266 138.946 100.641 138.159 103.89 135.635C103.951 136.985 104.351 137.996 104.772 138.702C105.661 140.208 107.174 141.273 109.032 141.7C115.999 143.315 124.513 138.641 127.301 126.593C130.306 113.622 123.278 102.449 110.219 99.4232C94.5284 95.7938 79.8278 105.474 76.0153 121.946C72.8404 135.676 80.2213 147.88 93.5787 150.974C98.8769 152.202 103.225 152.222 107.676 151.048C108.259 150.892 108.639 150.329 108.564 149.732L108.13 146.361C108.083 146.015 107.886 145.703 107.594 145.506C107.302 145.316 106.936 145.262 106.597 145.357C103.51 146.259 99.6435 146.252 95.7156 145.343C85.3227 142.935 80.0381 133.96 82.5753 123.004C85.6348 109.796 96.4686 102.198 108.334 104.945C118.387 107.272 123.143 115.155 120.741 125.521C119.69 130.059 117.526 133.614 114.799 135.283C113.584 136.022 112.377 136.287 111.366 136.036C110.816 135.893 110.627 135.622 110.525 135.412C110.24 134.808 110.03 133.186 111.868 129.096L117.349 116.613ZM106.848 117.624C107.635 117.807 108.367 118.052 109.053 118.357L106.102 125.134C104.426 129.062 99.8266 133.01 96.4008 132.216C93.2734 131.49 93.4362 128.682 93.8093 127.067C95.2882 120.657 101.265 116.335 106.848 117.624Z" fill="white"/>
<path d="M143.724 151.984L138.582 149.067L139.674 154.922C139.674 154.922 143.243 156.102 145.007 154.42L143.724 151.984Z" fill="#FF8B7B"/>
<path d="M133.712 149.793L134.892 154.644L139.675 154.922L138.582 149.067L133.712 149.793Z" fill="#FF8B7B"/>
<path d="M147.259 82.3415L146.201 81.8123C146.201 81.8123 146.615 82.7892 147.259 82.3415Z" fill="#263238"/>
<path d="M154.532 79.6618C151.621 79.4854 149.498 78.2032 149.206 76.5276C149.206 76.5276 142.544 79.2954 139.851 75.198C139.851 75.198 136.819 75.7068 136.066 73.5902C135.313 71.4736 138.474 70.836 139.967 71.8196C139.967 71.8196 135.34 67.7493 140.089 66.6164C144.837 65.4835 145.855 69.3232 145.855 69.3232C145.855 69.3232 147.721 63.7061 151.933 66.2026C156.139 68.699 153.568 71.1209 153.568 71.1209C153.568 71.1209 163.622 71.901 159.877 75.856C156.133 79.811 154.532 79.6618 154.532 79.6618Z" fill="#263238"/>
<path d="M150.895 99.1586C151.465 99.2197 151.214 101.194 150.956 101.329C150.366 101.648 143.257 100.19 143.467 99.0908C143.67 98.6838 144.132 97.9104 144.471 97.6798C144.81 97.4491 145.896 98.7448 150.895 99.1586Z" fill="#263238"/>
<path d="M188.023 114.694C181.748 114.694 176.667 119.782 176.667 126.05C176.667 131.775 180.914 136.504 186.422 137.284C186.409 139.339 185.954 142.555 183.6 145.106C183.6 145.106 199.379 141.171 199.379 126.05C199.379 119.775 194.291 114.694 188.023 114.694Z" fill="#0066FF"/>
<path d="M213.578 114.694C207.303 114.694 202.222 119.782 202.222 126.05C202.222 131.775 206.468 136.504 211.977 137.284C211.963 139.339 211.509 142.555 209.155 145.106C209.155 145.106 224.934 141.171 224.934 126.05C224.934 119.775 219.853 114.694 213.578 114.694Z" fill="#0066FF"/>
</g>
<defs>
<clipPath id="clip0_185_11801">
<rect width="311" height="311" fill="white" transform="translate(0.5)"/>
</clipPath>
</defs>
</svg>
