<svg width="312" height="311" viewBox="0 0 312 311" fill="none" xmlns="http://www.w3.org/2000/svg">
<path d="M54.3716 162.18C-1.75766 194.587 -1.75766 247.127 54.3716 279.533C110.501 311.939 201.506 311.939 257.629 279.533C313.758 247.127 313.758 194.587 257.629 162.18C201.5 129.774 110.495 129.78 54.3716 162.18Z" fill="#F5F5F5"/>
<path d="M36.29 31.7345H43.3186C43.2813 31.5168 43.2564 31.2928 43.2564 31.0627V29.5326C43.2564 26.8144 45.8004 24.6126 48.9415 24.6126C50.2104 24.6126 51.3797 24.9795 52.3314 25.5891C52.8477 21.9504 56.4242 19.1265 60.7657 19.1265C65.4618 19.1265 69.2685 22.4231 69.2685 26.491V28.7737C69.2685 29.8249 69.0072 30.8263 68.5469 31.7345H74.3875C76.1291 31.7345 77.5411 32.9598 77.5411 34.465C77.5411 35.9703 76.1291 37.1956 74.3875 37.1956H36.29C34.5484 37.1956 33.1365 35.9703 33.1365 34.465C33.1365 32.9536 34.5484 31.7345 36.29 31.7345Z" fill="#F5F5F5"/>
<path d="M47.4174 59.1522H42.3606C42.3855 58.9967 42.4041 58.835 42.4041 58.667V57.5661C42.4041 55.613 40.5754 54.0269 38.3176 54.0269C37.4032 54.0269 36.5635 54.2882 35.8793 54.7298C35.5124 52.1112 32.9373 50.0834 29.8148 50.0834C26.4374 50.0834 23.7006 52.4533 23.7006 55.3767V57.0187C23.7006 57.7776 23.8872 58.4929 24.2168 59.146H20.0183C18.7681 59.146 17.748 60.023 17.748 61.1115C17.748 62.1938 18.7619 63.077 20.0183 63.077H47.4174C48.6677 63.077 49.6877 62.2 49.6877 61.1115C49.6877 60.0292 48.6739 59.1522 47.4174 59.1522Z" fill="#F5F5F5"/>
<path d="M250.333 68.8866H257.361C257.324 68.6689 257.299 68.4449 257.299 68.2148V66.6847C257.299 63.9665 259.843 61.7647 262.984 61.7647C264.253 61.7647 265.422 62.1316 266.374 62.7412C266.89 59.1025 270.467 56.2786 274.808 56.2786C279.505 56.2786 283.311 59.5752 283.311 63.6431V65.9258C283.311 66.977 283.05 67.9784 282.59 68.8866H288.43C290.172 68.8866 291.584 70.1119 291.584 71.6171C291.584 73.1224 290.172 74.3477 288.43 74.3477H250.333C248.591 74.3477 247.179 73.1224 247.179 71.6171C247.179 70.1057 248.591 68.8866 250.333 68.8866Z" fill="#F5F5F5"/>
<path d="M288.299 39.0243H283.242C283.267 38.8688 283.286 38.7071 283.286 38.5392V37.4445C283.286 35.4914 281.457 33.9053 279.199 33.9053C278.285 33.9053 277.445 34.1665 276.761 34.6081C276.394 31.9895 273.819 29.9618 270.697 29.9618C267.319 29.9618 264.582 32.3316 264.582 35.255V36.8971C264.582 37.6559 264.769 38.3712 265.099 39.0243H260.9C259.65 39.0243 258.63 39.9014 258.63 40.9899C258.63 42.0721 259.644 42.9554 260.9 42.9554H288.299C289.55 42.9554 290.57 42.0784 290.57 40.9899C290.563 39.9076 289.55 39.0243 288.299 39.0243Z" fill="#F5F5F5"/>
<path d="M230.429 33.4015H226.286C226.317 33.19 226.342 32.9723 226.342 32.7546V31.2866C226.342 28.668 223.892 26.547 220.869 26.547C219.643 26.547 218.517 26.9015 217.609 27.4862C217.112 23.9781 213.672 21.26 209.486 21.26C204.964 21.26 201.3 24.4322 201.3 28.3508V30.5527C201.3 31.5665 201.549 32.5307 201.991 33.4015H199.111C197.432 33.4015 196.076 34.577 196.076 36.0325C196.076 37.4818 197.438 38.6636 199.111 38.6636H230.423C232.102 38.6636 233.458 37.488 233.458 36.0325C233.464 34.577 232.102 33.4015 230.429 33.4015Z" fill="#F5F5F5"/>
<path d="M21.7537 216.935C21.9403 216.201 21.8719 214.882 20.6465 213.862C19.4212 212.842 17.7604 212.419 17.5987 212.519C17.437 212.618 17.5987 214.31 18.88 215.672C20.1303 217.016 21.2934 216.91 21.7537 216.935Z" fill="#D84B4B"/>
<path d="M22.4817 220.829C22.3075 220.095 21.6482 218.95 20.087 218.596C18.5257 218.241 16.8588 218.627 16.7593 218.789C16.6597 218.95 17.5803 220.381 19.3406 221.015C21.0635 221.637 22.0525 221.009 22.4817 220.829Z" fill="#D84B4B"/>
<path d="M25.4673 221.413C26.1639 221.115 27.1778 220.269 27.2586 218.677C27.3395 217.084 26.817 215.616 26.6366 215.548C26.4563 215.48 25.0443 216.736 24.64 218.359C24.2046 220.132 25.2185 221.034 25.4673 221.413Z" fill="#D84B4B"/>
<path d="M27.1962 234.861C27.5445 233.474 27.445 231.981 27.2957 230.569C27.1589 229.244 26.9039 227.926 26.5493 226.638C25.8154 223.97 24.7082 221.364 23.2901 218.988C22.3882 217.47 21.3619 215.896 20.0121 214.739C19.981 214.714 19.9064 214.77 19.9313 214.802C21.3059 216.5 21.8284 217.464 22.6183 218.857C23.3087 220.07 23.9867 221.32 24.5527 222.757C25.5417 225.288 26.0766 227.403 26.4312 229.904C26.6613 231.527 26.6178 233.151 26.6613 234.786C26.6675 235.141 27.1029 235.209 27.1962 234.861Z" fill="#37474F"/>
<path d="M25.15 222.67C25.4921 222.023 25.7285 221.351 25.9151 220.648C26.0892 219.995 26.2136 219.268 26.1266 218.596C26.1141 218.502 26.0395 218.627 26.027 218.689C25.9213 219.311 25.772 219.877 25.5916 220.487C25.4113 221.115 25.1003 221.706 24.7519 222.259C24.6649 222.396 24.6586 222.633 24.7768 222.757C24.9012 222.869 25.0816 222.807 25.15 222.67Z" fill="#37474F"/>
<path d="M24.9945 222.452C24.3477 221.668 23.6324 221.208 22.6061 220.617C22.1707 220.368 21.8223 220.213 21.3558 220.026C20.8893 219.84 20.0621 219.635 19.7573 219.653C19.7386 219.653 19.608 219.697 19.6453 219.709C20.0745 219.834 20.7027 220.076 21.1506 220.275C21.6979 220.518 22.0214 220.692 22.4381 220.959C23.4084 221.581 24.018 222.06 24.7271 222.757C24.8764 222.9 25.1065 222.589 24.9945 222.452Z" fill="#37474F"/>
<path d="M24.6772 226.309C24.6647 225.556 24.2542 224.299 22.805 223.628C21.3557 222.962 19.6452 222.987 19.5146 223.124C19.384 223.261 19.9873 224.853 21.5734 225.836C23.1284 226.806 24.2293 226.402 24.6772 226.309Z" fill="#D84B4B"/>
<path d="M26.7984 228.417C26.3319 227.515 25.7285 226.918 24.8453 226.122C24.4721 225.786 24.1611 225.562 23.7444 225.282C23.3276 225.002 22.5626 224.629 22.264 224.586C22.2453 224.579 22.1085 224.598 22.1458 224.617C22.5377 224.828 23.1037 225.195 23.4956 225.481C23.9807 225.83 24.2606 226.072 24.6152 226.421C25.43 227.229 25.9276 227.826 26.4812 228.653C26.5931 228.828 26.8792 228.573 26.7984 228.417Z" fill="#37474F"/>
<path d="M31.9858 209.589C31.6499 208.843 31.4634 207.418 32.5767 206.087C33.6901 204.756 35.3819 203.991 35.5748 204.066C35.7676 204.14 35.9169 205.982 34.8222 207.686C33.7399 209.359 32.4772 209.465 31.9858 209.589Z" fill="#D84B4B"/>
<path d="M31.9734 213.881C32.0169 213.06 32.5021 211.71 34.1006 211.032C35.6992 210.354 37.5527 210.441 37.6896 210.597C37.8264 210.752 37.1173 212.457 35.3633 213.477C33.6403 214.478 32.4585 213.999 31.9734 213.881Z" fill="#D84B4B"/>
<path d="M28.888 215.088C28.0857 214.907 26.8354 214.192 26.4436 212.506C26.0517 210.821 26.3254 209.148 26.4996 209.042C26.6799 208.936 28.4278 210.006 29.1742 211.667C29.989 213.477 29.0871 214.627 28.888 215.088Z" fill="#D84B4B"/>
<path d="M29.6532 229.792C29.0064 228.374 28.826 226.763 28.7078 225.22C28.5958 223.777 28.6145 222.321 28.7451 220.878C29.0126 217.887 29.6906 214.889 30.7417 212.077C31.4135 210.286 32.2034 208.401 33.4226 206.908C33.4474 206.877 33.5407 206.921 33.5221 206.958C32.3838 209.036 32.0168 210.168 31.4322 211.81C30.9283 213.234 30.4494 214.702 30.126 216.35C29.5599 219.249 29.3982 221.612 29.504 224.349C29.5724 226.128 29.9331 227.857 30.2068 229.611C30.269 229.991 29.815 230.146 29.6532 229.792Z" fill="#37474F"/>
<path d="M29.4665 216.369C28.9751 215.741 28.5895 215.069 28.2536 214.354C27.9426 213.688 27.6689 212.936 27.6316 212.202C27.6254 212.096 27.7311 212.214 27.756 212.276C27.9924 212.923 28.2598 213.502 28.5708 214.117C28.8881 214.752 29.3359 215.324 29.8148 215.846C29.933 215.977 29.989 216.232 29.8833 216.381C29.7775 216.537 29.5723 216.506 29.4665 216.369Z" fill="#37474F"/>
<path d="M29.5973 216.108C30.1384 215.144 30.8102 214.515 31.7992 213.682C32.2159 213.334 32.558 213.097 33.0245 212.805C33.4848 212.519 34.3307 212.139 34.6603 212.102C34.6852 212.102 34.8283 212.121 34.791 212.139C34.3618 212.357 33.7336 212.736 33.292 213.035C32.7508 213.396 32.4398 213.651 32.048 214.018C31.1336 214.87 30.5738 215.504 29.9518 216.381C29.8087 216.556 29.504 216.269 29.5973 216.108Z" fill="#37474F"/>
<path d="M30.6795 220.163C30.5488 219.355 30.7417 217.93 32.1598 216.941C33.578 215.946 35.4129 215.647 35.5808 215.772C35.7488 215.896 35.4129 217.712 33.9076 219.068C32.4335 220.399 31.1833 220.176 30.6795 220.163Z" fill="#D84B4B"/>
<path d="M28.8257 222.832C29.1491 221.78 29.6778 221.022 30.4678 220.001C30.8037 219.572 31.0898 219.268 31.4816 218.894C31.8735 218.515 32.6199 217.974 32.9309 217.868C32.9558 217.862 33.0988 217.856 33.0615 217.88C32.6821 218.179 32.1534 218.689 31.7864 219.062C31.3386 219.529 31.0836 219.84 30.7726 220.281C30.0573 221.301 29.6405 222.042 29.2113 223.031C29.1305 223.23 28.7697 223.012 28.8257 222.832Z" fill="#37474F"/>
<path d="M291.024 216.935C290.837 216.201 290.906 214.882 292.131 213.862C293.356 212.842 295.017 212.419 295.179 212.519C295.341 212.618 295.179 214.31 293.898 215.672C292.654 217.016 291.484 216.91 291.024 216.935Z" fill="#D84B4B"/>
<path d="M290.302 220.829C290.476 220.095 291.136 218.95 292.697 218.596C294.258 218.241 295.925 218.627 296.025 218.789C296.124 218.95 295.204 220.381 293.443 221.015C291.714 221.637 290.725 221.009 290.302 220.829Z" fill="#D84B4B"/>
<path d="M287.31 221.413C286.614 221.115 285.6 220.269 285.519 218.677C285.438 217.084 285.961 215.616 286.141 215.548C286.321 215.48 287.733 216.736 288.138 218.359C288.579 220.132 287.565 221.034 287.31 221.413Z" fill="#D84B4B"/>
<path d="M285.587 234.861C285.239 233.474 285.339 231.981 285.488 230.569C285.625 229.244 285.88 227.926 286.234 226.638C286.968 223.97 288.075 221.364 289.494 218.988C290.395 217.47 291.422 215.896 292.772 214.739C292.803 214.714 292.877 214.77 292.852 214.802C291.478 216.5 290.955 217.464 290.165 218.857C289.475 220.07 288.797 221.32 288.231 222.757C287.242 225.288 286.707 227.403 286.353 229.904C286.122 231.527 286.166 233.151 286.122 234.786C286.11 235.141 285.675 235.209 285.587 234.861Z" fill="#37474F"/>
<path d="M287.627 222.67C287.285 222.023 287.049 221.351 286.862 220.648C286.688 219.995 286.564 219.268 286.651 218.596C286.663 218.502 286.738 218.627 286.75 218.689C286.856 219.311 287.005 219.877 287.186 220.487C287.366 221.115 287.677 221.706 288.025 222.259C288.113 222.396 288.119 222.633 288.001 222.757C287.876 222.869 287.702 222.807 287.627 222.67Z" fill="#37474F"/>
<path d="M287.783 222.452C288.43 221.668 289.146 221.208 290.172 220.617C290.607 220.368 290.956 220.213 291.422 220.026C291.889 219.84 292.716 219.635 293.021 219.653C293.039 219.653 293.17 219.697 293.133 219.709C292.703 219.834 292.075 220.076 291.627 220.275C291.08 220.518 290.757 220.692 290.34 220.959C289.369 221.581 288.76 222.06 288.051 222.757C287.908 222.9 287.671 222.589 287.783 222.452Z" fill="#37474F"/>
<path d="M288.1 226.309C288.113 225.556 288.523 224.299 289.973 223.628C291.422 222.956 293.132 222.987 293.263 223.124C293.394 223.261 292.79 224.853 291.204 225.836C289.649 226.806 288.554 226.402 288.1 226.309Z" fill="#D84B4B"/>
<path d="M285.98 228.417C286.446 227.515 287.049 226.918 287.933 226.122C288.306 225.786 288.617 225.562 289.034 225.282C289.45 225.002 290.215 224.629 290.514 224.586C290.533 224.579 290.669 224.598 290.632 224.617C290.24 224.828 289.674 225.195 289.282 225.481C288.797 225.83 288.517 226.072 288.163 226.421C287.348 227.229 286.85 227.826 286.297 228.653C286.191 228.828 285.899 228.573 285.98 228.417Z" fill="#37474F"/>
<path d="M282.036 209.589C282.372 208.843 282.558 207.418 281.445 206.087C280.332 204.756 278.64 203.991 278.447 204.066C278.254 204.14 278.105 205.982 279.2 207.686C280.282 209.359 281.551 209.465 282.036 209.589Z" fill="#D84B4B"/>
<path d="M282.054 213.881C282.011 213.06 281.526 211.71 279.927 211.032C278.329 210.354 276.475 210.441 276.338 210.597C276.201 210.752 276.911 212.457 278.665 213.477C280.387 214.478 281.569 213.999 282.054 213.881Z" fill="#D84B4B"/>
<path d="M285.14 215.088C285.942 214.907 287.192 214.192 287.584 212.506C287.976 210.821 287.702 209.148 287.528 209.042C287.348 208.936 285.6 210.006 284.854 211.667C284.032 213.477 284.941 214.627 285.14 215.088Z" fill="#D84B4B"/>
<path d="M284.368 229.792C285.015 228.374 285.195 226.763 285.314 225.22C285.426 223.777 285.407 222.321 285.276 220.878C285.009 217.887 284.331 214.889 283.28 212.077C282.608 210.286 281.818 208.401 280.599 206.908C280.574 206.877 280.481 206.921 280.499 206.958C281.638 209.036 282.005 210.168 282.589 211.81C283.093 213.234 283.572 214.702 283.895 216.35C284.461 219.249 284.623 221.612 284.517 224.349C284.449 226.128 284.088 227.857 283.815 229.611C283.752 229.991 284.206 230.146 284.368 229.792Z" fill="#37474F"/>
<path d="M284.555 216.369C285.047 215.741 285.432 215.069 285.768 214.354C286.079 213.688 286.353 212.936 286.39 212.202C286.396 212.096 286.291 212.214 286.266 212.276C286.029 212.923 285.762 213.502 285.451 214.117C285.134 214.752 284.686 215.324 284.207 215.846C284.082 215.977 284.033 216.232 284.138 216.381C284.25 216.537 284.449 216.506 284.555 216.369Z" fill="#37474F"/>
<path d="M284.431 216.108C283.889 215.144 283.218 214.515 282.229 213.682C281.812 213.334 281.47 213.097 281.003 212.805C280.543 212.519 279.697 212.139 279.368 212.102C279.343 212.102 279.2 212.121 279.237 212.139C279.666 212.357 280.294 212.736 280.736 213.035C281.277 213.396 281.588 213.651 281.98 214.018C282.894 214.87 283.454 215.504 284.076 216.381C284.213 216.556 284.524 216.269 284.431 216.108Z" fill="#37474F"/>
<path d="M283.342 220.163C283.473 219.355 283.28 217.93 281.862 216.941C280.444 215.946 278.609 215.647 278.441 215.772C278.273 215.896 278.609 217.712 280.114 219.068C281.588 220.399 282.844 220.176 283.342 220.163Z" fill="#D84B4B"/>
<path d="M285.202 222.832C284.878 221.78 284.35 221.022 283.56 220.001C283.224 219.572 282.938 219.268 282.546 218.894C282.154 218.515 281.408 217.974 281.097 217.868C281.072 217.862 280.929 217.856 280.966 217.88C281.345 218.179 281.874 218.689 282.241 219.062C282.689 219.529 282.944 219.84 283.255 220.281C283.97 221.301 284.387 222.042 284.81 223.031C284.897 223.23 285.258 223.012 285.202 222.832Z" fill="#37474F"/>
<path d="M150.763 288.739C169.213 288.739 184.17 280.103 184.17 269.45C184.17 258.798 169.213 250.162 150.763 250.162C132.312 250.162 117.355 258.798 117.355 269.45C117.355 280.103 132.312 288.739 150.763 288.739Z" fill="#E0E0E0"/>
<path d="M255.172 257.688C273.622 257.688 288.579 249.053 288.579 238.4C288.579 227.748 273.622 219.112 255.172 219.112C236.721 219.112 221.764 227.748 221.764 238.4C221.764 249.053 236.721 257.688 255.172 257.688Z" fill="#E0E0E0"/>
<path d="M57.1703 257.688C75.6208 257.688 90.5779 249.053 90.5779 238.4C90.5779 227.748 75.6208 219.112 57.1703 219.112C38.7198 219.112 23.7627 227.748 23.7627 238.4C23.7627 249.053 38.7198 257.688 57.1703 257.688Z" fill="#E0E0E0"/>
<path d="M268.993 246.331C269.204 248.445 269.571 249.895 270.398 251.101C271.226 252.314 272.712 252.644 274.186 252.215C275.661 251.792 277.222 250.654 277.881 248.9C278.441 247.413 278.428 245.796 278.012 243.843L268.993 246.331Z" fill="#263238"/>
<path d="M275.044 232.273C275.387 233.679 275.555 234.643 276.021 236.571C276.743 239.563 277.52 240.832 277.962 243.32C278.465 246.163 278.173 247.544 277.06 249.229C275.946 250.915 272.482 252.843 270.572 250.442C269.011 248.483 268.862 246.25 268.88 243.389C268.899 240.434 268.607 238.4 268.389 236.167C268.389 236.155 268.389 236.136 268.383 236.124C268.308 235.359 268.184 233.853 268.072 233.094C267.823 231.421 268.968 231.235 269.409 230.998C270.031 230.662 270.697 230.401 271.393 230.277C272.102 230.152 272.824 230.239 273.533 230.37C274.342 230.519 274.715 230.924 275.044 232.273Z" fill="#37474F"/>
<path d="M227.729 237.442C227.598 237.448 227.436 238.867 228.177 239.445C229.029 240.111 231.51 241.174 234.732 240.677C237.954 240.173 239.677 239.159 240.94 238.077C242.203 236.994 243.969 235.464 245.425 235.11C246.774 234.78 248.547 234.04 248.97 233.623C249.393 233.206 249.281 231.409 249.281 231.409L227.729 237.442Z" fill="#263238"/>
<path d="M247.745 225.606C247.894 225.606 248.044 225.63 248.174 225.705C248.529 225.904 248.61 226.371 248.653 226.781C248.69 227.13 248.684 227.509 248.809 227.839C249.225 228.933 249.511 230.868 249.225 232.025C249.001 232.939 246.569 233.76 245.17 234.326C243.739 234.898 242.103 236.043 240.667 237.256C239.186 238.512 236.026 239.818 233.918 239.912C230.702 240.055 228.594 239.277 227.922 238.182C227.088 236.826 227.685 236.012 231.33 234.245C232.021 233.909 234.434 232.435 235.261 231.9C236.132 231.334 236.959 230.712 237.725 230.016C238.11 229.661 238.477 229.294 238.819 228.902C239.336 228.311 239.989 227.845 240.592 227.341C241.034 226.974 241.475 226.607 241.967 226.327C242.769 225.873 243.683 225.655 244.591 225.593C245.524 225.531 246.408 225.718 247.347 225.624C247.477 225.618 247.614 225.606 247.745 225.606Z" fill="#37474F"/>
<path d="M274.665 231.533C273.95 225.369 274.441 218.54 273.514 208.911C273.365 206.442 273.166 203.792 272.899 201.441C271.997 193.542 270.622 190.886 270.442 189.362C270.442 189.362 270.361 173.805 269.117 156.489C268.532 148.347 265.982 145.971 263.849 141.723L239.597 142.674C237.432 153.46 237.93 177.805 238.452 188.814C238.72 194.425 240.188 214.565 240.262 223.696C240.287 226.377 239.746 227.341 238.788 228.411C236.792 230.656 234.223 232.255 231.778 234.003C231.106 235.471 234.521 236.316 237.37 234.755C239.783 233.437 242.551 231.819 243.379 231.179C245.462 229.562 247.708 228.461 248.131 226.165C248.299 225.232 252.684 203.798 252.771 199.127C252.845 195.109 252.062 188.329 252.062 188.329L254.052 171.243C254.052 171.243 256.72 184.255 258.307 191.134C259.893 198.007 261.647 206.174 263.457 212.973C265.248 220.816 267.674 228.417 268.209 232.361C268.358 233.3 269.845 242.53 270.392 244.633C270.939 246.741 275.741 246.598 275.897 242.935C276.002 240.509 274.802 232.69 274.665 231.533Z" fill="#B16668"/>
<path d="M264.533 141.872C267.487 146.612 269.695 150.487 270.56 164.892C271.425 179.298 271.344 188.055 271.474 189.791C271.605 191.526 272.526 192.795 273.794 201.323C275.063 209.85 274.441 220.232 274.441 220.232C274.441 220.232 273.626 221.824 270.243 222.253C267.12 222.651 265.522 221.581 265.522 221.581C265.522 221.581 261.274 205.782 259.88 199.917C258.655 194.761 254.251 174.801 254.251 174.801L252.765 188.64C252.765 188.64 254.046 193.678 253.032 201.242C252.024 208.756 250.339 216.22 250.339 216.22C250.339 216.22 248.778 216.755 245.469 216.854C242.788 216.929 239.815 215.809 239.815 215.809C239.815 215.809 238.21 194.027 237.868 185.518C237.519 177.003 236.841 153.354 239.535 143.054L264.533 141.872Z" fill="#455A64"/>
<path d="M268.402 189.872C268.402 189.872 266.61 188.205 263.314 188.727C260.017 189.25 258.748 191.184 258.748 191.184C262.231 189.492 268.402 189.872 268.402 189.872ZM260.67 191.719C262.636 192.018 264.589 192.098 268.825 191.116C266.785 190.718 260.67 191.719 260.67 191.719Z" fill="#B16668"/>
<path d="M237.924 186.799C237.936 187.098 237.955 187.409 237.967 187.726C238.801 187.632 242.57 187.272 246.389 187.67C245.17 187.054 240.766 186.376 237.924 186.799Z" fill="#B16668"/>
<path d="M238.029 188.932C238.042 189.212 238.06 189.505 238.079 189.797C238.751 189.735 242.682 189.349 244.411 188.827C241.531 188.727 238.67 188.889 238.029 188.932Z" fill="#B16668"/>
<path d="M270.603 192.752C269.577 188.802 269.558 181.207 269.31 174.614C269.235 172.624 269.154 170.559 269.042 168.369C268.613 159.786 267.537 150.194 262.779 144.18L262.424 144.441C265.621 148.484 267.133 154.206 267.904 160.134C263.413 159.742 262.256 155.525 260.689 149.715C260.471 148.919 260.253 148.098 260.011 147.258L259.582 147.37C259.818 148.21 260.042 149.031 260.253 149.821C261.821 155.618 263.065 160.208 267.954 160.569C268.277 163.182 268.464 165.825 268.594 168.388C268.706 170.577 268.781 172.636 268.862 174.626C269.117 181.245 269.135 188.864 270.174 192.851C270.292 193.299 270.417 193.759 270.547 194.251C271.916 199.351 273.508 207.86 273.197 221.339C273.365 221.239 273.521 221.146 273.651 221.046C273.931 207.692 272.345 199.227 270.983 194.139C270.846 193.666 270.722 193.199 270.603 192.752Z" fill="#37474F"/>
<path d="M254.251 174.801L250.787 158.548C250.787 158.548 244.865 158.38 241.45 155.208C242.191 158.013 246.974 160.208 249.12 160.613L249.773 163.474C249.729 165.01 249.679 166.627 249.63 168.288C249.356 177.469 249.157 186.948 249.642 189.082C250.581 193.224 250.333 197.211 249.791 202.629C249.306 207.518 248.467 213.576 247.938 216.674C248.093 216.655 248.243 216.636 248.38 216.618C248.908 213.545 249.605 208.146 250.289 202.654C250.979 197.112 251.16 193.324 250.065 188.976C249.549 186.911 249.804 177.027 250.065 168.301C250.096 167.243 250.127 166.205 250.158 165.197L252.472 175.267L252.746 188.64L254.251 174.801Z" fill="#37474F"/>
<path d="M208.628 118.41C208.348 117.328 208.174 116.221 208.099 115.101C208.062 114.51 208.049 113.913 208.074 113.322C208.112 112.557 208.273 112.887 208.833 112.644C208.995 112.576 209.063 112.389 209.076 112.215C209.088 112.041 209.057 111.867 209.082 111.699C209.125 111.444 209.306 111.22 209.542 111.12C209.673 111.071 209.816 111.052 209.922 110.965C210.152 110.778 210.083 110.405 210.201 110.131C210.357 109.789 210.817 109.671 211.159 109.82C211.501 109.97 211.725 110.318 211.819 110.679C211.837 110.753 211.856 110.828 211.906 110.89C211.999 110.996 212.155 110.996 212.298 111.015C212.733 111.071 213.094 111.388 213.318 111.767C213.877 112.713 213.772 113.913 214.021 114.958C214.188 115.686 214.493 116.345 214.941 116.942C215.01 117.029 215.097 117.135 215.209 117.116C215.327 117.098 215.376 116.948 215.395 116.83C215.551 115.686 214.978 114.479 215.37 113.397C215.507 113.017 215.75 112.688 216.017 112.389C216.073 112.327 216.135 112.259 216.21 112.227C216.39 112.153 216.602 112.29 216.683 112.47C216.82 112.762 216.795 113.192 216.863 113.509C217.05 114.392 217.261 115.213 217.597 116.053C217.883 116.774 218.07 117.527 218.188 118.298C218.287 118.933 218.132 119.797 218.381 120.382C218.443 120.519 218.542 120.637 218.642 120.749C219.519 121.725 224.246 125.694 225.677 126.77C226.703 127.541 227.736 128.312 228.774 129.065C228.774 129.065 232.643 124.251 234.826 121.825C239.883 116.202 240.655 115.126 245.027 115.512L241.096 129.332C241.096 129.332 236.935 133.288 232.531 137.17C229.944 139.452 228.065 139.794 224.296 135.888C222.113 133.624 217.386 128.35 216.322 127.205C215.345 126.154 214.114 125.464 213.044 124.543C211.489 123.206 209.735 121.794 209.045 119.81C208.889 119.343 208.746 118.883 208.628 118.41Z" fill="#B16668"/>
<path d="M245.133 115.288C242.303 115.362 240.306 115.194 237.663 118.18C235.685 120.407 234.945 121.34 234.945 121.34C234.945 121.34 234.416 124.213 236.406 127.298C237.862 129.563 239.771 130.807 239.771 130.807L241.805 128.972L245.133 115.288Z" fill="#263238"/>
<path d="M268.371 149.255C266.636 143.906 264.869 141.368 265.161 138.874C265.609 135.036 267.17 130.203 267.282 127.547C267.674 118.118 265.846 117.172 264.172 116.451C264.172 116.451 261.149 115.798 259.495 115.406C258.5 115.17 256.516 114.896 256.516 114.896C254.992 114.846 251.894 114.89 250.638 115.02C250.016 115.082 248.902 115.033 248.902 115.033C248.902 115.033 245.046 115.3 245.04 115.3C245.04 115.3 242.135 117.732 239.249 121.638C236.307 125.619 235.181 130.365 239.435 133.898C239.435 133.898 239.634 137.618 239.597 139.278C239.423 141.667 238.633 145.965 238.254 150.91C244.797 156.962 261.013 155.544 268.371 149.255Z" fill="#263238"/>
<path d="M253.069 127.311L245.979 121.19L251.378 92.8522L240.897 83.8083L232.724 86.6508L228.948 106.493L221.024 99.6569L249.586 53.5729L238.316 43.851L230.149 46.6936L199.602 95.6885L197.512 106.636L224.482 129.911L221.36 146.307L231.841 155.357L240.007 152.508L241.513 144.609L242.06 145.075L250.227 142.233L253.069 127.311Z" fill="#D84B4B"/>
<path opacity="0.3" d="M253.069 127.311L245.979 121.19L251.378 92.8522L240.897 83.8083L232.724 86.6508L228.948 106.493L221.024 99.6569L249.586 53.5729L238.316 43.851L230.149 46.6936L199.602 95.6885L197.512 106.636L224.482 129.911L221.36 146.307L231.841 155.357L240.007 152.508L241.513 144.609L242.06 145.075L250.227 142.233L253.069 127.311Z" fill="black"/>
<path d="M237.812 124.039L243.211 95.7009L232.73 86.6508L227.325 114.989L212.857 102.499L241.42 56.4216L230.149 46.6935L199.603 95.6885L197.513 106.636L224.483 129.911L221.36 146.307L231.841 155.357L234.97 138.955L242.06 145.075L244.903 130.153L237.812 124.039Z" fill="#D84B4B"/>
<path opacity="0.3" d="M237.812 124.039L243.211 95.7009L232.73 86.6508L227.325 114.989L212.857 102.499L241.42 56.4216L230.149 46.6935L199.603 95.6885L197.513 106.636L224.483 129.911L221.36 146.307L231.841 155.357L234.97 138.955L242.06 145.075L244.903 130.153L237.812 124.039Z" fill="white"/>
<path d="M230.149 46.6936L241.42 56.4216L249.587 53.5729L238.316 43.851L230.149 46.6936Z" fill="#D84B4B"/>
<path opacity="0.5" d="M230.149 46.6936L241.42 56.4216L249.587 53.5729L238.316 43.851L230.149 46.6936Z" fill="white"/>
<path d="M232.73 86.6508L240.897 83.8083L251.378 92.8522L243.211 95.7009L232.73 86.6508Z" fill="#D84B4B"/>
<path opacity="0.5" d="M232.73 86.6508L240.897 83.8083L251.378 92.8522L243.211 95.7009L232.73 86.6508Z" fill="white"/>
<path d="M237.812 124.039L245.979 121.19L253.07 127.311L244.903 130.154L237.812 124.039Z" fill="#D84B4B"/>
<path opacity="0.5" d="M237.812 124.039L245.979 121.19L253.07 127.311L244.903 130.154L237.812 124.039Z" fill="white"/>
<path d="M212.857 102.499L221.024 99.6569L228.949 106.493L227.325 114.989L212.857 102.499Z" fill="#D84B4B"/>
<path opacity="0.5" d="M212.857 102.499L221.024 99.6569L228.949 106.493L227.325 114.989L212.857 102.499Z" fill="white"/>
<path d="M263.588 104.03C264.235 104.011 264.876 103.756 265.342 103.302C266.064 102.599 266.375 101.486 267.27 101.025C267.898 100.702 268.657 100.795 269.335 100.609C270.393 100.322 271.208 99.3085 271.257 98.2138C271.307 97.0818 270.623 95.9684 270.859 94.855C271.008 94.1522 271.506 93.5799 271.774 92.9144C272.315 91.5647 271.755 89.8666 270.517 89.1015C269.957 88.7594 269.298 88.5977 268.726 88.2805C267.513 87.6149 267.706 86.1719 266.692 85.2887C265.821 84.5298 264.552 84.2002 263.439 84.5609C262.667 84.8097 261.915 85.3446 261.119 85.1829C260.671 85.0896 260.304 84.7911 259.9 84.5734C258.444 83.7896 256.429 84.2872 255.508 85.6619C255.222 86.0848 255.017 86.5949 254.575 86.8561C253.742 87.3537 253.605 87.9322 253.213 88.8216C252.821 89.7111 252.765 90.812 253.325 91.602C253.723 92.1742 254.401 92.535 254.693 93.1694C255.241 94.3512 254.214 95.645 254.09 96.9387C253.848 99.5511 256.485 99.3521 257.66 100.851C258.04 101.336 258.276 101.921 258.6 102.45C259.246 103.519 260.621 103.053 261.716 103.488C262.108 103.644 262.487 103.849 262.898 103.955C263.128 104.011 263.358 104.036 263.588 104.03Z" fill="#263238"/>
<path d="M260.603 88.8652C261.268 89.2943 261.884 89.8355 262.257 90.5321C262.4 90.7996 262.506 91.1168 262.419 91.4029C262.257 91.9316 261.585 92.0685 261.038 92.0871C258.967 92.1493 256.597 91.3469 255.844 89.1886C254.874 86.4269 259.645 88.2432 260.603 88.8652Z" fill="#D84B4B"/>
<path d="M257.573 110.212C256.858 110.374 256.155 109.883 255.645 109.36C254.47 108.16 253.655 106.642 252.454 105.46C250.999 104.023 249.064 103.184 247.18 102.387C246.191 101.971 245.32 101.709 244.269 101.641C243.386 101.585 242.614 100.776 242.216 100.036C241.768 99.209 241.663 98.1952 241.93 97.2933C242.185 96.4349 242.764 95.6636 242.82 94.7679C242.863 94.1273 242.633 93.5053 242.614 92.8646C242.577 91.6704 243.355 90.4948 244.468 90.0656C245.556 89.6427 246.881 89.879 247.833 89.2073C248.573 88.691 248.921 87.7393 249.674 87.2542C250.06 86.9992 250.526 86.8934 250.986 86.8374C252.504 86.6571 254.078 87.0489 255.334 87.9073C255.844 88.2556 256.311 88.6786 256.877 88.9211C257.611 89.2321 258.444 89.2073 259.216 89.3939C260.665 89.7422 262.145 90.7871 262.618 92.2302C262.941 93.2129 262.811 94.2392 263.097 95.222C263.395 96.2483 264.111 97.1004 264.59 98.0583C265.168 99.2028 265.411 100.509 265.28 101.784C265.23 102.275 265.125 102.779 264.851 103.19C264.16 104.235 262.581 104.515 262.114 105.672C261.971 106.026 261.959 106.412 261.89 106.785C261.567 108.62 259.856 110.106 257.99 110.169C257.58 110.175 257.99 110.119 257.573 110.212Z" fill="#263238"/>
<path d="M258.506 113.515C258.537 112.576 258.886 107.886 258.886 107.886C258.911 108.24 260.571 109.273 262.176 107.531C263.824 105.746 263.681 103.159 262.593 102.083C260.907 100.422 258.382 101.772 258.021 104.048C256.684 104.72 256.267 103.072 257.175 101.231C257.107 99.7129 255.546 99.4703 255.745 96.1737C255.614 94.5254 250.619 92.9331 246.228 93.7541C245.314 95.6388 244.175 97.1751 244.343 99.5698C244.399 100.416 243.69 101.436 243.591 102.555C243.162 107.531 244.462 109.939 246.023 110.847C247.068 111.456 247.976 111.711 249.848 111.761L249.693 113.322C249.624 114.106 249.68 114.815 248.903 115.039C248.561 115.537 247.696 119.132 250.364 121.645C255.483 120.544 259.539 116.27 259.912 115.512C258.656 115.051 258.469 114.448 258.506 113.515Z" fill="#B16668"/>
<path d="M245.034 98.643L247.118 98.2698C247.037 97.6851 246.502 97.2995 245.93 97.399C245.351 97.5047 244.953 98.0583 245.034 98.643Z" fill="#263238"/>
<path d="M252.74 98.1081L254.314 99.5636C253.928 100.018 253.257 100.061 252.821 99.6569C252.392 99.2526 252.355 98.5622 252.74 98.1081Z" fill="#263238"/>
<path d="M247.024 100.459C247.018 100.944 246.62 101.336 246.135 101.349C245.65 101.355 245.258 100.975 245.258 100.49C245.264 100.005 245.662 99.6133 246.147 99.6008C246.639 99.5946 247.031 99.9803 247.024 100.459Z" fill="#263238"/>
<path d="M253.201 101.461C253.194 101.94 252.796 102.338 252.311 102.35C251.826 102.356 251.434 101.977 251.434 101.492C251.44 101.007 251.838 100.615 252.324 100.602C252.815 100.596 253.207 100.982 253.201 101.461Z" fill="#263238"/>
<path d="M246.023 104.104L248.648 105.249L249.674 100.329C248.567 100.266 247.304 102.02 246.023 104.104Z" fill="#9A4A4D"/>
<path d="M249.462 107.786C249.936 107.786 250.321 107.402 250.321 106.928C250.321 106.454 249.936 106.07 249.462 106.07C248.988 106.07 248.604 106.454 248.604 106.928C248.604 107.402 248.988 107.786 249.462 107.786Z" fill="#9A4A4D"/>
<path d="M250.296 106.717C250.314 106.785 250.327 106.86 250.327 106.934C250.327 107.407 249.941 107.793 249.468 107.793C249.251 107.793 249.058 107.712 248.909 107.581C249.207 107.102 249.711 106.779 250.296 106.717Z" fill="#F28F8F"/>
<path d="M249.848 111.755C252.342 111.761 254.096 111.344 255.228 110.629C256.193 110.019 256.908 109.217 257.287 108.533C257.287 108.533 256.752 110.361 255.496 111.319C253.176 113.086 249.73 112.937 249.73 112.937L249.848 111.755Z" fill="#9A4A4D"/>
<path d="M251.023 137.916C251.023 137.916 250.837 138.911 250.824 139.085C250.787 140.983 251.906 142.233 253.654 142.985C256.068 144.03 260.142 145.287 265.366 146.686C271.307 148.279 274.342 147.259 275.43 146.189C276.519 145.119 276.992 142.562 276.32 139.813C274.261 131.323 273.813 129.899 272.818 126.596C270.199 117.944 268.707 117.782 264.496 116.581C262.145 119.194 261.852 124.319 263.252 128.903C265.155 135.117 266.511 138.501 266.511 138.501C266.511 138.501 261.666 138.047 256.192 136.902C253.953 136.43 254.587 133.17 254.587 133.17L251.023 137.916Z" fill="#B16668"/>
<path d="M254.376 132.007C254.705 130.284 254.637 129.917 253.978 128.667C253.324 127.417 253.038 126.838 252.74 126.372C252.441 125.905 251.141 124.481 250.762 124.276C250.084 123.909 249.736 125.277 250.283 126.185C250.83 127.093 251.639 128.225 251.639 128.225L254.376 132.007Z" fill="#9A4A4D"/>
<path d="M252.976 139.813C252.821 139.365 254.432 138.258 254.283 137.437C254.133 136.616 253.984 136.579 254.444 135.87C254.905 135.161 254.88 134.514 254.606 134.122C254.332 133.724 255.197 133.438 254.948 132.554C254.755 131.876 253.754 130.178 253.287 129.513C252.815 128.847 250.88 127.833 249.997 127.423C249.114 127.012 248.921 127.759 248.946 128.325C248.964 128.891 249.655 129.631 249.655 129.631C249.655 129.631 248.629 129.283 248.43 129.612C248.175 130.048 248.249 130.962 249.263 131.727C248.423 131.329 248.025 131.653 248.119 132.331C248.187 132.847 248.616 133.407 249.288 133.973C250.128 134.682 251.179 135.49 251.297 136.367L251.023 137.929L252.976 139.813Z" fill="#B16668"/>
<path d="M252.976 139.813C252.895 139.62 253.02 139.421 253.094 139.253C253.188 139.085 253.293 138.93 253.405 138.781C253.617 138.476 253.847 138.196 253.99 137.897C254.059 137.754 254.108 137.605 254.09 137.481L254.015 136.933C253.984 136.753 253.99 136.504 254.09 136.324C254.189 136.143 254.307 136 254.444 135.87C254.382 136.05 254.301 136.218 254.276 136.392C254.239 136.56 254.276 136.697 254.326 136.877C254.382 137.051 254.432 137.232 254.469 137.418C254.513 137.667 254.438 137.885 254.357 138.072C254.171 138.445 253.909 138.718 253.648 138.986L253.256 139.372C253.132 139.502 252.989 139.627 252.976 139.813Z" fill="#9A4A4D"/>
<path d="M249.655 129.619C250.152 129.811 250.638 130.017 251.116 130.241C251.595 130.471 252.062 130.682 252.535 131.018C252.97 131.435 253.231 131.864 253.53 132.312C253.816 132.76 254.077 133.22 254.307 133.705C253.947 133.313 253.604 132.909 253.275 132.498L252.777 131.889C252.615 131.696 252.441 131.472 252.28 131.335C251.894 131.049 251.409 130.794 250.967 130.514C250.513 130.247 250.072 129.954 249.655 129.619Z" fill="#9A4A4D"/>
<path d="M253.468 135.764C253.157 135.372 252.895 134.931 252.628 134.532C252.361 134.141 252.012 133.836 251.614 133.55C250.83 132.959 250.016 132.387 249.263 131.715C250.183 132.119 251.042 132.629 251.857 133.22C252.255 133.519 252.665 133.892 252.895 134.365C253.138 134.831 253.287 135.291 253.468 135.764Z" fill="#9A4A4D"/>
<path d="M266.505 138.507C268.812 138.495 270.896 138.799 272.588 140.578C271.251 137.773 268.533 137.761 266.181 137.655L266.505 138.507Z" fill="#9A4A4D"/>
<path d="M264.166 116.451C267.967 117.353 268.682 117.664 269.752 118.958C270.822 120.251 271.4 121.421 272.737 125.675C271.711 128.319 263.289 130.16 263.289 130.16C263.289 130.16 262.443 127.74 262.132 125.426C261.821 123.106 261.79 118.933 264.166 116.451Z" fill="#455A64"/>
<path d="M129.54 255.598C129.919 250.063 130.119 247.469 130.647 237.573C130.697 235.035 130.784 232.317 130.958 229.904C131.53 221.78 132.575 219.852 133.272 217.066C133.969 214.279 133.882 206.74 134.945 189.281C135.536 179.596 136.942 174.235 138.167 169.551H163.178C165.747 180.498 166.481 204.203 166.406 215.486C166.369 221.239 166.306 250.958 166.45 253.334C166.599 255.847 167.874 257.433 168.857 258.491C170.916 260.705 172.396 261.595 174.977 263.523C174.604 264.512 169.193 264.474 167.65 263.722C165.193 262.521 162.027 260.55 161.187 259.928C159.066 258.354 158.569 257.408 158.531 255.02C158.525 254.721 158.538 254.286 158.55 254.242C158.513 252.849 154.482 232.018 153.605 227.316C152.921 223.665 153.667 216.587 153.667 216.587L151.018 199.189C151.018 199.189 148.685 213.066 147.087 220.101C145.911 225.27 143.006 233.437 141.109 241.703C138.889 250.106 138.708 250.846 137.402 256.861C136.743 259.896 135.126 270.097 134.392 272.193C132.016 278.967 126.642 275.602 126.337 271.858C126.131 269.37 129.459 256.793 129.54 255.598Z" fill="#FFA8A7"/>
<path d="M151.018 199.189L152.952 186.637C152.952 186.637 160.441 185.748 163.165 183.129C163.165 183.129 159.732 187.975 154.65 188.765L152.517 199.171L153.643 216.437L151.018 199.189Z" fill="#AF6152"/>
<path d="M180.694 266.328C180.837 266.328 181.061 267.871 180.308 268.536C179.437 269.301 176.868 270.576 173.454 270.172C170.039 269.768 168.179 268.735 166.804 267.603C165.43 266.477 163.495 264.885 161.953 264.561C160.516 264.263 158.177 263.479 157.711 263.038C157.251 262.602 157.288 260.63 157.288 260.63L180.694 266.328Z" fill="#263238"/>
<path d="M158.501 253.714C158.501 253.714 158.04 253.932 157.959 254.392C157.86 254.933 157.86 255.63 157.648 256.525C157.35 257.769 157.163 260.307 157.362 261.315C157.561 262.322 160.684 263.15 162.183 263.703C163.713 264.269 165.492 265.445 167.053 266.707C168.67 268.014 172.054 269.301 174.281 269.307C177.677 269.32 179.86 268.374 180.526 267.149C181.347 265.631 180.681 264.767 176.763 263C176.022 262.664 173.41 261.159 172.52 260.612C171.581 260.033 170.679 259.393 169.846 258.665C169.423 258.298 169.019 257.912 168.645 257.502C168.31 257.141 167.843 256.706 167.644 256.252C167.6 256.152 167.569 256.028 167.526 255.922C167.408 255.617 167.327 255.331 167.265 255.014C167.196 254.69 167.153 254.218 166.842 254.025C166.487 253.807 165.846 253.838 165.448 253.876C164.945 253.919 164.441 253.987 163.949 254.106C163.377 254.243 161.934 254.149 161.604 254.69C161.349 255.107 161.312 255.63 161.3 256.109C161.293 256.339 161.3 256.563 161.3 256.793C161.3 256.892 161.343 257.066 161.206 257.023C161.076 256.986 160.926 256.65 160.877 256.531C160.765 256.276 160.696 256.003 160.572 255.754C160.435 255.468 160.323 255.132 160.08 254.933C159.427 254.392 158.799 254.51 158.613 254.323C158.594 254.317 158.519 253.907 158.501 253.714Z" fill="#37474F"/>
<path d="M177.391 263.286C172.483 263.678 170.965 266.726 170.779 268.604C171.998 269.021 173.261 269.295 174.274 269.301C177.671 269.314 179.997 268.368 180.662 267.143C181.44 265.712 180.886 264.568 177.391 263.286Z" fill="#FAFAFA"/>
<path d="M170.026 263.411C169.97 263.411 169.92 263.392 169.871 263.361C169.765 263.28 169.752 263.125 169.833 263.025C170.505 262.179 172.471 261.053 174.256 261.228C174.386 261.24 174.486 261.358 174.473 261.489C174.461 261.619 174.349 261.719 174.212 261.706C172.545 261.545 170.748 262.658 170.213 263.33C170.163 263.38 170.095 263.411 170.026 263.411Z" fill="#F0F0F0"/>
<path d="M167.899 262.204C167.843 262.204 167.793 262.185 167.744 262.154C167.638 262.074 167.626 261.918 167.706 261.818C168.384 260.973 170.344 259.841 172.129 260.021C172.259 260.033 172.359 260.152 172.346 260.282C172.334 260.413 172.222 260.512 172.085 260.5C170.418 260.338 168.621 261.452 168.086 262.123C168.036 262.173 167.968 262.204 167.899 262.204Z" fill="#F0F0F0"/>
<path d="M165.921 260.817C165.865 260.817 165.815 260.798 165.765 260.767C165.66 260.686 165.647 260.531 165.728 260.431C166.406 259.586 168.372 258.453 170.151 258.634C170.281 258.646 170.381 258.764 170.368 258.895C170.356 259.026 170.244 259.125 170.107 259.113C168.44 258.951 166.642 260.064 166.108 260.736C166.064 260.786 165.996 260.817 165.921 260.817Z" fill="#F0F0F0"/>
<path d="M163.987 259.43C163.937 259.43 163.881 259.411 163.837 259.38C163.732 259.299 163.713 259.15 163.794 259.044C164.721 257.844 166.842 257.042 168.627 257.216C168.757 257.228 168.857 257.346 168.844 257.477C168.832 257.608 168.72 257.701 168.583 257.695C166.978 257.539 165 258.279 164.179 259.337C164.13 259.399 164.055 259.43 163.987 259.43Z" fill="#F0F0F0"/>
<path d="M135.126 272.977C134.734 275.26 134.211 276.746 133.247 278.003C132.283 279.259 130.697 279.514 129.179 278.948C127.662 278.382 125.783 277.101 125.559 275.073C125.335 273.039 125.223 271.652 125.814 269.556L135.126 272.977Z" fill="#263238"/>
<path d="M129.54 255.598C128.893 255.58 128.725 258.646 128.01 261.694C127.245 264.966 126.623 266.222 125.964 268.903C125.217 271.963 125.572 273.406 126.455 275.403C127.332 277.4 130.983 279.67 133.179 277.188C134.97 275.167 135.3 272.747 135.505 269.631C135.717 266.409 136.264 264.294 136.793 261.899C137.34 259.424 137.931 257.178 137.402 256.861C137.321 257.197 136.936 258.951 136.743 259.324C136.656 259.492 136.364 259.896 136.333 259.237C136.326 259.044 136.432 258.603 136.438 258.41C136.451 257.869 136.133 257.744 135.941 257.601C135.511 257.297 134.522 256.842 133.272 256.699C132.016 256.556 130.94 256.395 130.2 256.675C129.752 256.842 129.721 257.247 129.634 257.632C129.528 258.093 129.491 258.379 129.385 258.273C129.167 258.062 129.571 255.934 129.54 255.598Z" fill="#37474F"/>
<path d="M125.59 270.682C125.267 272.598 125.578 273.966 126.268 275.534C127.145 277.53 131.101 279.838 133.297 277.362C134.392 276.131 134.821 274.576 135.126 272.977C134.218 270.775 127.581 269.115 125.59 270.682Z" fill="#FAFAFA"/>
<path d="M134.099 269.444C134.074 269.438 134.049 269.426 134.024 269.413C134 269.401 131.163 267.839 128.196 268.188C128.066 268.2 127.948 268.107 127.929 267.976C127.916 267.846 128.01 267.727 128.14 267.709C131.275 267.342 134.168 268.934 134.279 269.003C134.391 269.071 134.429 269.22 134.354 269.332C134.298 269.426 134.199 269.463 134.099 269.444Z" fill="#F0F0F0"/>
<path d="M128.594 265.893C128.507 265.874 128.433 265.805 128.408 265.712C128.383 265.582 128.464 265.457 128.588 265.426C131.574 264.773 134.609 266.589 134.721 266.664C134.833 266.738 134.858 266.888 134.783 266.993C134.709 267.105 134.559 267.13 134.454 267.056C134.429 267.037 131.468 265.277 128.688 265.886C128.663 265.899 128.632 265.899 128.594 265.893Z" fill="#F0F0F0"/>
<path d="M128.937 263.722C128.849 263.703 128.775 263.635 128.756 263.541C128.725 263.411 128.806 263.28 128.937 263.255C132.227 262.472 135.088 264.406 135.188 264.487C135.293 264.568 135.312 264.717 135.231 264.823C135.15 264.928 134.995 264.947 134.895 264.866C134.87 264.848 132.109 262.994 129.042 263.722C129.011 263.728 128.974 263.728 128.937 263.722Z" fill="#F0F0F0"/>
<path d="M129.335 261.588C129.248 261.57 129.173 261.501 129.154 261.414C129.123 261.284 129.198 261.153 129.328 261.122C132.42 260.338 135.505 262.341 135.617 262.428C135.723 262.503 135.747 262.658 135.667 262.764C135.592 262.87 135.436 262.895 135.331 262.814C135.306 262.795 132.314 260.861 129.44 261.588C129.409 261.595 129.372 261.601 129.335 261.588Z" fill="#EBEBEB"/>
<path d="M135.891 169.551C135.25 176.219 134.939 178.054 133.919 193.262C132.93 208.009 133.502 212.5 133.359 214.279C133.023 218.353 131.22 219.759 130.691 229.375C130.206 238.189 129.92 249.055 129.92 249.055C129.92 249.055 131.108 250.685 134.46 250.983C137.558 251.263 139.107 250.1 139.107 250.1C139.107 250.1 144.848 229.562 146.452 224.393C148.629 217.377 151.024 202.722 151.024 202.722L153.052 216.823C153.052 216.823 152.399 223.578 153.711 229.953C155.335 237.859 156.995 246.455 156.995 246.455C156.995 246.455 159.023 247.301 161.66 247.034C165.287 246.667 166.493 245.827 166.493 245.827C166.493 245.827 167.507 221.942 167.507 213.215C167.507 204.489 167.171 183.067 166.425 169.489L135.891 169.551Z" fill="#455A64"/>
<path d="M151.018 202.722L153.531 187.458C153.531 187.458 158.581 186.127 161.828 182.731C161.586 185.256 157.095 188.503 154.992 189.007L152.187 202.536L153.046 216.823L151.018 202.722Z" fill="#37474F"/>
<path d="M145.152 171.915C144.362 173.165 143.765 174.533 143.261 175.92C142.751 177.307 142.347 178.732 141.999 180.162C141.663 181.599 141.389 183.048 141.196 184.51C141.004 185.972 140.873 187.446 140.904 188.926C141.259 187.489 141.582 186.065 141.912 184.641C142.248 183.216 142.559 181.792 142.901 180.374C143.23 178.956 143.585 177.544 143.946 176.132C144.325 174.732 144.717 173.327 145.152 171.915Z" fill="#37474F"/>
<path d="M143.224 172.45C142.478 173.128 141.825 173.886 141.228 174.689C140.624 175.485 140.096 176.337 139.604 177.208C139.132 178.091 138.702 178.999 138.373 179.951C138.037 180.896 137.782 181.879 137.695 182.88L139.038 180.237C139.492 179.372 139.946 178.508 140.419 177.656C140.879 176.791 141.365 175.945 141.831 175.081C142.31 174.222 142.789 173.358 143.224 172.45Z" fill="#37474F"/>
<path d="M146.434 190.102C145.799 194.674 145.227 199.258 144.648 203.829C144.057 208.401 143.61 215.784 142.77 220.3C141.905 224.816 136.587 242.524 135.891 247.09C136.948 242.592 142.801 225.021 143.684 220.468C144.512 215.909 144.922 208.507 145.364 203.91C145.824 199.32 146.154 194.717 146.434 190.102Z" fill="#37474F"/>
<path d="M162.861 190.102L163.613 202.138C163.725 204.14 163.856 206.149 163.943 208.152C164.036 210.155 164.155 212.164 164.123 214.142C164.08 216.133 163.956 235.346 164.229 239.37C164.702 234.892 164.92 218.204 165.056 214.161C165.044 210.093 164.702 206.1 164.341 202.088C163.962 198.076 163.477 194.083 162.861 190.102Z" fill="#37474F"/>
<path d="M156.61 244.521L157.294 248.7C157.294 248.7 158.967 249.77 162.488 249.41C166.002 249.049 166.512 247.911 166.512 247.911V243.973C166.512 243.973 165.672 244.788 162.456 245.155C159.241 245.516 156.61 244.521 156.61 244.521Z" fill="#37474F"/>
<path d="M129.994 246.144L129.683 250.367C129.683 250.367 131.064 251.798 134.566 252.265C138.068 252.731 138.827 251.742 138.827 251.742L139.747 247.917C139.747 247.917 138.739 248.514 135.53 248.122C132.32 247.724 129.994 246.144 129.994 246.144Z" fill="#37474F"/>
<path d="M160.497 136.392C163.75 136.79 167.177 138.799 173.105 142.083C177.901 144.739 179.462 145.598 179.462 145.598C179.462 145.598 184.786 135.434 186.739 132.138C189.576 127.361 191.833 132.872 191.093 134.837C189.712 138.532 189.258 142.799 186.957 150.798C185.769 154.928 184.942 156.707 179.767 155.015C175.512 153.622 164.77 149.659 164.77 149.659L160.497 136.392Z" fill="#FFA8A7"/>
<path d="M193.233 125.464C193.538 123.467 192.014 121.253 192.014 121.253L192.02 124.251L193.233 125.464Z" fill="#F28F8F"/>
<path d="M160.279 135.957C163.632 136.392 165.212 136.958 167.42 138.314C169.628 139.67 177.72 144.254 177.72 144.254C177.72 144.254 178.324 146.114 177.981 149.317C177.633 152.521 175.425 153.821 175.425 153.821L163.694 149.902L160.279 135.957Z" fill="#263238"/>
<path d="M135.891 138.868C135.891 138.868 133.335 144.068 134.933 153.59C135.667 157.944 136.208 161.328 135.891 167.107C135.624 172.014 134.622 180.946 134.622 180.946C139.66 185.225 161.773 185.431 166.935 178.999C166.935 178.999 166.649 168.444 166.649 160.109C166.649 153.895 166.294 148.683 165.592 145.747C163.999 139.117 161.623 136.964 160.28 135.957C156.66 135.696 154.732 135.658 149.401 136.168C145.258 136.566 140.438 137.649 137.496 138.314C136.308 138.582 135.891 138.868 135.891 138.868Z" fill="#37474F"/>
<path d="M135.891 138.868C131.519 140.385 130.722 142.363 127.612 147.719C124.502 153.074 121.337 160.333 120.124 163.791C118.917 167.25 120.789 170.957 122.413 171.616C123.694 172.139 124.745 172.661 126.325 171.448C127.239 170.745 128.838 169.116 129.777 167.654C132.881 162.802 137.701 154.393 137.701 154.393C137.701 154.393 141.06 143.029 135.891 138.868Z" fill="#FFA8A7"/>
<path d="M127.413 167.368C128.216 163.231 127.525 161.788 127.177 159.201C126.835 156.663 126.412 152.695 126.169 150.331C124.994 152.545 123.862 154.897 122.873 157.092L127.413 167.368Z" fill="#F28F8F"/>
<path d="M123.196 155.705C123.457 157.005 126.629 163.58 131.848 164.73L138.367 154.132C138.367 154.132 140.942 147.395 137.496 138.314C133.583 139.048 131.91 139.882 129.509 143.694C127.108 147.507 123.196 155.705 123.196 155.705Z" fill="#263238"/>
<path d="M119.949 152.633C119.918 153.416 120.061 153.964 119.93 156.551C119.8 159.139 119.694 159.518 119.501 162.255C119.284 165.278 118.742 167.218 120.677 170.304C122.655 173.457 124.9 172.742 126.86 171.013C127.83 168.008 127.544 163.207 126.331 159.723C125.124 156.24 124.894 153.329 124.894 153.329L119.949 152.633Z" fill="#FFA8A7"/>
<path d="M117.312 145.392C117.113 145.169 116.466 145.057 116.18 145.287C115.9 145.511 116.285 146.269 116.82 147.29C117.175 147.961 117.934 150.393 118.693 151.413C119.451 152.434 119.887 153.217 119.986 154.499C120.77 151.239 119.483 147.613 117.312 145.392Z" fill="#F28F8F"/>
<path d="M144.014 132.262C141.887 129.208 139.947 127.292 138.379 123.878C137.745 122.49 136.706 119.281 137.322 117.328C137.751 115.966 138.479 114.865 139.897 114.722C139.381 112.912 140.152 111.73 140.848 110.878C141.545 110.026 142.764 109.646 143.822 109.939C143.859 108.999 144.469 108.097 145.333 107.718C146.198 107.339 147.274 107.5 147.989 108.116C148.536 106.735 149.849 106.493 150.483 106.48C151.597 106.455 152.691 107.152 153.139 108.172C155.111 106.393 158.42 107.531 158.538 110.996C158.98 110.592 159.676 110.492 160.218 110.747C160.759 111.002 161.113 111.605 161.082 112.203C161.063 112.594 160.889 112.986 160.97 113.372C161.045 113.708 161.325 113.988 161.661 114.062C161.996 114.131 162.37 113.988 162.569 113.708C162.774 114.305 162.65 115.008 162.258 115.499C161.86 115.997 161.207 116.264 160.578 116.202C160.746 116.725 160.572 117.34 160.155 117.701C159.851 117.962 159.359 118.08 158.967 118.043C158.961 118.049 144.095 132.181 144.014 132.262Z" fill="#263238"/>
<path d="M159.726 127.566C159.446 130.191 158.433 131.51 156.747 132.299C155.596 132.841 153.929 133.015 153.929 133.015L154.178 135.814C159.876 141.387 147.504 142.158 144.581 137.089L143.585 128.611C143.585 128.611 142.628 130.017 140.637 129.046C139.275 128.375 138.106 126.359 138.777 124.282C139.449 122.242 141.272 122.117 142.267 122.913C143.374 123.803 143.399 124.748 143.884 124.649C144.637 124.5 144.929 124.095 145.053 123.598C145.277 122.733 145.246 121.869 145.053 120.027C145.706 119.58 146.44 118.839 146.683 118.242C147.28 116.737 146.683 115.313 146.148 114.405C148.132 113.409 150.527 115.35 152.766 115.393C155.329 115.443 155.335 113.285 156.728 113.31C157.941 114.181 158.712 116.457 158.818 117.962C159.023 120.911 160.286 122.379 159.726 127.566Z" fill="#FFA8A7"/>
<path d="M153.93 133.015C150.913 133.189 147.685 132.573 146.466 131.584C145.246 130.589 144.5 128.344 144.5 128.344C144.5 128.344 145.022 131.236 146.018 132.418C147.013 133.599 149.196 133.898 150.515 134.06C151.833 134.221 154.035 134.197 154.035 134.197L153.93 133.015Z" fill="#F28F8F"/>
<path d="M157.649 118.852L155.59 118.205C155.745 117.626 156.336 117.297 156.908 117.477C157.475 117.658 157.804 118.273 157.649 118.852Z" fill="#263238"/>
<path d="M148.194 120.09L149.917 118.74C149.563 118.248 148.885 118.149 148.412 118.522C147.939 118.889 147.84 119.592 148.194 120.09Z" fill="#263238"/>
<path d="M155.783 120.792C155.826 121.284 156.268 121.651 156.765 121.62C157.263 121.589 157.63 121.166 157.586 120.674C157.543 120.183 157.101 119.816 156.604 119.847C156.106 119.878 155.739 120.301 155.783 120.792Z" fill="#263238"/>
<path d="M149.047 121.626C149.09 122.117 149.532 122.484 150.029 122.453C150.527 122.422 150.894 121.999 150.851 121.508C150.807 121.016 150.365 120.649 149.868 120.68C149.37 120.712 149.003 121.134 149.047 121.626Z" fill="#263238"/>
<path d="M156.591 124.4L153.73 125.663L152.598 120.027C153.637 119.747 155.453 122.478 156.591 124.4Z" fill="#F28F8F"/>
<path d="M153.369 127.479C153.133 127.031 152.586 126.776 152.113 126.67C151.845 126.608 151.566 126.589 151.292 126.608C151.006 126.627 150.713 126.664 150.465 126.813C150.34 126.888 150.477 127.093 150.589 127.087C151.087 127.056 151.566 126.969 152.063 127.062C152.306 127.112 152.555 127.193 152.778 127.299C152.965 127.386 153.127 127.51 153.307 127.597C153.376 127.628 153.388 127.516 153.369 127.479Z" fill="#B16668"/>
<path d="M192.008 120.475C192.008 98.4937 174.2 80.6859 152.218 80.6859C130.249 80.6859 112.441 98.4937 112.441 120.475C112.441 121.458 112.441 125.327 112.441 126.31C112.441 148.279 130.249 166.099 152.218 166.099C174.2 166.099 192.008 148.279 192.008 126.31C192.008 125.327 192.008 121.458 192.008 120.475ZM152.218 144.945C139.691 144.945 129.372 135.521 127.929 123.392C129.372 111.245 139.691 101.834 152.218 101.834C164.758 101.834 175.077 111.245 176.52 123.392C175.083 135.521 164.758 144.945 152.218 144.945Z" fill="#D84B4B"/>
<path opacity="0.5" d="M192.008 120.475C192.008 98.4937 174.2 80.6859 152.218 80.6859C130.249 80.6859 112.441 98.4937 112.441 120.475C112.441 121.458 112.441 125.327 112.441 126.31C112.441 148.279 130.249 166.099 152.218 166.099C174.2 166.099 192.008 148.279 192.008 126.31C192.008 125.327 192.008 121.458 192.008 120.475ZM152.218 144.945C139.691 144.945 129.372 135.521 127.929 123.392C129.372 111.245 139.691 101.834 152.218 101.834C164.758 101.834 175.077 111.245 176.52 123.392C175.083 135.521 164.758 144.945 152.218 144.945Z" fill="white"/>
<path d="M152.218 86.5202C130.249 86.5202 112.441 104.328 112.441 126.31C112.441 148.279 130.249 166.099 152.218 166.099C174.2 166.099 192.008 148.279 192.008 126.31C192.008 104.328 174.2 86.5202 152.218 86.5202ZM152.218 150.779C138.702 150.779 127.749 139.813 127.749 126.31C127.749 112.781 138.702 101.828 152.218 101.828C165.747 101.828 176.7 112.781 176.7 126.31C176.7 139.813 165.747 150.779 152.218 150.779Z" fill="#D84B4B"/>
<path opacity="0.3" d="M152.218 86.5202C130.249 86.5202 112.441 104.328 112.441 126.31C112.441 148.279 130.249 166.099 152.218 166.099C174.2 166.099 192.008 148.279 192.008 126.31C192.008 104.328 174.2 86.5202 152.218 86.5202ZM152.218 150.779C138.702 150.779 127.749 139.813 127.749 126.31C127.749 112.781 138.702 101.828 152.218 101.828C165.747 101.828 176.7 112.781 176.7 126.31C176.7 139.813 165.747 150.779 152.218 150.779Z" fill="white"/>
<path d="M152.225 144.945C139.704 144.945 129.397 135.54 127.942 123.43C127.83 124.375 127.755 125.333 127.755 126.31C127.755 139.813 138.702 150.779 152.225 150.779C165.753 150.779 176.7 139.813 176.7 126.31C176.7 125.333 176.632 124.375 176.514 123.43C175.058 135.54 164.745 144.945 152.225 144.945Z" fill="#D84B4B"/>
<path opacity="0.3" d="M152.225 144.945C139.704 144.945 129.397 135.54 127.942 123.43C127.83 124.375 127.755 125.333 127.755 126.31C127.755 139.813 138.702 150.779 152.225 150.779C165.753 150.779 176.7 139.813 176.7 126.31C176.7 125.333 176.632 124.375 176.514 123.43C175.058 135.54 164.745 144.945 152.225 144.945Z" fill="black"/>
<path d="M193.712 126.701C194.291 125.582 194.204 125.457 193.737 124.997C193.271 124.537 192.269 123.809 190.95 124.039C190.061 124.195 189.165 124.307 188.736 124.605C188.313 124.91 188.842 125.818 190.036 125.911C191.921 126.061 191.983 126.558 191.983 126.558C191.983 126.558 190.248 126.422 189.563 126.484C188.879 126.546 187.691 127.044 186.939 127.274C186.186 127.504 186.174 128.524 187.529 128.679C187.529 128.679 186.578 128.972 186.149 129.109C185.185 129.407 184.923 129.986 185.788 130.483C185.993 130.601 186.273 130.732 186.733 130.688C186.733 130.688 185.682 130.838 185.707 131.192C185.788 132.206 186.478 132.374 188.693 132.685C190.584 132.953 191.274 133.599 191.181 134.358L191.087 134.831C191.087 134.831 191.834 134.24 192.493 133.63C192.972 133.183 193.364 132.704 193.003 131.908C193.003 131.908 194.166 131.764 194.135 131.037C194.104 130.309 193.631 129.538 193.631 129.538C193.631 129.538 194.266 129.102 194.098 128.256C193.936 127.41 193.494 127.056 193.494 127.056L193.712 126.701Z" fill="#FFA8A7"/>
<path d="M187.542 128.679C187.959 128.555 188.345 128.406 188.805 128.356C189.278 128.331 189.694 128.468 190.105 128.574C190.926 128.81 191.735 129.077 192.512 129.451C191.654 129.364 190.826 129.165 190.005 128.941C189.595 128.829 189.191 128.686 188.811 128.654C188.413 128.642 187.971 128.698 187.542 128.679Z" fill="#F28F8F"/>
<path d="M186.74 130.695C187.163 130.502 187.648 130.421 188.121 130.452C188.593 130.477 189.054 130.57 189.501 130.682C190.397 130.919 191.274 131.211 192.101 131.628C191.181 131.497 190.291 131.267 189.408 131.049C188.525 130.825 187.667 130.576 186.74 130.695Z" fill="#F28F8F"/>
<path d="M118.22 150.369C117.094 149.802 117.094 149.653 117.2 149.006C117.306 148.359 117.691 147.184 118.892 146.593C119.7 146.195 120.496 145.759 121.019 145.753C121.541 145.747 121.647 146.798 120.733 147.576C119.29 148.801 119.644 149.112 119.644 149.112C119.644 149.112 120.863 148.111 121.448 147.762C122.033 147.408 123.289 147.115 124.036 146.86C124.782 146.605 125.385 147.42 124.378 148.347C124.378 148.347 125.323 148.03 125.746 147.881C126.704 147.557 127.251 147.868 126.847 148.782C126.754 149 126.598 149.268 126.206 149.504C126.206 149.504 127.146 149.006 127.332 149.311C127.861 150.182 127.401 150.723 125.79 152.278C124.415 153.603 124.241 154.53 124.757 155.089L125.112 155.438C125.112 155.438 124.154 155.382 123.271 155.276C122.617 155.195 122.02 155.04 121.846 154.181C121.846 154.181 120.932 154.436 120.216 153.79C119.818 153.429 119.943 152.633 119.943 152.633C119.943 152.633 119.14 152.589 118.773 151.805C118.406 151.022 118.593 150.543 118.593 150.543L118.22 150.369Z" fill="#FFA8A7"/>
<path d="M124.384 148.347C123.974 148.49 123.569 148.596 123.171 148.826C122.773 149.081 122.518 149.435 122.244 149.765C121.722 150.437 121.218 151.127 120.808 151.892C121.454 151.314 122.008 150.667 122.537 150.008C122.798 149.672 123.047 149.324 123.339 149.075C123.656 148.832 124.048 148.614 124.384 148.347Z" fill="#F28F8F"/>
<path d="M126.213 149.504C125.759 149.597 125.311 149.815 124.95 150.12C124.583 150.418 124.266 150.767 123.967 151.115C123.383 151.83 122.848 152.583 122.419 153.41C123.084 152.763 123.669 152.054 124.26 151.357C124.845 150.661 125.392 149.958 126.213 149.504Z" fill="#F28F8F"/>
<path d="M170.033 74.5841L169.877 68.6688C169.877 68.6688 181.732 67.089 180.476 54.7858C179.692 47.1041 175.543 41.1578 151.385 41.842C124.72 42.5946 127.146 58.5676 130.094 63.0957C134.523 69.9066 145.283 70.6966 164.354 69.6329L169.149 74.9324C169.46 75.2931 170.045 75.0568 170.033 74.5841Z" fill="#FAFAFA"/>
<path d="M169.498 75.8218L164.211 69.975C144.966 71.0386 134.28 70.1554 129.814 63.2761C128.172 60.7445 127.388 55.3767 129.951 50.4878C131.985 46.6127 137.353 41.9104 151.372 41.5123C174.623 40.8592 179.935 46.3328 180.799 54.7547C181.962 66.1311 172.06 68.588 170.213 68.9487L170.387 75.4735C170.399 75.94 169.815 76.1764 169.498 75.8218ZM164.49 69.297L169.715 75.0754L169.535 68.3827L169.827 68.3454C170.3 68.2832 181.353 66.6598 180.14 54.8231C179.443 48.0309 176.663 41.4625 151.391 42.1778C140.543 42.4826 133.334 45.4682 130.535 50.7988C128.103 55.4389 128.806 60.5268 130.368 62.9215C134.672 69.5458 145.246 70.3731 164.329 69.3095L164.49 69.297Z" fill="#D84B4B"/>
<path d="M139.922 51.5327C140.494 51.5327 140.991 51.6074 141.427 51.7629C141.862 51.9184 142.223 52.105 142.509 52.3351C142.795 52.5652 143.019 52.8203 143.168 53.0939C143.318 53.3676 143.399 53.6289 143.417 53.8777C143.423 53.9772 143.392 54.0643 143.324 54.1265C143.249 54.1887 143.168 54.2198 143.075 54.2198H142.186C142.043 54.2198 141.931 54.1949 141.862 54.1389C141.788 54.0829 141.725 54.0083 141.663 53.915C141.533 53.7035 141.34 53.5169 141.085 53.3614C140.824 53.2059 140.438 53.125 139.928 53.125C139.704 53.125 139.499 53.1499 139.3 53.1935C139.101 53.2432 138.926 53.3054 138.777 53.3987C138.628 53.4858 138.51 53.5978 138.429 53.7222C138.342 53.8528 138.298 53.9958 138.298 54.1576C138.298 54.3504 138.336 54.5121 138.416 54.6365C138.497 54.7609 138.634 54.8666 138.827 54.9537C139.02 55.0408 139.269 55.1279 139.586 55.2025C139.903 55.2772 140.289 55.3705 140.761 55.47C141.271 55.5819 141.713 55.7126 142.08 55.8618C142.447 56.0111 142.752 56.1915 142.988 56.3968C143.224 56.602 143.399 56.8446 143.511 57.1183C143.623 57.392 143.685 57.703 143.685 58.0513C143.685 58.4307 143.598 58.7915 143.43 59.1149C143.262 59.4446 143.019 59.7245 142.702 59.9546C142.385 60.191 141.999 60.3713 141.539 60.5082C141.079 60.645 140.562 60.7134 139.996 60.7134C139.517 60.7134 139.063 60.6575 138.634 60.5393C138.199 60.4273 137.813 60.2594 137.477 60.0417C137.141 59.824 136.874 59.5627 136.669 59.258C136.463 58.9532 136.351 58.6111 136.326 58.2379C136.32 58.1384 136.351 58.0513 136.42 57.9891C136.494 57.9269 136.575 57.8958 136.669 57.8958H137.558C137.701 57.8958 137.813 57.9207 137.888 57.9704C137.962 58.0202 138.031 58.0948 138.081 58.2006C138.143 58.3125 138.211 58.4245 138.298 58.5302C138.385 58.6422 138.497 58.7355 138.64 58.8226C138.783 58.9096 138.964 58.9781 139.181 59.034C139.399 59.09 139.667 59.1149 139.99 59.1149C140.245 59.1149 140.494 59.0962 140.73 59.0589C140.967 59.0216 141.178 58.9594 141.352 58.8661C141.533 58.779 141.676 58.6671 141.788 58.5364C141.9 58.4058 141.956 58.2441 141.956 58.0451C141.956 57.8585 141.893 57.703 141.775 57.5848C141.657 57.4666 141.477 57.3609 141.234 57.28C140.991 57.1929 140.693 57.1121 140.332 57.0374C139.978 56.9628 139.561 56.8633 139.094 56.7451C138.671 56.6456 138.298 56.5212 137.981 56.3843C137.664 56.2413 137.396 56.0733 137.191 55.8681C136.98 55.6628 136.83 55.4264 136.725 55.1465C136.625 54.8729 136.569 54.5432 136.569 54.1576C136.569 53.7781 136.656 53.4236 136.824 53.1002C136.992 52.7767 137.228 52.503 137.527 52.2729C137.825 52.0428 138.18 51.8624 138.591 51.7318C139.001 51.6011 139.443 51.5327 139.922 51.5327Z" fill="#37474F"/>
<path d="M147.927 53.8279C148.393 53.8279 148.816 53.9025 149.196 54.0456C149.575 54.1886 149.899 54.3877 150.179 54.6427C150.452 54.8977 150.676 55.1963 150.844 55.5322C151.012 55.8743 151.105 56.235 151.13 56.6269C151.136 56.7015 151.143 56.801 151.143 56.9192C151.143 57.0374 151.143 57.1556 151.143 57.2738C151.143 57.3919 151.143 57.5101 151.143 57.6221C151.143 57.734 151.136 57.8336 151.13 57.9082C151.093 58.3001 151 58.667 150.838 59.0029C150.676 59.345 150.458 59.6374 150.179 59.8862C149.905 60.135 149.575 60.334 149.196 60.4771C148.816 60.6201 148.393 60.6948 147.927 60.6948C147.46 60.6948 147.037 60.6201 146.658 60.4771C146.279 60.334 145.955 60.135 145.675 59.8862C145.402 59.6374 145.178 59.3388 145.016 59.0029C144.854 58.6608 144.755 58.3001 144.724 57.9082C144.717 57.8336 144.711 57.734 144.705 57.6221C144.699 57.5101 144.699 57.3919 144.699 57.2738C144.699 57.1556 144.699 57.0374 144.705 56.9192C144.711 56.801 144.717 56.7015 144.724 56.6269C144.748 56.235 144.842 55.868 145.01 55.5322C145.178 55.1901 145.395 54.8977 145.675 54.6427C145.949 54.3877 146.279 54.1886 146.658 54.0456C147.037 53.9025 147.46 53.8279 147.927 53.8279ZM149.469 56.6953C149.445 56.4341 149.382 56.2101 149.283 56.036C149.183 55.8618 149.065 55.725 148.922 55.6192C148.779 55.5197 148.617 55.4451 148.449 55.4078C148.281 55.3704 148.107 55.3518 147.927 55.3518C147.747 55.3518 147.572 55.3704 147.404 55.4078C147.236 55.4451 147.075 55.5135 146.932 55.6192C146.789 55.7188 146.664 55.8618 146.571 56.036C146.471 56.2101 146.409 56.4278 146.384 56.6953C146.378 56.7637 146.372 56.8508 146.366 56.9503C146.359 57.0498 146.359 57.1556 146.359 57.2675C146.359 57.3795 146.359 57.4852 146.366 57.591C146.372 57.6967 146.378 57.7776 146.384 57.8398C146.409 58.101 146.471 58.3249 146.571 58.4991C146.67 58.6733 146.789 58.8101 146.932 58.9158C147.075 59.0154 147.23 59.09 147.404 59.1273C147.572 59.1646 147.747 59.1833 147.927 59.1833C148.107 59.1833 148.281 59.1646 148.449 59.1273C148.617 59.09 148.779 59.0216 148.922 58.9158C149.065 58.8163 149.19 58.6733 149.283 58.4991C149.382 58.3249 149.445 58.1072 149.469 57.8398C149.476 57.7776 149.482 57.6967 149.482 57.591C149.482 57.4852 149.482 57.3733 149.482 57.2675C149.482 57.1556 149.482 57.0498 149.482 56.9503C149.482 56.8508 149.476 56.7637 149.469 56.6953Z" fill="#37474F"/>
<path d="M155.696 55.4824C155.186 55.4824 154.819 55.5944 154.595 55.8183C154.371 56.0422 154.259 56.4092 154.259 56.9192V60.2345C154.259 60.3278 154.228 60.4086 154.159 60.4771C154.091 60.5455 154.01 60.5766 153.917 60.5766H152.946C152.853 60.5766 152.772 60.5455 152.704 60.4771C152.635 60.4086 152.604 60.3278 152.604 60.2345V54.3006C152.604 54.2073 152.635 54.1264 152.704 54.058C152.772 53.9896 152.853 53.9585 152.946 53.9585H153.917C154.01 53.9585 154.091 53.9896 154.159 54.058C154.228 54.1264 154.259 54.2073 154.259 54.3006V54.5929C154.483 54.3877 154.713 54.2322 154.968 54.1202C155.217 54.0083 155.546 53.9523 155.957 53.9523H156.529C156.622 53.9523 156.703 53.9834 156.772 54.0518C156.84 54.1202 156.871 54.2011 156.871 54.2944V55.1341C156.871 55.2274 156.84 55.3082 156.772 55.3767C156.703 55.4451 156.622 55.4762 156.529 55.4762H155.696V55.4824Z" fill="#37474F"/>
<path d="M161.026 55.4824C160.516 55.4824 160.149 55.5944 159.925 55.8183C159.701 56.0422 159.589 56.4092 159.589 56.9192V60.2345C159.589 60.3278 159.558 60.4086 159.49 60.4771C159.421 60.5455 159.34 60.5766 159.247 60.5766H158.277C158.183 60.5766 158.103 60.5455 158.034 60.4771C157.966 60.4086 157.935 60.3278 157.935 60.2345V54.3006C157.935 54.2073 157.966 54.1264 158.034 54.058C158.103 53.9896 158.183 53.9585 158.277 53.9585H159.247C159.34 53.9585 159.421 53.9896 159.49 54.058C159.558 54.1264 159.589 54.2073 159.589 54.3006V54.5929C159.813 54.3877 160.043 54.2322 160.298 54.1202C160.547 54.0083 160.877 53.9523 161.287 53.9523H161.859C161.953 53.9523 162.034 53.9834 162.102 54.0518C162.17 54.1202 162.201 54.2011 162.201 54.2944V55.1341C162.201 55.2274 162.17 55.3082 162.102 55.3767C162.034 55.4451 161.953 55.4762 161.859 55.4762H161.026V55.4824Z" fill="#37474F"/>
<path d="M165.268 60.2283L162.743 54.3877C162.736 54.3628 162.73 54.3317 162.73 54.3006C162.73 54.2073 162.761 54.1264 162.83 54.058C162.898 53.9896 162.979 53.9585 163.072 53.9585H164.03C164.13 53.9585 164.223 53.9896 164.298 54.058C164.372 54.1264 164.422 54.1949 164.453 54.2633L166.151 58.2005L167.849 54.2633C167.874 54.1949 167.924 54.1264 168.005 54.058C168.079 53.9896 168.173 53.9585 168.272 53.9585H169.23C169.323 53.9585 169.404 53.9896 169.473 54.058C169.541 54.1264 169.572 54.2073 169.572 54.3006C169.572 54.3317 169.566 54.3628 169.56 54.3877L165.977 62.7038C165.952 62.7722 165.902 62.8407 165.822 62.9091C165.747 62.9775 165.654 63.0086 165.554 63.0086H164.596C164.503 63.0086 164.422 62.9713 164.354 62.9091C164.285 62.8407 164.254 62.7598 164.254 62.6665C164.254 62.6354 164.26 62.6043 164.267 62.5794L165.268 60.2283Z" fill="#37474F"/>
<path d="M172.153 58.7728C172.247 58.7728 172.328 58.8039 172.396 58.8723C172.464 58.9407 172.495 59.0216 172.495 59.1149V60.2345C172.495 60.3278 172.464 60.4087 172.396 60.4771C172.328 60.5455 172.247 60.5766 172.153 60.5766H171.059C170.965 60.5766 170.884 60.5455 170.816 60.4771C170.748 60.4087 170.717 60.3278 170.717 60.2345V59.1149C170.717 59.0216 170.748 58.9407 170.816 58.8723C170.884 58.8039 170.965 58.7728 171.059 58.7728H172.153ZM172.433 57.6656C172.433 57.7589 172.402 57.8398 172.334 57.9082C172.265 57.9766 172.184 58.0077 172.091 58.0077H171.121C171.028 58.0077 170.947 57.9766 170.878 57.9082C170.81 57.8398 170.779 57.7589 170.779 57.6656V52.0054C170.779 51.9121 170.81 51.8313 170.878 51.7629C170.947 51.6944 171.028 51.6633 171.121 51.6633H172.091C172.184 51.6633 172.265 51.6944 172.334 51.7629C172.402 51.8313 172.433 51.9121 172.433 52.0054V57.6656Z" fill="#37474F"/>
<path d="M63.6139 225.295L62.6311 216.524L72.6204 215.623C72.6204 215.623 72.1975 222.384 72.2597 225.487C72.2908 226.949 73.3233 229.698 73.3233 229.698C73.3233 229.698 69.1434 231.869 66.9727 230.98C64.8019 230.09 63.3651 226.669 63.421 226.041C63.4646 225.413 63.6139 225.295 63.6139 225.295Z" fill="#FFBDA7"/>
<path d="M84.8988 239.097C85.0357 239.097 85.1414 240.372 84.3764 240.994C83.4993 241.715 80.7066 243.09 77.3602 242.605C74.0138 242.12 72.2163 241.069 70.8976 239.937C69.579 238.804 67.7254 237.212 66.214 236.858C64.8082 236.528 62.9236 235.371 62.4757 234.936C62.0341 234.5 62.1336 232.591 62.1336 232.591L84.8988 239.097Z" fill="#263238"/>
<path d="M63.614 225.276C63.614 225.276 63.191 225.276 63.0977 225.711C62.9858 226.234 62.8427 227.764 62.6064 228.622C62.2767 229.817 62.0217 232.267 62.1896 233.25C62.3576 234.233 65.0135 235.452 66.469 236.024C67.9556 236.615 69.6723 237.803 71.1713 239.066C72.7201 240.372 76.0105 241.759 78.1999 241.784C80.7874 241.809 83.7108 241.037 84.4012 239.868C85.2534 238.419 85.8878 236.733 82.0874 234.917C81.3659 234.575 78.8468 233.045 77.9884 232.491C75.6621 230.992 74.0325 229.63 73 227.03C72.8818 226.725 72.7512 226.389 72.4651 226.234C72.2411 226.109 71.9737 226.122 71.7187 226.153C71.078 226.228 68.5216 226.532 67.9369 226.794C67.4206 227.024 66.6805 227.298 66.6805 227.944C66.6805 228.168 66.7427 228.392 66.8111 228.604C66.8546 228.734 66.8857 228.915 66.7675 228.989C66.6556 229.064 66.5063 228.977 66.413 228.884C66.0149 228.523 65.735 228.063 65.3991 227.646C65.225 227.422 64.659 226.7 64.435 226.526C64.2298 226.365 63.9685 226.277 63.7882 226.097C63.558 225.867 63.6202 225.581 63.614 225.276Z" fill="#455A64"/>
<path d="M71.1712 239.066C70.5119 238.512 69.8091 237.971 69.1062 237.492V237.486C69.1062 237.486 73.5659 240.266 75.4133 239.072C76.6013 238.301 76.0602 237.337 76.0415 237.026C76.0166 236.721 80.2027 234.625 81.3472 234.513C81.6644 234.693 81.9194 234.842 82.0936 234.917C85.0667 236.149 85.4337 237.672 84.905 239.576C84.2146 240.745 81.596 241.921 78.2558 241.865C76.0539 241.827 72.72 240.372 71.1712 239.066Z" fill="#37474F"/>
<path d="M75.7366 236.13C78.1065 237.113 77.0802 237.529 76.4084 237.616C75.7366 237.697 71.7683 235.321 69.3549 233.374C66.8358 231.341 64.9014 228.635 63.9622 227.888C63.6139 227.609 63.2407 227.266 62.9048 226.949C62.9794 226.433 63.0354 225.966 63.0914 225.718C63.1847 225.276 63.6076 225.282 63.6076 225.282C63.6139 225.587 63.5517 225.867 63.7818 226.103C63.9622 226.29 64.2234 226.371 64.4287 226.532C64.6526 226.713 65.2186 227.428 65.3928 227.652C65.7224 228.069 66.0086 228.529 66.4066 228.89C68.4468 231.527 73.373 235.147 75.7366 236.13Z" fill="#37474F"/>
<path d="M76.2468 237.268C76.197 237.268 76.1411 237.249 76.0975 237.212C75.998 237.131 75.9856 236.982 76.0726 236.882C76.7631 236.08 79.985 234.214 81.7391 234.432C81.8697 234.45 81.963 234.562 81.9443 234.693C81.9257 234.817 81.8261 234.905 81.6831 234.892C80.0472 234.693 76.9808 236.547 76.4396 237.181C76.3836 237.237 76.3152 237.268 76.2468 237.268Z" fill="#263238"/>
<path d="M74.188 235.968C74.1382 235.968 74.0822 235.95 74.0387 235.912C73.9392 235.831 73.9267 235.682 74.0138 235.583C74.7042 234.786 77.9262 232.914 79.6802 233.132C79.8108 233.151 79.9041 233.262 79.8855 233.393C79.8668 233.518 79.7549 233.611 79.6242 233.592C77.9884 233.393 74.9219 235.247 74.3808 235.881C74.3248 235.943 74.2564 235.968 74.188 235.968Z" fill="#263238"/>
<path d="M72.1291 234.737C72.0794 234.737 72.0234 234.718 71.9798 234.681C71.8803 234.6 71.8679 234.45 71.955 234.351C72.6454 233.549 75.8673 231.676 77.6214 231.9C77.752 231.919 77.8453 232.031 77.8266 232.162C77.808 232.286 77.696 232.379 77.5654 232.361C75.9295 232.162 72.8631 234.015 72.3219 234.65C72.266 234.712 72.1975 234.743 72.1291 234.737Z" fill="#263238"/>
<path d="M70.2321 233.343C70.1824 233.343 70.1264 233.325 70.0829 233.287C69.9833 233.206 69.9709 233.057 70.058 232.958C70.7484 232.155 73.9766 230.289 75.7244 230.507C75.855 230.526 75.9483 230.638 75.9297 230.768C75.911 230.893 75.799 230.986 75.6684 230.967C74.0326 230.768 70.9661 232.622 70.425 233.256C70.369 233.318 70.3006 233.343 70.2321 233.343Z" fill="#263238"/>
<path d="M68.3659 231.944C68.3161 231.944 68.2602 231.925 68.2228 231.888C68.1233 231.807 68.1109 231.658 68.1917 231.558C69.1372 230.426 72.5084 228.871 74.2562 229.089C74.3869 229.107 74.4802 229.219 74.4615 229.35C74.4429 229.474 74.3309 229.562 74.2003 229.549C72.6266 229.35 69.3984 230.843 68.5587 231.851C68.5027 231.919 68.4343 231.95 68.3659 231.944Z" fill="#263238"/>
<path d="M47.0558 229.412L49.4318 218.876L39.0382 217.252L38.8703 227.652C38.8703 227.652 38.0741 230.451 38.665 231.409C39.2497 232.373 45.4946 233.381 46.0668 232.74C46.6391 232.106 47.0558 229.412 47.0558 229.412Z" fill="#FFBDA7"/>
<path d="M46.017 246.013C45.7434 248.377 45.2458 249.907 44.2257 251.182C43.2056 252.464 41.3831 252.681 39.5793 252.047C37.7755 251.412 35.4928 250.038 35.0761 247.917C34.6531 245.796 34.8273 244.402 35.3497 242.244L46.017 246.013Z" fill="#263238"/>
<path d="M38.8701 227.652C38.1175 227.615 38.3228 229.474 37.962 232.659C37.5764 236.105 36.0214 238.811 35.4678 241.572C34.8334 244.732 34.9578 246.188 36.1333 248.29C37.3089 250.392 41.7189 252.849 44.0763 250.336C45.9983 248.29 46.1973 245.777 46.1849 242.549C46.1786 239.209 46.1413 236.858 46.4212 234.357C46.6887 231.969 47.6901 229.761 47.0494 229.412C46.981 229.761 46.3404 232.18 45.9174 232.143C45.8925 231.832 45.9174 231.546 45.9547 231.235C45.9858 230.967 45.9796 230.663 45.7868 230.432C45.594 230.196 44.8787 229.91 44.5739 229.817C43.8399 229.599 42.5337 229.325 41.7811 229.17C41.4079 229.095 41.0347 229.033 40.6553 228.989C40.3505 228.958 39.9897 228.933 39.6974 228.996C39.517 229.033 39.3491 229.126 39.2744 229.269C39.2185 229.381 39.2247 229.506 39.2185 229.63C39.206 229.854 39.1625 230.072 39.0941 230.277C39.063 230.37 38.9821 230.476 38.8764 230.439C38.7893 230.408 38.7582 230.308 38.7644 230.227C38.7893 229.841 38.8453 227.857 38.8701 227.652Z" fill="#455A64"/>
<path d="M35.6917 240.683C35.5984 241.137 35.0013 244.154 35.9219 244.825C36.9171 245.547 37.5951 243.202 37.5951 243.202C37.5951 243.202 40.0271 242.847 43.4481 244.626C43.2428 245.105 43.7031 246.81 44.6734 246.579C45.6437 246.349 46.1911 242.872 46.1973 242.829C46.1911 245.926 45.9485 248.352 44.0887 250.336C41.7314 252.849 37.3214 250.392 36.1458 248.29C34.9702 246.188 34.8458 244.732 35.4803 241.572C35.5362 241.255 35.6109 240.963 35.6917 240.683Z" fill="#37474F"/>
<path d="M37.8504 243.438C37.7757 244.602 36.5006 244.048 36.5255 242.4C36.5504 240.751 37.415 236.746 37.7446 234.052C37.9623 230.177 38.1178 227.615 38.8704 227.652C38.8642 227.689 38.8642 227.733 38.858 227.77C38.858 227.77 38.7771 229.978 38.7709 230.227C38.6341 232.597 38.603 237.2 38.2671 239.339C37.9312 241.485 37.925 242.281 37.8504 243.438Z" fill="#37474F"/>
<path d="M43.0377 244.539C43.3425 243.426 43.585 242.68 43.952 240.546C44.319 238.431 45.5817 234.189 46.2099 231.913C46.4151 231.54 47.0496 229.406 47.0496 229.406C47.5721 229.555 47.0496 231.583 46.807 232.535C46.5644 233.486 46.2659 234.506 45.9611 235.869C45.1836 238.556 45.1089 242.592 44.6051 244.135C44.1013 245.684 42.7329 245.653 43.0377 244.539Z" fill="#37474F"/>
<path d="M43.5105 244.726C43.4732 244.72 43.4421 244.707 43.411 244.689C43.3861 244.67 40.7178 243.102 37.6513 243.451C37.502 243.469 37.3527 243.37 37.3216 243.233C37.2905 243.096 37.3838 242.972 37.5331 242.953C40.8173 242.586 43.579 244.21 43.6909 244.284C43.8215 244.365 43.8713 244.521 43.7904 244.633C43.7345 244.713 43.6163 244.751 43.5105 244.726Z" fill="#263238"/>
<path d="M44.263 242.281C44.2319 242.275 44.2008 242.263 44.1697 242.25C44.1386 242.232 41.1343 240.583 37.7195 240.863C37.5702 240.876 37.421 240.776 37.3961 240.639C37.365 240.503 37.4707 240.378 37.62 240.372C41.2338 240.08 44.3065 241.765 44.4371 241.84C44.574 241.914 44.6237 242.07 44.5553 242.188C44.4869 242.263 44.3749 242.306 44.263 242.281Z" fill="#263238"/>
<path d="M38.0185 238.487C37.9128 238.462 37.8195 238.394 37.7884 238.294C37.7448 238.158 37.8319 238.027 37.975 238.002C41.3897 237.405 44.6428 239.327 44.7859 239.408C44.9165 239.489 44.9662 239.644 44.8854 239.756C44.8045 239.868 44.6366 239.893 44.506 239.812C44.4749 239.793 41.3151 237.927 38.1367 238.487C38.0994 238.493 38.0558 238.493 38.0185 238.487Z" fill="#263238"/>
<path d="M38.3231 236.248C38.2174 236.223 38.1303 236.155 38.0992 236.055C38.0556 235.918 38.1365 235.788 38.2796 235.763C42.0427 235.041 45.0967 237.082 45.2273 237.169C45.3579 237.256 45.389 237.411 45.3019 237.517C45.2149 237.623 45.0407 237.641 44.9163 237.554C44.8852 237.536 41.9494 235.576 38.4475 236.248C38.404 236.26 38.3604 236.26 38.3231 236.248Z" fill="#263238"/>
<path d="M38.6778 233.741C38.5783 233.723 38.485 233.648 38.4539 233.555C38.4041 233.418 38.485 233.287 38.6343 233.256C42.161 232.528 45.4887 234.643 45.6255 234.737C45.7562 234.817 45.7935 234.979 45.7126 235.085C45.6318 235.197 45.4576 235.216 45.327 235.128C45.2959 235.11 42.0801 233.063 38.8084 233.741C38.7587 233.748 38.7151 233.748 38.6778 233.741Z" fill="#263238"/>
<path d="M42.8637 148.167C39.5608 156.265 41.7254 167.094 41.3895 175.92C40.9852 186.476 40.7986 194.754 40.7986 194.754C40.6742 196.173 39.8656 198.163 39.2063 205.167C38.5097 212.556 38.5345 223.105 38.5345 223.105C38.5345 223.105 44.7794 225.774 48.6607 224.393C48.6607 224.393 52.8343 208.569 54.8496 199.867C56.7591 191.632 58.1649 178.757 58.1649 178.757L60.4352 191.159C60.4352 191.159 60.149 196.49 60.2859 200.222C60.4414 204.557 62.7801 221.171 62.7801 221.171C62.7801 221.171 68.5834 224.648 72.6201 221.332C72.6201 221.332 74.5857 196.95 74.7163 191.738C74.9713 181.506 75.2636 161.372 74.057 148.167H42.8637Z" fill="#37474F"/>
<path d="M58.1709 178.757L60.7584 162.529C60.7584 162.529 66.3502 161.596 68.7698 159.269C68.7698 159.269 66.966 162.865 62.5311 164.053L59.8192 179.08L60.4474 191.159L58.1709 178.757Z" fill="#263238"/>
<path d="M38.429 223.466C40.1706 224.834 45.2523 225.997 48.7293 224.741L49.4321 221.805C46.8073 222.688 41.4021 222.129 38.4912 220.331L38.429 223.466Z" fill="#455A64"/>
<path d="M62.7865 221.513C63.9621 222.707 69.4171 223.696 72.639 221.805L72.8754 218.857C70.4309 220.219 64.8205 219.983 62.4258 218.589L62.7865 221.513Z" fill="#455A64"/>
<path d="M41.2093 177.37C41.2093 177.37 40.6681 190.525 40.7055 191.483C40.7428 192.441 47.8958 194.338 48.0824 193.728C48.3934 192.714 48.3125 190.45 48.9345 179.553C43.0006 178.788 41.2093 177.37 41.2093 177.37Z" fill="#455A64"/>
<path d="M47.8148 183.303C47.5971 183.229 47.3669 183.254 47.143 183.247C46.8818 183.241 46.6205 183.229 46.3593 183.21C45.8057 183.167 45.2521 183.08 44.711 182.955C44.0952 182.818 43.4919 182.632 42.9072 182.408C42.4282 182.221 41.9742 181.979 41.4952 181.798C41.4517 181.78 41.4455 181.867 41.4704 181.891C41.9244 182.221 42.4656 182.451 42.9818 182.663C43.467 182.856 43.9646 183.017 44.4746 183.142C45.0158 183.279 45.5631 183.372 46.1167 183.434C46.3904 183.465 46.6703 183.484 46.9502 183.496C47.2114 183.509 47.5908 183.565 47.8272 183.434C47.8521 183.409 47.8583 183.322 47.8148 183.303Z" fill="#37474F"/>
<path d="M44.6986 181.469C44.6301 181.332 44.5742 181.251 44.4249 181.232C44.3005 181.22 44.1699 181.251 44.0641 181.326C43.9646 181.394 43.9024 181.506 43.8837 181.624C43.8589 181.829 43.9646 182.022 44.1388 182.122C44.288 182.209 44.5057 182.221 44.6488 182.115C44.7421 182.047 44.7732 181.929 44.7732 181.817C44.7794 181.693 44.7545 181.574 44.6986 181.469ZM44.5617 181.873C44.4809 181.979 44.3129 182.004 44.201 181.941C44.0206 181.836 44.0579 181.481 44.2818 181.456C44.3502 181.45 44.4249 181.462 44.4809 181.506C44.5804 181.581 44.6426 181.761 44.5617 181.873Z" fill="#37474F"/>
<path d="M65.2683 113.907C68.8697 114.554 70.6175 115.474 73.3232 119.816C76.0289 124.157 81.5274 136.554 81.5274 136.554L93.3267 145.61L86.2111 148.807C86.4163 149.106 84.5317 148.384 79.8169 145.84C75.6246 143.576 75.2639 143.57 72.5146 138.787C70.0702 134.539 66.4252 128.387 66.4252 128.387L65.2683 113.907Z" fill="#FFBDA7"/>
<path d="M41.7693 120.046C46.6955 120.046 50.6888 116.053 50.6888 111.126V88.8651H49.2084C45.1032 88.8651 41.7693 92.1928 41.7693 96.3042V120.046Z" fill="#37474F"/>
<path d="M46.1669 91.6704C46.0487 92.0373 45.9679 92.423 45.9305 92.8086C45.9057 93.0574 45.8932 93.3062 45.9305 93.555C46.086 94.7119 47.2305 95.5579 48.375 95.5765C49.5195 95.5952 50.6018 94.9172 51.3171 93.9966C52.2687 92.7775 53.6931 89.9039 51.8395 88.8838C50.6204 88.212 49.0405 88.3924 47.9023 89.2072C47.0812 89.7981 46.4841 90.6876 46.1669 91.6704Z" fill="#D84B4B"/>
<path opacity="0.25" d="M46.1669 91.6704C46.0487 92.0373 45.9679 92.423 45.9305 92.8086C45.9057 93.0574 45.8932 93.3062 45.9305 93.555C46.086 94.7119 47.2305 95.5579 48.375 95.5765C49.5195 95.5952 50.6018 94.9172 51.3171 93.9966C52.2687 92.7775 53.6931 89.9039 51.8395 88.8838C50.6204 88.212 49.0405 88.3924 47.9023 89.2072C47.0812 89.7981 46.4841 90.6876 46.1669 91.6704Z" fill="black"/>
<path d="M45.6567 139.396C45.4515 140.304 43.2869 145.013 41.9932 150.064C49.7619 160.078 72.7759 154.617 74.4553 148.975C74.0946 142.276 73.7836 125.358 72.3157 122.298C69.6908 116.824 65.2684 113.901 65.2684 113.901C63.1785 113.459 60.9953 113.316 60.3608 113.248C59.0733 113.117 56.4173 112.787 53.0026 113.434C51.4102 113.739 48.8849 114.38 46.3409 115.437C43.6477 116.563 43.0443 120.158 43.9214 126.011C44.3257 128.704 47.0936 133.077 45.6567 139.396Z" fill="#455A64"/>
<path d="M106.246 121.153L99.1547 115.033L104.554 86.6943L94.0667 77.6505L85.8999 80.493L82.1181 100.335L74.2001 93.499L102.762 47.415L91.4917 37.6932L83.3248 40.5357L52.7784 89.5307L50.6885 100.484L77.6584 123.753L74.5297 140.149L85.0167 149.199L93.1835 146.35L94.6887 138.451L95.2361 138.917L103.403 136.075L106.246 121.153Z" fill="#D84B4B"/>
<path opacity="0.3" d="M106.246 121.153L99.1547 115.033L104.554 86.6943L94.0667 77.6505L85.8999 80.493L82.1181 100.335L74.2001 93.499L102.762 47.415L91.4917 37.6932L83.3248 40.5357L52.7784 89.5307L50.6885 100.484L77.6584 123.753L74.5297 140.149L85.0167 149.199L93.1835 146.35L94.6887 138.451L95.2361 138.917L103.403 136.075L106.246 121.153Z" fill="black"/>
<path d="M90.9876 117.881L96.3866 89.5431L85.8997 80.493L80.5007 108.831L66.0268 96.3478L94.5952 50.2638L83.3246 40.5357L52.7719 89.5306L50.6882 100.484L77.6582 123.753L74.5357 140.149L85.0164 149.199L88.1451 132.797L95.2359 138.917L98.0784 124.002L90.9876 117.881Z" fill="#D84B4B"/>
<path opacity="0.3" d="M90.9876 117.881L96.3866 89.5431L85.8997 80.493L80.5007 108.831L66.0268 96.3478L94.5952 50.2638L83.3246 40.5357L52.7719 89.5306L50.6882 100.484L77.6582 123.753L74.5357 140.149L85.0164 149.199L88.1451 132.797L95.2359 138.917L98.0784 124.002L90.9876 117.881Z" fill="white"/>
<path d="M83.3247 40.5357L94.5953 50.2638L102.762 47.415L91.4916 37.6932L83.3247 40.5357Z" fill="#D84B4B"/>
<path opacity="0.5" d="M83.3247 40.5357L94.5953 50.2638L102.762 47.415L91.4916 37.6932L83.3247 40.5357Z" fill="white"/>
<path d="M85.8997 80.493L94.0665 77.6505L104.553 86.6943L96.3866 89.5431L85.8997 80.493Z" fill="#D84B4B"/>
<path opacity="0.5" d="M85.8997 80.493L94.0665 77.6505L104.553 86.6943L96.3866 89.5431L85.8997 80.493Z" fill="white"/>
<path d="M90.9878 117.881L99.1547 115.033L106.245 121.153L98.0786 124.002L90.9878 117.881Z" fill="#D84B4B"/>
<path opacity="0.5" d="M90.9878 117.881L99.1547 115.033L106.245 121.153L98.0786 124.002L90.9878 117.881Z" fill="white"/>
<path d="M66.0269 96.3478L74.1999 93.499L82.118 100.335L80.5008 108.831L66.0269 96.3478Z" fill="#D84B4B"/>
<path opacity="0.5" d="M66.0269 96.3478L74.1999 93.499L82.118 100.335L80.5008 108.831L66.0269 96.3478Z" fill="white"/>
<path d="M85.9812 121.246C85.3716 121.079 86.7774 118.69 86.4788 117.123C86.3295 116.345 85.3716 115.63 85.0295 116.669C84.308 118.852 83.3564 119.648 82.7219 120.96" fill="#FFBDA7"/>
<path d="M82.7218 120.96C82.0873 122.273 81.3907 123.162 79.5993 124.425C77.6898 125.768 66.4503 128.132 66.4503 128.132C66.4503 128.132 63.7881 126.552 59.2599 123.523C53.5251 119.685 48.1448 115.114 46.341 115.437C40.6559 117.054 41.9932 125.345 44.2013 127.199C45.6568 128.424 47.3362 129.538 53.2328 132.691C59.6207 136.112 60.5537 136.243 62.4197 137.033C65.7225 138.432 66.4129 138.152 70.5741 136.678C74.7353 135.204 77.186 133.904 82.7218 131.167C85.527 129.78 86.5533 128.785 88.6681 127.367C89.7193 126.664 90.2791 126.154 90.8451 125.476C91.4111 124.798 91.8714 124.014 92.0518 123.15C92.0829 122.988 92.0953 122.833 92.1762 122.683C92.2508 122.54 92.3441 122.41 92.4436 122.285C92.624 122.043 92.8231 121.806 92.9288 121.514C93.0408 121.209 93.0408 120.879 93.0905 120.562C93.1154 120.413 93.1154 120.27 93.1527 120.121C93.1963 119.971 93.2585 119.828 93.3269 119.691C93.501 119.337 93.725 118.976 93.7623 118.572C93.7996 118.199 93.5259 118.012 93.5259 118.012C93.5259 118.012 93.8245 117.589 93.924 117.44C94.0546 117.228 94.1666 117.004 94.2474 116.774C94.2785 116.681 94.3096 116.575 94.2599 116.488C94.2288 116.438 94.179 116.407 94.1293 116.382C93.3144 115.959 92.5245 116.469 91.8901 116.961C90.2231 118.248 89.4456 119.399 87.6356 120.5C86.6528 121.097 86.3978 121.234 85.9873 121.228" fill="#FFBDA7"/>
<path d="M93.5073 118.143C93.2212 118.584 92.8916 118.995 92.5619 119.405C92.2322 119.816 91.8964 120.214 91.5667 120.618C91.3988 120.817 91.2433 121.029 91.0629 121.228C90.8825 121.421 90.7021 121.613 90.5093 121.794C90.1299 122.155 89.738 122.509 89.3213 122.833L89.8624 122.26C90.0428 122.074 90.2232 121.881 90.4036 121.688C90.5777 121.495 90.7581 121.302 90.9261 121.103C91.094 120.911 91.2495 120.699 91.4174 120.494C91.7533 120.089 92.0954 119.691 92.4499 119.306L93.5073 118.143Z" fill="#F0997A"/>
<path d="M93.1712 120.071C93.0219 120.45 92.8291 120.823 92.6052 121.166C92.3875 121.508 92.1449 121.831 91.8961 122.155C91.6473 122.472 91.3923 122.783 91.1186 123.088C90.8512 123.386 90.565 123.678 90.2603 123.946C90.5153 123.629 90.7516 123.305 91.0004 122.994L91.7406 122.043L92.4746 121.091C92.7234 120.755 92.9535 120.413 93.1712 120.071Z" fill="#F0997A"/>
<path d="M67.4642 101.448L68.192 101.224C71.4699 99.464 71.302 95.1909 70.5058 92.9641C68.7331 87.9943 63.359 86.1346 60.0375 85.9542C53.7367 85.6121 50.6578 87.2355 50.0047 90.501C49.1525 90.4264 47.977 91.1168 47.2679 92.0809C45.7191 94.1894 43.8718 101.541 52.0448 109.298L67.4642 101.448Z" fill="#37474F"/>
<path d="M50.5277 106.835C49.3832 107.003 48.5062 106.406 47.8469 105.622C46.3852 103.88 46.3105 102.164 47.0694 101.056C47.6914 100.142 49.1531 99.6009 50.142 100.273C51.1932 100.994 51.2057 101.548 51.5851 102.325C51.9707 103.128 53.5444 103.103 54.042 100.03C54.5085 97.1626 54.3779 94.1584 55.8333 92.9144C58.0103 91.0546 60.2495 91.6953 61.0457 92.8771C61.9538 91.5709 63.9256 91.4776 65.3313 92.3048C66.3576 92.9082 67.4336 93.866 67.3155 97.0942C67.2781 98.0894 67.9437 99.9492 68.0121 101.342C68.2982 106.928 67.3714 108.309 65.8849 109.665C64.9954 110.473 63.5897 111.008 61.4935 111.021L61.5682 113.876C61.5682 113.876 64.1184 117.589 64.2055 119.424L52.2133 113.726L51.921 106.02C51.9272 106.014 51.6162 106.673 50.5277 106.835Z" fill="#FFBDA7"/>
<path d="M64.7341 95.2344L66.3824 96.6899C65.9967 97.1626 65.3125 97.2186 64.8585 96.8205C64.3982 96.4162 64.3422 95.7071 64.7341 95.2344Z" fill="#263238"/>
<path d="M59.0737 97.0631L57.0397 98.2449C56.6914 97.6913 56.8594 96.976 57.4192 96.6525C57.9852 96.3229 58.7254 96.5095 59.0737 97.0631Z" fill="#263238"/>
<path d="M55.8519 93.2875C55.3606 93.9158 54.9998 94.544 55.0744 96.7894C55.1055 97.7224 55.0371 99.9056 54.4089 101.206C53.8615 102.344 53.2893 103.022 52.0826 103.233C51.4793 103.339 50.453 103.271 49.8932 103.009C49.464 102.81 48.2573 101.958 48.4004 100.708C48.5932 100.926 48.9477 101.199 49.2836 101.33C49.5386 101.43 49.8123 101.504 50.086 101.523C50.907 101.566 51.6908 101.063 52.151 100.378C52.9659 99.1717 52.9099 97.542 53.1587 96.1612C53.4759 94.4009 53.7807 92.4043 55.3668 91.5335C57.2452 90.501 60.6351 90.9613 61.0394 92.877C59.7643 91.6517 57.127 91.6703 55.8519 93.2875Z" fill="#37474F"/>
<path d="M61.9534 98.4564L62.6065 103.924L65.5672 102.767L61.9534 98.4564Z" fill="#F0997A"/>
<path d="M60.069 100.173C60.069 100.646 59.6834 101.031 59.2107 101.031C58.7379 101.031 58.3523 100.646 58.3523 100.173C58.3523 99.7003 58.7379 99.3147 59.2107 99.3147C59.6834 99.3147 60.069 99.7003 60.069 100.173Z" fill="#263238"/>
<path d="M65.3371 100.173C65.8112 100.173 66.1955 99.7888 66.1955 99.3147C66.1955 98.8407 65.8112 98.4564 65.3371 98.4564C64.8631 98.4564 64.4788 98.8407 64.4788 99.3147C64.4788 99.7888 64.8631 100.173 65.3371 100.173Z" fill="#263238"/>
<path d="M62.0717 105.647C62.0717 106.119 61.6861 106.505 61.2133 106.505C60.7406 106.505 60.355 106.119 60.355 105.647C60.355 105.174 60.7406 104.788 61.2133 104.788C61.6861 104.788 62.0717 105.168 62.0717 105.647Z" fill="#B16668"/>
<path d="M60.3861 105.429C60.3674 105.497 60.355 105.572 60.355 105.647C60.355 106.119 60.7406 106.505 61.2133 106.505C61.431 106.505 61.6239 106.424 61.7731 106.294C61.4746 105.821 60.9708 105.497 60.3861 105.429Z" fill="#F28F8F"/>
<path d="M61.4996 111.015C59.0738 110.921 56.8595 110.523 55.4787 109.677C54.8442 109.285 53.6935 108.346 52.9534 106.94C52.9534 106.94 53.0778 109.298 55.2361 110.822C57.4193 112.364 61.5307 112.626 61.5307 112.626L61.4996 111.015Z" fill="#F0997A"/>
<path d="M94.6267 147.321C95.8832 147.314 95.9578 147.178 96.1444 146.549C96.331 145.921 96.5114 144.696 95.6903 143.638C95.143 142.929 94.6205 142.183 94.154 141.947C93.6875 141.71 93.1277 142.606 93.6066 143.707C94.3593 145.442 93.9425 145.728 93.9425 145.728C93.9425 145.728 93.2521 144.13 92.8789 143.551C92.5057 142.973 91.5105 142.158 90.9569 141.598C90.3971 141.038 89.4952 141.505 89.9928 142.78C89.9928 142.78 89.29 142.077 88.9665 141.76C88.2512 141.045 87.623 141.082 87.5795 142.083C87.5732 142.32 87.5857 142.631 87.8345 143.016C87.8345 143.016 87.2125 142.152 86.9077 142.345C86.0493 142.892 86.2235 143.576 86.9823 145.685C87.6292 147.476 87.3804 148.391 86.6651 148.664L86.2048 148.801C86.2048 148.801 87.0819 149.187 87.9216 149.485C88.5373 149.703 89.1469 149.827 89.6818 149.137C89.6818 149.137 90.3536 150.101 90.9818 149.728C91.61 149.361 92.0703 148.583 92.0703 148.583C92.0703 148.583 92.7483 148.938 93.42 148.397C94.0918 147.856 94.1975 147.302 94.1975 147.302L94.6267 147.321Z" fill="#FFBDA7"/>
<path d="M89.999 142.786C90.3038 143.097 90.621 143.371 90.876 143.75C91.1186 144.155 91.1933 144.59 91.2928 145.001C91.4669 145.834 91.61 146.68 91.6411 147.538C91.3177 146.736 91.1062 145.915 90.9258 145.081C90.8387 144.665 90.7703 144.242 90.621 143.887C90.4344 143.539 90.1794 143.172 89.999 142.786Z" fill="#F0997A"/>
<path d="M87.8469 143.016C88.2139 143.296 88.5125 143.694 88.7053 144.124C88.9043 144.553 89.035 145.001 89.1469 145.455C89.3584 146.357 89.5077 147.265 89.5263 148.198C89.2091 147.321 88.9976 146.431 88.7799 145.542C88.556 144.659 88.3756 143.781 87.8469 143.016Z" fill="#F0997A"/>
</svg>
