<svg width="312" height="311" viewBox="0 0 312 311" fill="none" xmlns="http://www.w3.org/2000/svg">
<path d="M69.5918 180.66C21.8719 208.208 21.8719 252.88 69.5918 280.435C117.312 307.983 194.682 307.983 242.402 280.435C290.122 252.887 290.122 208.215 242.402 180.66C194.682 153.105 117.312 153.105 69.5918 180.66Z" fill="#FAFAFA"/>
<path d="M196.66 277.916C217.957 265.619 217.951 245.684 196.654 233.393C175.357 221.096 140.829 221.096 119.532 233.393C98.2412 245.684 98.2412 265.619 119.538 277.916C140.836 290.207 175.363 290.213 196.66 277.916Z" fill="#E0E0E0"/>
<path d="M25.2122 89.9474C25.2122 91.2785 26.2944 92.3608 27.6255 92.3608C28.9566 92.3608 30.0389 91.2785 30.0389 89.9474C30.0389 88.6163 28.9566 87.5341 27.6255 87.5341C26.2882 87.5341 25.2122 88.6101 25.2122 89.9474Z" fill="#F5F5F5"/>
<path d="M283.143 152.514C283.143 153.845 284.226 154.928 285.557 154.928C286.888 154.928 287.97 153.845 287.97 152.514C287.97 151.183 286.888 150.101 285.557 150.101C284.226 150.095 283.143 151.177 283.143 152.514Z" fill="#F5F5F5"/>
<path d="M237.177 39.8329C237.177 41.1639 238.26 42.2462 239.591 42.2462C240.922 42.2462 242.004 41.1639 242.004 39.8329C242.004 38.5018 240.922 37.4195 239.591 37.4195C238.26 37.4195 237.177 38.4956 237.177 39.8329Z" fill="#F5F5F5"/>
<path d="M287.97 110.679C287.97 112.01 289.052 113.092 290.383 113.092C291.714 113.092 292.796 112.01 292.796 110.679C292.796 109.348 291.714 108.265 290.383 108.265C289.052 108.265 287.97 109.348 287.97 110.679Z" fill="#F5F5F5"/>
<path d="M25.2122 154.928C25.2122 156.259 26.2944 157.341 27.6255 157.341C28.9566 157.341 30.0389 156.259 30.0389 154.928C30.0389 153.597 28.9566 152.514 27.6255 152.514C26.2882 152.514 25.2122 153.597 25.2122 154.928Z" fill="#F5F5F5"/>
<path d="M57.1146 87.9694C57.1146 84.4738 59.9572 81.625 63.459 81.625C66.9547 81.625 69.8034 84.4675 69.8034 87.9694C69.8034 91.465 66.9609 94.3138 63.459 94.3138C59.9634 94.3138 57.1146 91.465 57.1146 87.9694ZM58.1223 87.9694C58.1223 90.9115 60.517 93.3062 63.459 93.3062C66.4011 93.3062 68.7958 90.9115 68.7958 87.9694C68.7958 85.0273 66.4011 82.6326 63.459 82.6326C60.517 82.6326 58.1223 85.0273 58.1223 87.9694Z" fill="#F5F5F5"/>
<path d="M256.957 92.3483C256.957 88.8527 259.8 86.0039 263.301 86.0039C266.797 86.0039 269.646 88.8464 269.646 92.3483C269.646 95.8439 266.803 98.6927 263.301 98.6927C259.806 98.6865 256.957 95.8439 256.957 92.3483ZM257.965 92.3483C257.965 95.2904 260.359 97.6851 263.301 97.6851C266.243 97.6851 268.638 95.2904 268.638 92.3483C268.638 89.4062 266.243 87.0115 263.301 87.0115C260.359 87.0053 257.965 89.4 257.965 92.3483Z" fill="#F5F5F5"/>
<path d="M275.045 50.2203C275.045 46.7246 277.887 43.8759 281.389 43.8759C284.885 43.8759 287.733 46.7184 287.733 50.2203C287.733 53.7159 284.891 56.5647 281.389 56.5647C277.893 56.5584 275.045 53.7159 275.045 50.2203ZM276.052 50.2203C276.052 53.1623 278.447 55.557 281.389 55.557C284.331 55.557 286.726 53.1623 286.726 50.2203C286.726 47.2782 284.331 44.8835 281.389 44.8835C278.447 44.8835 276.052 47.2782 276.052 50.2203Z" fill="#F5F5F5"/>
<path d="M30.3312 44.3859C30.3312 40.8903 33.1737 38.0415 36.6756 38.0415C40.1712 38.0415 43.02 40.884 43.02 44.3859C43.02 47.8878 40.1774 50.7303 36.6756 50.7303C33.1737 50.7241 30.3312 47.8815 30.3312 44.3859ZM31.3326 44.3859C31.3326 47.328 33.7273 49.7227 36.6694 49.7227C39.6114 49.7227 42.0061 47.328 42.0061 44.3859C42.0061 41.4438 39.6114 39.0491 36.6694 39.0491C33.7273 39.0491 31.3326 41.4376 31.3326 44.3859Z" fill="#F5F5F5"/>
<path opacity="0.15" d="M158.096 146.755C195.725 146.755 226.23 116.25 226.23 78.6208C226.23 40.9915 195.725 10.4869 158.096 10.4869C120.467 10.4869 89.9623 40.9915 89.9623 78.6208C89.9623 116.25 120.467 146.755 158.096 146.755Z" fill="#D84B4B"/>
<path d="M167.277 232.97L166.002 221.102L179.586 221.998C179.586 221.998 179.381 228.442 179.188 232.087C179.076 234.245 181.981 238.245 181.981 238.245C181.981 238.245 175.599 241.666 172.178 240.471C168.757 239.271 166.947 235.023 166.997 234.09C167.053 233.157 167.277 232.97 167.277 232.97Z" fill="#C8856A"/>
<path d="M200 251.512C200.212 251.506 200.573 253.714 199.422 254.672C198.097 255.779 194.179 257.626 188.954 257.085C183.729 256.544 180.88 255.082 178.772 253.484C176.657 251.885 173.696 249.634 171.332 249.186C169.137 248.769 166.742 247.886 166.027 247.264C165.318 246.642 165.367 243.824 165.367 243.824L200 251.512Z" fill="#263238"/>
<path d="M167.277 232.945C167.277 232.945 166.624 232.964 166.5 233.617C166.35 234.395 166.213 236.659 165.89 237.934C165.442 239.713 165.181 243.345 165.486 244.782C165.797 246.219 169.386 247.164 171.681 247.935C174.026 248.725 176.75 250.392 179.145 252.177C181.627 254.025 186.808 255.903 190.21 255.822C194.228 255.729 198.738 254.429 199.745 252.669C200.996 250.492 201.885 247.967 195.883 245.485C194.745 245.012 190.745 242.885 189.383 242.114C185.695 240.024 183.088 238.089 181.347 234.314C181.141 233.872 180.93 233.381 180.47 233.163C180.121 232.995 179.698 233.026 179.307 233.088C178.318 233.238 174.362 233.816 173.466 234.233C172.67 234.606 171.544 235.035 171.575 235.993C171.588 236.329 171.693 236.652 171.818 236.963C171.892 237.156 171.955 237.417 171.774 237.536C171.606 237.648 171.37 237.529 171.214 237.399C170.58 236.889 170.113 236.223 169.578 235.62C169.292 235.296 168.981 234.992 168.621 234.737C168.291 234.506 167.88 234.395 167.588 234.133C167.221 233.816 167.302 233.399 167.277 232.945Z" fill="#455A64"/>
<path d="M179.145 252.19C178.094 251.406 176.974 250.647 175.854 249.976V249.969C175.854 249.969 182.927 253.838 185.732 251.978C187.536 250.784 186.646 249.378 186.596 248.924C186.547 248.47 192.935 245.168 194.707 244.937C195.205 245.186 195.622 245.385 195.883 245.491C201.885 247.973 200.99 250.498 199.739 252.675C198.732 254.435 195.472 255.853 190.279 255.941C186.883 256.003 181.62 254.037 179.145 252.19Z" fill="#37474F"/>
<path d="M186.086 247.612C189.818 248.937 188.245 249.609 187.206 249.764C186.167 249.92 179.879 246.617 176.022 243.868C172.004 241 169.454 237.828 167.961 236.777C167.408 236.385 166.804 235.9 166.269 235.446C166.356 234.681 166.425 233.984 166.493 233.617C166.618 232.964 167.271 232.945 167.271 232.945C167.296 233.393 167.215 233.816 167.582 234.146C167.874 234.407 168.285 234.519 168.614 234.749C168.975 235.004 169.286 235.309 169.572 235.632C170.107 236.236 170.574 236.895 171.208 237.411C174.511 241.199 182.354 246.287 186.086 247.612Z" fill="#37474F"/>
<path d="M186.938 249.26C186.857 249.26 186.777 249.235 186.702 249.186C186.54 249.067 186.515 248.85 186.64 248.707C187.666 247.488 192.58 244.564 195.31 244.794C195.516 244.813 195.659 244.981 195.64 245.168C195.621 245.354 195.466 245.491 195.242 245.479C192.692 245.267 188.027 248.166 187.212 249.13C187.15 249.217 187.044 249.26 186.938 249.26Z" fill="#263238"/>
<path d="M183.673 247.456C183.592 247.456 183.511 247.432 183.437 247.382C183.275 247.264 183.25 247.046 183.374 246.903C184.401 245.69 189.308 242.76 192.045 242.991C192.25 243.009 192.393 243.177 192.375 243.364C192.356 243.55 192.182 243.693 191.977 243.675C189.426 243.463 184.761 246.362 183.947 247.326C183.884 247.407 183.779 247.456 183.673 247.456Z" fill="#263238"/>
<path d="M180.408 245.746C180.327 245.746 180.246 245.721 180.171 245.671C180.009 245.553 179.985 245.342 180.109 245.186C181.135 243.967 186.049 241.037 188.78 241.274C188.979 241.292 189.128 241.46 189.109 241.647C189.091 241.834 188.923 241.977 188.711 241.958C186.161 241.747 181.496 244.645 180.681 245.609C180.619 245.702 180.513 245.746 180.408 245.746Z" fill="#263238"/>
<path d="M177.378 243.787C177.297 243.787 177.216 243.762 177.142 243.712C176.98 243.594 176.955 243.382 177.08 243.233C178.106 242.014 183.026 239.091 185.75 239.321C185.956 239.339 186.099 239.507 186.08 239.694C186.061 239.88 185.887 240.024 185.682 240.005C183.132 239.793 178.467 242.692 177.652 243.656C177.59 243.737 177.484 243.787 177.378 243.787Z" fill="#263238"/>
<path d="M174.411 241.821C174.33 241.821 174.25 241.803 174.181 241.753C174.019 241.641 173.988 241.423 174.113 241.274C175.525 239.551 180.675 237.088 183.405 237.318C183.611 237.337 183.754 237.504 183.735 237.691C183.716 237.878 183.542 238.015 183.337 238.002C180.88 237.797 175.941 240.16 174.691 241.691C174.629 241.771 174.517 241.821 174.411 241.821Z" fill="#263238"/>
<path d="M139.84 240.322L142.745 229.027L128.881 227.13L128.451 238.021C128.451 238.021 127.052 241.927 127.916 243.345C128.787 244.763 138.005 246.219 138.845 245.273C139.685 244.322 139.84 240.322 139.84 240.322Z" fill="#C8856A"/>
<path d="M138.851 264.866C138.46 268.356 137.738 270.62 136.239 272.517C134.74 274.414 132.053 274.744 129.385 273.823C126.722 272.903 123.345 270.875 122.711 267.746C122.076 264.617 122.325 262.559 123.084 259.368L138.851 264.866Z" fill="#263238"/>
<path d="M128.445 238.021C127.332 237.965 127.637 242.748 126.785 247.401C125.87 252.389 124.066 254.286 123.264 258.366C122.35 263.031 122.536 265.19 124.284 268.281C126.032 271.379 132.551 274.98 136.015 271.254C138.839 268.219 139.113 264.512 139.088 259.741C139.057 254.809 138.994 251.332 139.386 247.637C139.766 244.104 140.78 240.963 139.834 240.453C139.735 240.969 139.635 241.622 139.529 242.126C139.449 242.512 139.256 244.427 138.634 244.371C138.596 243.911 138.628 243.488 138.683 243.028C138.733 242.63 138.715 242.188 138.435 241.846C138.149 241.504 137.091 241.075 136.643 240.944C135.561 240.621 133.627 240.229 132.519 240.005C131.972 239.893 131.419 239.806 130.859 239.744C130.411 239.694 129.876 239.663 129.447 239.756C129.179 239.812 128.931 239.949 128.825 240.167C128.744 240.328 128.75 240.521 128.744 240.702C128.731 241.031 128.669 241.355 128.564 241.659C128.514 241.796 128.402 241.952 128.24 241.902C128.109 241.858 128.066 241.709 128.072 241.591C128.091 241.019 128.197 240.608 128.253 239.949C128.277 239.644 128.358 239.227 128.377 238.923C128.396 238.624 128.408 238.319 128.445 238.021Z" fill="#455A64"/>
<path d="M123.581 257.048C123.445 257.719 122.58 262.179 123.942 263.162C125.41 264.226 126.399 260.761 126.399 260.761C126.399 260.761 129.982 260.22 135.039 262.826C134.74 263.529 135.424 266.054 136.861 265.706C138.285 265.364 139.075 260.226 139.088 260.158C139.094 264.729 138.758 268.312 136.015 271.26C132.551 274.986 126.032 271.379 124.284 268.287C122.536 265.19 122.35 263.038 123.264 258.373C123.357 257.9 123.463 257.464 123.581 257.048Z" fill="#37474F"/>
<path d="M126.784 261.109C126.685 262.826 124.8 262.018 124.825 259.585C124.85 257.153 126.61 251.574 126.784 247.401C127.083 241.672 127.332 237.965 128.445 238.021C128.439 238.077 128.439 238.139 128.433 238.195L128.178 240.583C128.128 240.932 128.084 241.236 128.072 241.603C127.885 245.105 127.867 251.898 127.382 255.064C126.896 258.217 126.884 259.393 126.784 261.109Z" fill="#37474F"/>
<path d="M134.442 262.708C134.883 261.066 135.238 259.959 135.773 256.811C136.301 253.683 138.142 247.413 139.057 244.048C139.355 243.494 139.474 242.418 139.53 242.138C139.623 241.666 139.722 241.069 139.809 240.577C139.816 240.54 139.828 240.509 139.834 240.471C140.518 240.851 140.295 243.563 139.94 244.968C139.585 246.374 139.15 247.879 138.708 249.895C137.57 253.869 137.483 259.822 136.755 262.111C136.021 264.393 134.006 264.35 134.442 262.708Z" fill="#37474F"/>
<path d="M135.144 262.975C135.095 262.963 135.045 262.944 134.995 262.919C134.958 262.895 131.014 260.593 126.486 261.122C126.262 261.147 126.045 261.004 125.995 260.805C125.945 260.606 126.088 260.419 126.306 260.394C131.145 259.828 135.231 262.217 135.406 262.322C135.605 262.44 135.673 262.671 135.555 262.832C135.468 262.957 135.3 263.013 135.144 262.975Z" fill="#263238"/>
<path d="M136.239 259.362C136.196 259.349 136.146 259.337 136.102 259.312C136.059 259.287 131.618 256.867 126.58 257.303C126.356 257.321 126.144 257.172 126.101 256.973C126.057 256.774 126.206 256.594 126.43 256.575C131.761 256.121 136.301 258.597 136.494 258.702C136.693 258.814 136.774 259.044 136.668 259.212C136.575 259.337 136.401 259.393 136.239 259.362Z" fill="#263238"/>
<path d="M127.003 253.795C126.847 253.764 126.71 253.652 126.667 253.509C126.604 253.309 126.729 253.117 126.947 253.073C131.985 252.171 136.799 254.995 136.998 255.113C137.197 255.231 137.266 255.462 137.147 255.623C137.035 255.791 136.78 255.822 136.588 255.71C136.544 255.686 131.867 252.949 127.177 253.788C127.121 253.807 127.065 253.801 127.003 253.795Z" fill="#263238"/>
<path d="M127.438 250.486C127.289 250.455 127.152 250.349 127.102 250.206C127.033 250.007 127.152 249.808 127.369 249.77C132.918 248.682 137.44 251.68 137.626 251.81C137.813 251.941 137.869 252.171 137.744 252.327C137.62 252.482 137.359 252.507 137.172 252.383C137.129 252.352 132.781 249.484 127.618 250.492C127.562 250.498 127.5 250.498 127.438 250.486Z" fill="#263238"/>
<path d="M127.948 246.778C127.799 246.747 127.668 246.642 127.612 246.505C127.544 246.306 127.656 246.107 127.873 246.063C133.073 244.968 137.993 248.078 138.198 248.209C138.391 248.333 138.447 248.564 138.329 248.725C138.211 248.887 137.956 248.918 137.763 248.794C137.713 248.763 132.961 245.765 128.135 246.778C128.072 246.791 128.01 246.791 127.948 246.778Z" fill="#263238"/>
<path d="M135.188 117.987C132.588 145.567 131.96 185.039 131.96 185.039C131.736 187.135 130.137 193.374 128.769 203.674C127.55 212.855 128.775 231.925 128.769 233.082C128.769 233.082 135.281 237.641 141.346 235.688C141.346 235.688 148.847 207.319 152.162 194.512C155.297 182.395 159.477 162.914 159.477 162.914L161.853 182.731C161.853 182.731 161.281 190.73 161.417 196.247C161.573 202.654 166.07 228.143 166.07 228.143C166.07 228.143 173.341 232.255 179.686 227.447C179.686 227.447 183.548 190.145 183.859 182.445C184.469 167.337 184.338 136.641 182.51 118.062L135.188 117.987Z" fill="#455A64"/>
<path d="M159.47 162.914L162.91 143.321C162.91 143.321 170.231 142.363 174.038 138.98C174.038 138.98 171.543 143.495 164.627 145.156L161.231 162.989L161.846 182.725L159.47 162.914Z" fill="#263238"/>
<path d="M128.396 233.337C129.87 235.421 135.997 237.828 141.42 236.043L142.783 231.029C138.684 232.28 131.674 231.421 128.396 228.685V233.337Z" fill="#37474F"/>
<path d="M165.977 228.405C167.781 230.19 174.728 231.179 179.779 228.454L180.059 224.107C176.234 226.066 168.931 226.24 165.243 224.125L165.977 228.405Z" fill="#37474F"/>
<path d="M176.308 66.6286C182.236 67.9908 185.085 69.0482 189.544 75.7907C194.004 82.5331 198.37 90.333 199.558 93.9033C200.746 97.4736 201.53 104.496 199.117 106.287C196.703 108.079 176.308 87.4221 176.308 87.4221V66.6286Z" fill="#D84B4B"/>
<path d="M151.919 64.3334L150.053 64.3521C150.053 64.3521 135.716 68.6501 134.211 69.2721C134.211 69.2721 131.275 78.7638 133.371 92.6095C133.807 95.4956 134.603 103.358 134.566 109.397C134.516 117.558 133.925 128.493 133.925 128.493C133.925 128.493 143.883 134.215 163.775 133.033C179.393 132.107 183.579 127.939 183.579 127.939C183.579 127.939 182.982 106.878 182.758 95.3712C182.466 80.2566 179.636 69.3156 176.308 66.6224L165.473 63.8545L151.919 64.3334Z" fill="#37474F"/>
<path d="M171.027 35.9142C169.995 34.0482 168.67 33.3081 167.824 33.0157C167.065 29.2402 162.108 26.5718 159.048 25.589C154.886 24.2517 150.619 25.2221 146.695 26.833C145.301 27.4053 143.815 27.9029 142.316 27.7287C141.663 27.6541 140.916 27.3306 140.804 26.6838C140.294 26.9574 140.021 27.5359 139.877 28.0957C139.529 29.4081 139.678 30.8387 140.282 32.0516C139.697 32.1325 139.243 32.6052 138.92 33.1028C137.931 34.6454 137.837 36.698 138.59 38.3649C140.182 41.9041 144.02 41.9228 147.248 42.9304C150.445 43.9318 153.649 44.927 156.846 45.9284C159.533 46.7681 162.214 47.6078 164.901 48.4413L164.789 52.6647L164.795 58.723C164.795 58.723 166.306 58.2876 167.009 56.857C167.712 55.4264 168.875 53.4422 170.119 48.3418C172.054 40.4113 171.855 37.4008 171.027 35.9142Z" fill="#263238"/>
<path d="M170.362 53.6537C167.264 55.2646 165.771 52.8202 165.771 52.8202L165.635 64.464C167.333 65.6272 171.289 71.3247 164.776 73.0103C158.021 74.7581 151.049 69.4649 150.116 65.6831L150.053 61.9885C150.053 61.9885 149.002 62.0196 147.329 61.7956C144.543 61.4349 142.16 59.5689 141.252 55.8555C140.157 51.3709 140.294 42.75 141.42 36.8161C141.855 34.5272 142.571 33.8803 143.896 33.1836C147.186 31.4483 156.945 30.8822 159.663 34.8755C159.352 37.3386 160.13 40.0319 162.406 40.7907C162.581 44.672 163.178 46.538 164.726 47.1413C165.983 47.6327 166.536 45.6983 167.364 44.7777C168.203 43.8696 171.382 42.9864 172.837 45.8849C174.305 48.8332 173.229 52.1671 170.362 53.6537Z" fill="#C8856A"/>
<path d="M150.053 61.9947C153.692 61.8765 156.914 61.3416 159.041 60.3775C161.169 59.4134 162.991 56.4527 163.538 53.5541C163.601 55.8742 162.693 60.0167 159.483 61.8143C156.273 63.6119 152.479 63.8047 150.097 63.9229L150.053 61.9947Z" fill="#AF6152"/>
<path d="M152.902 40.2309L155.993 41.506C156.329 40.6228 155.906 39.6214 155.054 39.2668C154.196 38.9123 153.232 39.3477 152.902 40.2309Z" fill="#263238"/>
<path d="M142.621 40.8405L145.849 39.8951C145.619 38.987 144.71 38.4583 143.815 38.7195C142.925 38.987 142.39 39.9324 142.621 40.8405Z" fill="#263238"/>
<path d="M145.812 43.6084C145.805 44.2677 145.096 44.7902 144.232 44.784C143.367 44.7778 142.664 44.2366 142.67 43.5773C142.677 42.918 143.386 43.9505 144.257 43.9567C145.127 43.9692 145.818 42.9491 145.812 43.6084Z" fill="#263238"/>
<path d="M155.882 43.8448C155.876 44.5041 155.167 45.0266 154.302 45.0204C153.437 45.0142 152.735 44.473 152.741 43.8137C152.747 43.1544 153.456 44.1869 154.327 44.1931C155.191 44.2056 155.888 43.1855 155.882 43.8448Z" fill="#263238"/>
<path d="M150.196 41.506L149.307 50.2016L144.686 48.6342C146.228 45.5304 148.069 43.1543 150.196 41.506Z" fill="#AF6152"/>
<path d="M154.041 52.5092C153.798 52.4159 153.524 52.4159 153.269 52.4097C153.014 52.4035 152.766 52.4159 152.511 52.447C152.125 52.503 151.746 52.5714 151.372 52.6709C150.632 52.8638 149.78 53.1623 149.239 53.7221C149.083 53.8838 149.376 54.1948 149.556 54.1202C149.942 53.9709 150.302 53.7781 150.682 53.6226C151.055 53.4671 151.447 53.3614 151.839 53.2618C152.212 53.1685 152.598 53.1188 152.977 53.0566C153.182 53.0255 153.381 52.9882 153.587 52.9508C153.773 52.9197 153.985 52.9135 154.14 52.7891C154.24 52.7145 154.128 52.5403 154.041 52.5092Z" fill="#AF6152"/>
<path d="M135.193 69.5458C128.022 72.208 124.097 79.448 130.485 89.2072C136.008 97.6415 146.912 107.326 150.464 109.634C156.373 113.465 159.308 113.322 164.135 108.116C169.789 102.02 178.391 91.9751 180.83 88.7905C183.274 85.6058 186.838 85.214 188.362 82.16C189.886 79.1122 190.303 77.1902 191.721 74.7457C192.859 72.7926 196.212 69.7075 196.896 67.1262C197.263 66.5726 197.549 66.0128 197.729 65.453C198.034 64.4889 197.518 63.8047 196.858 63.8669C197.151 63.4937 197.269 63.2823 197.269 62.5234C197.269 61.634 196.286 61.4909 195.807 61.721C194.856 62.1875 193.108 63.2885 193.108 63.2885C192.237 63.2885 191.914 63.3196 191.571 63.3942C191.074 63.5124 190.638 63.8047 190.216 64.0909C188.891 64.9928 187.56 65.8947 186.235 66.8028C185.445 67.3439 184.649 67.8851 183.94 68.5319C182.36 69.975 181.402 71.8285 180.394 73.6759C179.411 75.4797 178.043 77.3208 176.699 78.9007C174.106 81.9547 156.684 94.3076 156.684 94.3076C156.684 94.3076 150.358 87.4905 145.991 80.8413C140.207 72.0214 138.347 70.7089 135.193 69.5458Z" fill="#C8856A"/>
<path d="M189.854 70.9142C191.503 69.4276 193.132 67.9224 194.886 66.5602C195.39 66.2367 195.925 65.6334 196.572 65.6583C197.399 66.2989 197.014 67.5989 196.609 68.3329C195.409 70.2238 193.941 71.8783 192.517 73.595C193.4 72.3261 195.596 69.4774 196.348 68.196C196.728 67.5118 196.933 66.5477 196.466 65.9631C196.466 65.9631 196.441 65.9631 196.41 65.9693C194.022 67.2693 192.075 69.3405 189.854 70.9142Z" fill="#AF6152"/>
<path d="M187.69 70.3606C190.365 67.7544 193.356 65.254 196.852 63.8607C193.605 65.6272 190.62 68.0965 187.69 70.3606Z" fill="#AF6152"/>
<path d="M193.108 63.2823C190.707 64.9617 188.399 66.7282 185.973 68.3765C188.119 66.3861 190.483 64.5823 193.108 63.2823Z" fill="#AF6152"/>
<path d="M148.573 83.5968C145.799 79.7777 141.289 70.1367 135.529 68.8118C130.995 69.9998 126.859 74.217 126.859 79.3858C126.859 84.5546 128.177 87.3599 132.37 92.8273C136.562 98.2946 145.114 106.58 150.457 109.621C150.501 102.356 152.933 96.777 156.659 94.2827C156.659 94.2889 151.347 87.4158 148.573 83.5968Z" fill="#D84B4B"/>
<path opacity="0.2" d="M156.659 94.2889C153.86 96.242 150.625 99.7626 150.283 103.594C149.014 97.797 155.359 92.6033 155.359 92.6033L156.659 94.2889Z" fill="black"/>
<path d="M195.771 92.5722C197.071 93.7665 198.184 95.3463 199.017 97.1937C199.72 98.7549 200.044 100.478 200.031 102.188C200.025 103.519 200.05 105.933 198.657 106.617C198.265 106.81 197.817 106.884 197.382 106.897C196.648 106.916 195.939 106.984 195.174 106.928C194.365 106.866 193.563 106.766 192.76 106.642C191.155 106.393 189.638 105.821 188.213 105.043C185.284 103.445 183.38 101.056 181.222 98.5932C177.764 94.6435 174.243 90.7 171.046 86.5326C168.602 83.348 165.038 82.9561 163.514 79.9021C161.99 76.8543 161.573 74.9323 160.155 72.4878C159.017 70.5348 155.664 67.4496 154.98 64.8683C154.613 64.3148 154.327 63.755 154.146 63.1952C153.842 62.2311 154.358 61.5469 155.017 61.6091C154.725 61.2359 154.607 61.0244 154.607 60.2655C154.607 59.3761 155.589 59.233 156.068 59.4694C157.02 59.9359 158.768 61.0368 158.768 61.0368C159.639 61.0368 159.962 61.0679 160.304 61.1426C160.802 61.2607 161.237 61.5531 161.66 61.8392C162.985 62.7411 164.316 63.643 165.641 64.5511C166.431 65.0923 167.227 65.6334 167.936 66.2803C169.516 67.7233 170.474 69.5769 171.482 71.4242C172.464 73.228 173.833 75.0691 175.176 76.649C177.814 79.7528 181.676 82.1475 184.911 84.5671C187.025 86.147 189.314 87.8326 191.46 89.3751C193.096 90.5445 194.421 91.3407 195.771 92.5722Z" fill="#C8856A"/>
<path d="M180.594 97.8654C177.092 93.9406 173.646 89.8354 170.293 85.7862C169.08 84.5111 167.507 83.6714 166.039 82.6886C162.854 80.7729 162.301 76.761 160.69 73.7132C159.215 70.5223 156.018 68.4013 154.855 64.9057C154.463 64.2837 153.58 62.9712 154.072 62.0071C154.239 61.6588 154.644 61.41 155.042 61.4598L154.905 61.7086C154.731 61.4971 154.557 61.2172 154.507 60.9186C154.389 60.3526 154.414 59.5565 155.06 59.3201C155.353 59.1957 155.664 59.177 155.969 59.2641C157.02 59.7244 157.891 60.3215 158.855 60.9062L158.768 60.8813C159.278 60.8875 159.794 60.8751 160.316 60.9933C160.851 61.1177 161.299 61.4162 161.716 61.7023L164.229 63.4191C165.871 64.5884 167.7 65.5961 169.006 67.2257C170.934 69.6391 171.96 72.55 173.92 74.9198C175.692 77.4203 178.162 79.2365 180.544 81.1274C182.142 82.3776 183.76 83.6092 185.383 84.8283C188.624 87.2728 191.895 89.6799 195.192 92.056C190.216 88.5416 185.246 85.0087 180.432 81.2767C178.827 80.0265 177.229 78.7763 175.736 77.383C174.299 75.9213 173.105 74.2668 171.998 72.55C170.934 70.8084 170.107 68.9362 168.807 67.3937C167.538 65.82 165.728 64.831 164.067 63.6617L161.548 61.9512C160.721 61.2918 159.794 61.1488 158.768 61.1985C157.822 60.7072 156.846 59.9919 155.875 59.5751C155.427 59.4383 154.837 59.6435 154.774 60.11C154.725 60.5952 154.774 61.1363 155.135 61.5282L155.365 61.8143L155.005 61.777C153.418 61.9574 154.6 64.0597 155.11 64.8248C155.608 66.5042 156.771 67.9161 157.847 69.2783C158.96 70.6467 160.155 71.9965 160.889 73.6261C162.077 75.9835 162.717 78.627 164.198 80.8102C165.865 82.9001 168.601 83.7087 170.405 85.6867C173.764 89.7421 177.123 93.8908 180.594 97.8654Z" fill="#AF6152"/>
<path d="M162.033 68.6688C159.813 67.0889 157.859 65.0238 155.465 63.7239C155.434 63.7176 155.409 63.7176 155.409 63.7176C155.446 63.699 155.403 63.7301 155.378 63.7612C154.936 64.3956 155.172 65.2726 155.527 65.9506C156.273 67.2195 158.488 70.1056 159.359 71.3496C157.934 69.6391 156.46 67.9783 155.266 66.0875C154.861 65.3535 154.476 64.0535 155.303 63.4129C155.95 63.388 156.485 63.9913 156.989 64.3148C158.755 65.6769 160.379 67.1884 162.033 68.6688Z" fill="#AF6152"/>
<path d="M164.191 68.109C161.262 65.8449 158.282 63.3755 155.029 61.6091C158.525 63.0086 161.517 65.5028 164.191 68.109Z" fill="#AF6152"/>
<path d="M158.774 61.0368C161.399 62.3368 163.769 64.1406 165.908 66.131C163.482 64.4827 161.175 62.7162 158.774 61.0368Z" fill="#AF6152"/>
<path d="M116.067 41.2518C117.136 31.6826 110.246 23.058 100.677 21.9882C91.1079 20.9184 82.4833 27.8086 81.4136 37.3778C80.3438 46.947 87.2339 55.5716 96.8031 56.6413C106.372 57.7111 114.997 50.821 116.067 41.2518Z" fill="white"/>
<path d="M78.4739 44.8399C81.528 56.0359 93.0785 62.6291 104.262 59.5751C115.458 56.5211 122.051 44.983 118.997 33.787C115.943 22.5972 104.405 15.9978 93.2091 19.0518C82.0193 22.1058 75.4199 33.6564 78.4739 44.8399ZM81.9136 43.9007C79.3821 34.6143 84.8619 25.023 94.1483 22.4915C103.441 19.9537 113.026 25.4398 115.558 34.7262C118.095 44.0189 112.622 53.5977 103.323 56.1355C94.0364 58.667 84.4514 53.1996 81.9136 43.9007Z" fill="#D84B4B"/>
<path d="M116.721 49.0944L120.789 57.4292C121.485 58.8536 120.061 60.3837 118.593 59.799L109.972 56.378L116.721 49.0944Z" fill="#D84B4B"/>
<path d="M83.6743 51.2274L86.8234 54.3765L113.802 27.3982L110.653 24.2491L83.6743 51.2274Z" fill="#D84B4B"/>
<path d="M55.7039 128.55L51.7003 135.917L88.4353 155.882L92.439 148.515L55.7039 128.55Z" fill="#E0E0E0"/>
<path d="M58.4042 158.589L65.7709 162.593L85.7356 125.858L78.3689 121.854L58.4042 158.589Z" fill="#E0E0E0"/>
<path d="M223.76 148.526L227.763 155.892L264.498 135.928L260.495 128.561L223.76 148.526Z" fill="#E0E0E0"/>
<path d="M237.818 121.858L230.451 125.861L250.416 162.596L257.782 158.593L237.818 121.858Z" fill="#E0E0E0"/>
</svg>
