<svg width="312" height="311" viewBox="0 0 312 311" fill="none" xmlns="http://www.w3.org/2000/svg">
<g clip-path="url(#clip0_193_10801)">
<g clip-path="url(#clip1_193_10801)">
<path d="M340 259.67H-29V259.855H340V259.67Z" fill="#EBEBEB"/>
<path d="M298.591 266.696H274.148V266.881H298.591V266.696Z" fill="#EBEBEB"/>
<path d="M104.822 269.191H68.0249V269.375H104.822V269.191Z" fill="#EBEBEB"/>
<path d="M273.41 273.553H251.617V273.737H273.41V273.553Z" fill="#EBEBEB"/>
<path d="M25.6563 272.313H9.71545V272.497H25.6563V272.313Z" fill="#EBEBEB"/>
<path d="M60.5415 272.313H32.2245V272.497H60.5415V272.313Z" fill="#EBEBEB"/>
<path d="M215.44 264.696H146.305V264.881H215.44V264.696Z" fill="#EBEBEB"/>
<path d="M145.913 226.754H3.40563C1.08093 226.754 -0.80835 224.864 -0.80835 222.54V22.2142C-0.80835 19.8894 1.08093 18 3.40563 18H145.913C148.238 18 150.127 19.8894 150.127 22.2142V222.54C150.127 224.864 148.238 226.754 145.913 226.754ZM3.40563 18.1845C1.18425 18.1845 -0.62385 19.9927 -0.62385 22.2142V222.54C-0.62385 224.761 1.18425 226.569 3.40563 226.569H145.913C148.135 226.569 149.943 224.761 149.943 222.54V22.2142C149.943 19.9927 148.135 18.1845 145.913 18.1845H3.40563Z" fill="#EBEBEB"/>
<path d="M305.543 226.754H163.035C160.71 226.754 158.821 224.864 158.821 222.54V22.2142C158.821 19.8894 160.71 18 163.035 18H305.543C307.868 18 309.757 19.8894 309.757 22.2142V222.54C309.757 224.864 307.868 226.754 305.543 226.754ZM163.035 18.1845C160.814 18.1845 159.006 19.9927 159.006 22.2142V222.54C159.006 224.761 160.814 226.569 163.035 226.569H305.543C307.764 226.569 309.572 224.761 309.572 222.54V22.2142C309.572 19.9927 307.764 18.1845 305.543 18.1845H163.035Z" fill="#EBEBEB"/>
<path d="M69.1172 255.493H78.7186L78.7186 134.728H69.1172L69.1172 255.493Z" fill="#F0F0F0"/>
<path d="M22.9848 259.656H76.1873V255.486H22.9848V259.656Z" fill="#F0F0F0"/>
<path d="M69.1172 134.721H20.4535V255.486H69.1172V134.721Z" fill="#FAFAFA"/>
<path d="M63.929 197.609H25.6416V219.174H63.929V197.609Z" fill="#F0F0F0"/>
<path d="M63.929 225.831H25.6416V247.397H63.929V225.831Z" fill="#F0F0F0"/>
<path d="M39.4275 200H50.1285C50.7725 200 51.2946 199.478 51.2946 198.834V198.207C51.2946 197.562 50.7725 197.04 50.1285 197.04H39.4275C38.7835 197.04 38.2615 197.562 38.2615 198.207V198.834C38.2615 199.478 38.7835 200 39.4275 200Z" fill="#FAFAFA"/>
<path d="M39.4275 228.23H50.1285C50.7725 228.23 51.2946 227.708 51.2946 227.064V226.436C51.2946 225.792 50.7725 225.27 50.1285 225.27H39.4275C38.7835 225.27 38.2615 225.792 38.2615 226.436V227.064C38.2615 227.708 38.7835 228.23 39.4275 228.23Z" fill="#FAFAFA"/>
<path d="M63.929 141.378H25.6416V162.943H63.929V141.378Z" fill="#F0F0F0"/>
<path d="M63.929 169.386H25.6416V190.952H63.929V169.386Z" fill="#F0F0F0"/>
<path d="M39.4275 143.776H50.1285C50.7725 143.776 51.2946 143.254 51.2946 142.61V141.983C51.2946 141.339 50.7725 140.817 50.1285 140.817H39.4275C38.7835 140.817 38.2615 141.339 38.2615 141.983V142.61C38.2615 143.254 38.7835 143.776 39.4275 143.776Z" fill="#FAFAFA"/>
<path d="M50.1285 171.777H39.4275C38.7855 171.777 38.2615 171.253 38.2615 170.611V169.984C38.2615 169.342 38.7855 168.818 39.4275 168.818H50.1285C50.7706 168.818 51.2946 169.342 51.2946 169.984V170.611C51.2946 171.253 50.7706 171.777 50.1285 171.777Z" fill="#FAFAFA"/>
<path d="M122.371 255.493H138.26L138.26 134.728H122.371L122.371 255.493Z" fill="#F0F0F0"/>
<path d="M76.2388 259.656H135.308V255.486H76.2388V259.656Z" fill="#F0F0F0"/>
<path d="M122.371 134.721H73.7075V255.486H122.371V134.721Z" fill="#FAFAFA"/>
<path d="M117.183 197.609H78.8956V219.174H117.183V197.609Z" fill="#F0F0F0"/>
<path d="M117.183 225.831H78.8956V247.397H117.183V225.831Z" fill="#F0F0F0"/>
<path d="M92.6889 200H103.39C104.034 200 104.556 199.478 104.556 198.834V198.207C104.556 197.562 104.034 197.04 103.39 197.04H92.6889C92.0449 197.04 91.5228 197.562 91.5228 198.207V198.834C91.5228 199.478 92.0449 200 92.6889 200Z" fill="#FAFAFA"/>
<path d="M92.6889 228.23H103.39C104.034 228.23 104.556 227.708 104.556 227.064V226.436C104.556 225.792 104.034 225.27 103.39 225.27H92.6889C92.0449 225.27 91.5228 225.792 91.5228 226.436V227.064C91.5228 227.708 92.0449 228.23 92.6889 228.23Z" fill="#FAFAFA"/>
<path d="M117.183 141.378H78.8956V162.943H117.183V141.378Z" fill="#F0F0F0"/>
<path d="M117.183 169.386H78.8956V190.952H117.183V169.386Z" fill="#F0F0F0"/>
<path d="M92.6889 143.776H103.39C104.034 143.776 104.556 143.254 104.556 142.61V141.983C104.556 141.339 104.034 140.817 103.39 140.817H92.6889C92.0449 140.817 91.5228 141.339 91.5228 141.983V142.61C91.5228 143.254 92.0449 143.776 92.6889 143.776Z" fill="#FAFAFA"/>
<path d="M103.39 171.777H92.6889C92.0468 171.777 91.5228 171.253 91.5228 170.611V169.984C91.5228 169.342 92.0468 168.818 92.6889 168.818H103.39C104.032 168.818 104.556 169.342 104.556 169.984V170.611C104.556 171.253 104.032 171.777 103.39 171.777Z" fill="#FAFAFA"/>
<path d="M18.9848 96.0991L143.832 96.0991V43.9494L18.9848 43.9494V96.0991Z" fill="#E6E6E6"/>
<path d="M13.6121 96.0991L142.401 96.0991V43.9494L13.6121 43.9494V96.0991Z" fill="#F0F0F0"/>
<path d="M135.596 89.2944V50.7541L20.4165 50.7541V89.2944H135.596Z" fill="#FAFAFA"/>
<path d="M79.1834 89.2944L67.7444 50.7541H52.3129L63.7519 89.2944H79.1834Z" fill="white"/>
<path d="M121.449 89.2944L110.01 50.7541H94.5781L106.017 89.2944H121.449Z" fill="white"/>
<path d="M60.8368 89.2944L49.3978 50.7541H33.9662L45.4052 89.2944H60.8368Z" fill="white"/>
<path d="M253.433 29.757H184.636V138.079H253.433V29.757Z" fill="#EBEBEB"/>
<path d="M248.562 133.208V34.6206L189.507 34.6206V133.208H248.562Z" fill="#FAFAFA"/>
<path d="M217.204 133.208H215.219L220.872 34.5247H222.85L217.204 133.208Z" fill="#E0E0E0"/>
<path d="M220.902 56.651V59.4924L248.562 52.2006V51.1969L220.902 56.651Z" fill="#E0E0E0"/>
<path d="M219.035 88.9918V91.8332L248.562 80.1501V79.1464L219.035 88.9918Z" fill="#E0E0E0"/>
<path d="M216.481 122.373V126.307L248.562 108.557V107.553L216.481 122.373Z" fill="#E0E0E0"/>
<path d="M219.773 71.2273V74.0687L190.245 62.3856V61.3818L219.773 71.2273Z" fill="#E0E0E0"/>
<path d="M217.381 105.59V109.517L190.245 95.0289V94.0252L217.381 105.59Z" fill="#E0E0E0"/>
<path d="M190.238 133.215V34.628H189.507V133.215H190.238Z" fill="#E0E0E0"/>
<path d="M253.433 138.079H255.698V29.757H253.433V138.079Z" fill="#E0E0E0"/>
<path d="M280.48 130.13C280.48 125.643 282.222 118.904 282.222 118.904H268.421C268.421 118.904 270.163 125.643 270.163 130.13C270.163 134.617 264.702 142.684 264.702 149.112C264.702 155.541 270.207 163.556 270.207 163.556H280.421C280.421 163.556 285.927 155.548 285.927 149.112C285.927 142.677 280.466 134.617 280.466 130.13H280.48Z" fill="#E0E0E0"/>
<path d="M289.329 136.426C289.329 132.78 289.986 127.318 289.986 127.318H284.761C284.761 127.318 285.425 132.787 285.425 136.426C285.425 140.064 283.359 146.61 283.359 151.828C283.359 157.046 285.447 163.548 285.447 163.548H289.314C289.314 163.548 291.403 157.046 291.403 151.828C291.403 146.61 289.336 140.071 289.336 136.426H289.329Z" fill="#F0F0F0"/>
<path d="M161.67 259.67H169.515V163.556H161.67V259.67Z" fill="#E6E6E6"/>
<path d="M159.567 259.67H164.186V163.556H159.567V259.67Z" fill="#F0F0F0"/>
<path d="M269.543 163.548H158.135V168.471H269.543V163.548Z" fill="#F0F0F0"/>
<path d="M307.366 259.67H315.211V163.556H307.366V259.67Z" fill="#E6E6E6"/>
<path d="M305.89 259.67H310.51V163.556H305.89V259.67Z" fill="#F0F0F0"/>
<path d="M316.613 163.548H272.901V168.471H316.613V163.548Z" fill="#E6E6E6"/>
<path d="M270.207 259.67H278.052V163.556H270.207V259.67Z" fill="#E6E6E6"/>
<path d="M268.112 259.67H272.731V163.556H268.112V259.67Z" fill="#F0F0F0"/>
<path d="M160.932 163.548L213.839 195.328L266.746 163.548H160.932Z" fill="#FAFAFA"/>
<path d="M165.869 163.548L213.839 192.361L261.809 163.548H165.869Z" fill="#EBEBEB"/>
<path d="M276.672 163.548L295.691 192.361L314.716 163.548H276.672Z" fill="#FAFAFA"/>
<path d="M278.938 163.548L296.185 189.394L313.432 163.548H278.938Z" fill="#EBEBEB"/>
<path d="M155.5 293C234.527 293 298.591 289.26 298.591 284.645C298.591 280.031 234.527 276.291 155.5 276.291C76.4731 276.291 12.4092 280.031 12.4092 284.645C12.4092 289.26 76.4731 293 155.5 293Z" fill="#F5F5F5"/>
<path d="M119.906 277.841L113.98 275.892L116.91 261.633L122.844 263.582L119.906 277.841Z" fill="#FFB573"/>
<path d="M171.522 277.915H165.271L163.721 263.449H169.965L171.522 277.915Z" fill="#FFB573"/>
<path d="M164.762 277.191H172.378C172.636 277.191 172.858 277.368 172.91 277.619L174.142 283.169C174.267 283.745 173.817 284.291 173.227 284.276C170.777 284.232 168.991 284.092 165.906 284.092C164.009 284.092 158.282 284.291 155.662 284.291C153.043 284.291 152.696 281.701 153.773 281.465C158.585 280.409 162.209 278.963 163.751 277.575C164.031 277.324 164.393 277.191 164.762 277.191Z" fill="#263238"/>
<path d="M114.083 274.955L120.659 276.771C120.903 276.837 121.072 277.066 121.058 277.324L120.77 283.007C120.74 283.597 120.172 284.003 119.611 283.841C117.249 283.147 113.862 282.062 110.881 281.243C107.397 280.284 106.748 279.952 102.659 278.822C100.187 278.143 100.187 275.457 101.287 275.509C106.283 275.774 107.744 276.416 112.504 275.029C113.021 274.881 113.567 274.815 114.083 274.962V274.955Z" fill="#263238"/>
<path d="M144.843 88.1652C144.445 88.6892 144.135 89.0656 143.781 89.5011C143.441 89.9218 143.087 90.3277 142.733 90.7262C142.024 91.5307 141.301 92.313 140.555 93.0806C139.079 94.6304 137.5 96.0844 135.832 97.4793C132.482 100.232 128.77 102.778 124.209 104.387C123.072 104.786 121.869 105.103 120.615 105.31C120.297 105.361 119.987 105.413 119.67 105.45L118.696 105.539C118.43 105.576 117.921 105.576 117.471 105.568C117.058 105.539 116.63 105.502 116.268 105.435C114.777 105.184 113.604 104.727 112.504 104.254C111.412 103.782 110.423 103.251 109.478 102.682C107.589 101.561 105.869 100.328 104.231 99.0144C102.585 97.7007 101.065 96.3353 99.5743 94.8076L102.408 91.0657C105.877 92.7927 109.419 94.6009 112.814 95.9146C113.663 96.232 114.497 96.5198 115.279 96.7412C116.054 96.9626 116.814 97.0807 117.308 97.0881C117.434 97.0881 117.515 97.0733 117.596 97.0733C117.648 97.0512 117.641 97.0586 117.869 97.0143L118.386 96.9257L118.917 96.8003C119.264 96.7338 119.633 96.5862 119.987 96.4829C120.349 96.3353 120.711 96.2246 121.08 96.0549C122.548 95.4497 124.024 94.6009 125.456 93.5972C126.902 92.623 128.312 91.4864 129.685 90.276C131.065 89.073 132.386 87.7741 133.685 86.4456C134.334 85.774 134.969 85.095 135.581 84.4012L136.496 83.3606L137.338 82.3716L144.836 88.1579L144.843 88.1652Z" fill="#FFB573"/>
<path d="M148.275 85.0729C148.74 91.0288 135.331 103.177 135.331 103.177L123.478 92.896C123.478 92.896 128.467 87.6117 134.076 82.2978C137.928 78.6372 147.773 78.6372 148.275 85.0729Z" fill="white"/>
<path opacity="0.4" d="M148.275 85.0729C148.74 91.0288 135.331 103.177 135.331 103.177L123.478 92.896C123.478 92.896 128.467 87.6117 134.076 82.2978C137.928 78.6372 147.773 78.6372 148.275 85.0729Z" fill="#DFE30C"/>
<path opacity="0.2" d="M142.231 88.1357C136.718 88.6376 133.198 93.0658 131.663 97.959C131.493 98.5051 131.345 99.066 131.227 99.6196L135.331 103.177C135.331 103.177 141.426 97.649 145.257 92.2244C145.449 89.6561 144.718 87.9143 142.231 88.1357Z" fill="black"/>
<path d="M103.862 93.7153L101.833 88.5638L94.9103 90.6893C94.9103 90.6893 97.2645 93.2356 99.8696 95.0068L103.862 93.7153Z" fill="#FFB573"/>
<path d="M98.3419 84.5341L92.6298 86.8294L94.9102 90.6893L101.833 88.5637L98.3419 84.5341Z" fill="#FFB573"/>
<path opacity="0.2" d="M116.91 261.641L115.146 270.195L121.168 271.73L122.844 263.589L116.91 261.641Z" fill="black"/>
<path opacity="0.2" d="M169.965 263.456H163.721L164.526 270.911H170.769L169.965 263.456Z" fill="black"/>
<path d="M173.655 82.1945C171.729 89.0951 170.496 96.1212 169.684 102.741C169.094 107.583 168.74 112.196 168.518 116.388C168.002 126.204 168.216 133.687 167.921 136.226C163.035 135.887 144.637 134.61 134.6 133.909C130.061 98.387 138.725 80.0763 138.725 80.0763C138.725 80.0763 142.415 79.3383 146.703 79.0873C147.264 79.0504 147.84 79.0283 148.423 79.0209C152.194 78.9397 158.349 79.508 162.592 80.0099C163.485 80.1132 164.386 80.2461 165.264 80.3863C169.729 81.1096 173.655 82.2019 173.655 82.2019V82.1945Z" fill="white"/>
<path opacity="0.4" d="M173.655 82.1945C171.729 89.0951 170.496 96.1212 169.684 102.741C169.094 107.583 168.74 112.196 168.518 116.388C168.002 126.204 168.216 133.687 167.921 136.226C163.035 135.887 144.637 134.61 134.6 133.909C130.061 98.387 138.725 80.0763 138.725 80.0763C138.725 80.0763 142.415 79.3383 146.703 79.0873C147.264 79.0504 147.84 79.0283 148.423 79.0209C152.194 78.9397 158.349 79.508 162.592 80.0099C163.485 80.1132 164.386 80.2461 165.264 80.3863C169.729 81.1096 173.655 82.2019 173.655 82.2019V82.1945Z" fill="#DFE30C"/>
<path opacity="0.2" d="M165.234 91.1838C165.212 96.7707 166.755 101.487 169.36 105.62C169.456 104.668 169.566 103.708 169.684 102.741C170.127 99.1029 170.703 95.3389 171.463 91.538L165.242 91.1838H165.234Z" fill="black"/>
<path d="M162.304 63.9576C161.094 68.4522 159.618 76.7404 162.592 80.0025C160.083 82.2461 156.482 84.0543 151.367 83.582C147.448 83.2203 147.448 80.4675 148.423 79.0135C153.589 78.1574 153.721 74.3713 153.087 70.7697L162.297 63.9502L162.304 63.9576Z" fill="#FFB573"/>
<path opacity="0.2" d="M158.548 66.74L153.094 70.7697C153.249 71.6258 153.352 72.4819 153.352 73.3159C155.315 73.1683 158.127 71.2273 158.474 69.205C158.651 68.2013 158.673 67.2197 158.541 66.74H158.548Z" fill="black"/>
<path d="M152.4 57.2341C150.924 59.3228 147.057 55.4776 147.198 52.0236C152.814 51.2781 150.135 47.182 155.242 48.2301C159.478 49.1009 154.017 54.9462 152.4 57.2341Z" fill="#263238"/>
<path d="M166.378 58.5847C164.496 64.489 163.699 68.0463 159.898 70.3637C154.172 73.8473 147.463 69.2346 147.537 62.8874C147.603 57.175 150.666 48.4736 157.138 47.5658C163.515 46.6728 168.26 52.6804 166.378 58.5921V58.5847Z" fill="#FFB573"/>
<path d="M162.836 63.9576C162.836 63.9576 162.319 61.3154 162.592 59.522C162.858 57.8245 163.677 56.1713 163.677 56.1713C163.677 56.1713 160.142 54.0827 160.061 51.566C160.061 51.566 153.736 53.4332 150.371 50.5917C146.998 47.7503 150.009 44.4587 148.282 43.204C152.415 42.7981 153.67 45.3148 156.282 44.7686C158.799 44.2446 156.585 42.3848 156.932 40.3625C164.806 47.1451 168.23 43.9642 172.053 47.8462C174.496 50.326 171.928 54.9831 171.928 54.9831C171.928 54.9831 175.825 61.6106 162.836 63.9576Z" fill="#263238"/>
<path d="M170.673 54.8281C170.673 54.8281 174.54 55.6252 174.644 51.5734C176.636 55.699 174.142 56.3116 170.673 54.8281Z" fill="#263238"/>
<path d="M153.227 64.2159C155.707 64.8211 157.256 63.404 157.323 63.345C157.389 63.286 157.389 63.1826 157.323 63.1236C157.264 63.0572 157.161 63.0572 157.101 63.1162C157.087 63.131 155.603 64.4816 153.301 63.9133C153.212 63.8912 153.131 63.9428 153.109 64.0314C153.087 64.1126 153.138 64.2011 153.22 64.2233L153.227 64.2159Z" fill="#263238"/>
<path d="M167.426 65.1089C166.231 66.275 164.607 66.7769 163.234 66.7326C161.168 66.6735 160.747 64.6735 161.839 63.0498C162.821 61.5885 165.072 59.8541 166.895 60.7028C168.695 61.5442 168.799 63.7731 167.426 65.1089Z" fill="#FFB573"/>
<path d="M113.493 267.124L123.685 269.929C123.685 269.929 136.452 229.684 139.589 207.58C140.423 201.72 141.707 193.476 143.662 184.693C146.135 173.623 149.242 161.659 151.78 152.286C154.459 142.418 156.504 135.429 156.504 135.429L134.6 133.901C134.6 133.901 125.633 182.973 123.537 201.919C121.36 221.617 113.493 267.124 113.493 267.124Z" fill="#DFE30C"/>
<path opacity="0.3" d="M113.493 267.124L123.685 269.929C123.685 269.929 136.452 229.684 139.589 207.58C140.423 201.72 141.707 193.476 143.662 184.693C146.135 173.623 149.242 161.659 151.78 152.286C154.459 142.418 156.504 135.429 156.504 135.429L134.6 133.901C134.6 133.901 125.633 182.973 123.537 201.919C121.36 221.617 113.493 267.124 113.493 267.124Z" fill="black"/>
<path opacity="0.2" d="M143.662 184.686C146.135 173.615 149.242 161.652 151.78 152.279L149.507 147.385C144.076 153.843 142.615 173.829 143.662 184.686Z" fill="black"/>
<path d="M146.415 134.721C146.415 134.721 148.777 188.191 151.419 206.295C154.305 226.126 161.64 269.464 161.64 269.464H173.079C173.079 269.464 169.293 223.861 167.625 204.391C165.721 182.221 167.928 136.219 167.928 136.219L146.43 134.721H146.415Z" fill="#DFE30C"/>
<path opacity="0.3" d="M146.415 134.721C146.415 134.721 148.777 188.191 151.419 206.295C154.305 226.126 161.64 269.464 161.64 269.464H173.079C173.079 269.464 169.293 223.861 167.625 204.391C165.721 182.221 167.928 136.219 167.928 136.219L146.43 134.721H146.415Z" fill="black"/>
<path d="M160.267 269.715H173.736V265.693L158.681 265.427L160.267 269.715Z" fill="#DFE30C"/>
<path d="M112.785 267.183L124.297 270.357L125.95 266.386L112.836 262.755L112.785 267.183Z" fill="#DFE30C"/>
<path d="M156.858 57.9721C156.732 58.4592 156.378 58.7914 156.053 58.7102C155.736 58.629 155.574 58.1714 155.699 57.6769C155.825 57.1824 156.179 56.8577 156.504 56.9389C156.828 57.0201 156.983 57.4776 156.858 57.9721Z" fill="#263238"/>
<path d="M151.338 56.5846C151.212 57.0717 150.858 57.4038 150.541 57.3226C150.223 57.2414 150.061 56.7839 150.186 56.2894C150.312 55.8023 150.666 55.4702 150.991 55.5513C151.308 55.6325 151.471 56.0901 151.345 56.5846H151.338Z" fill="#263238"/>
<path d="M153.035 57.2636C153.035 57.2636 151.212 59.8025 149.648 60.8579C150.312 61.8837 151.965 61.773 151.965 61.773L153.028 57.2636H153.035Z" fill="#ED893E"/>
<path d="M159.02 56.6141C158.91 56.6068 158.814 56.5403 158.769 56.437C158.253 55.2193 157.183 55.02 157.175 55.02C157.013 54.9905 156.91 54.8355 156.939 54.6731C156.969 54.5107 157.116 54.4 157.286 54.4369C157.345 54.4443 158.688 54.7026 159.323 56.2082C159.389 56.3558 159.323 56.533 159.168 56.5994C159.124 56.6215 159.079 56.6289 159.035 56.6215L159.02 56.6141Z" fill="#263238"/>
<path d="M149.448 54.0827C149.389 54.0827 149.33 54.0531 149.279 54.0162C149.153 53.9129 149.138 53.721 149.242 53.6029C150.297 52.3483 151.648 52.4959 151.707 52.5033C151.869 52.5254 151.987 52.673 151.965 52.8354C151.943 52.9977 151.788 53.1084 151.64 53.0937C151.596 53.0937 150.541 52.983 149.692 53.9793C149.626 54.0531 149.537 54.09 149.441 54.0827H149.448Z" fill="#263238"/>
<path d="M162.696 278.284C162.223 278.284 161.773 278.202 161.493 277.966C161.271 277.782 161.168 277.516 161.19 277.184C161.205 276.94 161.338 276.822 161.441 276.763C162.135 276.409 164.149 277.649 164.371 277.789C164.423 277.819 164.445 277.878 164.437 277.937C164.43 277.996 164.386 278.04 164.327 278.055C163.891 278.158 163.271 278.276 162.696 278.276V278.284ZM161.766 276.992C161.692 276.992 161.626 277.007 161.574 277.029C161.537 277.051 161.485 277.088 161.478 277.206C161.463 277.442 161.53 277.619 161.677 277.745C162.017 278.033 162.836 278.07 163.891 277.856C163.19 277.45 162.238 276.992 161.758 276.992H161.766Z" fill="#DFE30C"/>
<path d="M164.297 278.062C164.297 278.062 164.245 278.062 164.223 278.047C163.574 277.693 162.327 276.328 162.459 275.634C162.482 275.509 162.577 275.287 162.932 275.243C163.161 275.213 163.375 275.28 163.559 275.435C164.282 276.025 164.437 277.833 164.437 277.907C164.437 277.959 164.415 278.011 164.371 278.04C164.349 278.055 164.319 278.062 164.29 278.062H164.297ZM163.035 275.531C163.035 275.531 162.991 275.531 162.969 275.531C162.777 275.553 162.762 275.641 162.755 275.678C162.673 276.092 163.47 277.125 164.113 277.612C164.039 277.088 163.839 276.033 163.375 275.656C163.271 275.568 163.153 275.523 163.035 275.523V275.531Z" fill="#DFE30C"/>
<path d="M113.264 275.619C113.264 275.619 113.249 275.619 113.235 275.619C112.209 275.545 110.423 275.309 109.921 274.542C109.774 274.313 109.744 274.055 109.847 273.774C109.906 273.612 110.024 273.501 110.187 273.457C111.021 273.258 113.109 275.147 113.345 275.361C113.39 275.405 113.404 275.472 113.382 275.531C113.36 275.582 113.316 275.612 113.264 275.619ZM110.297 273.737C110.297 273.737 110.268 273.737 110.253 273.737C110.187 273.752 110.15 273.789 110.12 273.863C110.054 274.055 110.069 274.217 110.165 274.372C110.445 274.8 111.419 275.132 112.807 275.28C111.965 274.557 110.777 273.678 110.29 273.73L110.297 273.737Z" fill="#DFE30C"/>
<path d="M113.154 275.575C113.154 275.575 113.139 275.56 113.139 275.553C112.578 274.697 111.67 273.132 111.98 272.269C112.069 272.01 112.261 271.833 112.541 271.745C112.711 271.693 112.866 271.715 112.999 271.826C113.663 272.372 113.441 275.176 113.412 275.494C113.412 275.553 113.36 275.612 113.301 275.627C113.25 275.641 113.198 275.627 113.161 275.582L113.154 275.575ZM112.844 272.077C112.844 272.077 112.822 272.055 112.814 272.047C112.763 272.003 112.703 271.996 112.63 272.018C112.438 272.077 112.32 272.187 112.253 272.365C112.084 272.852 112.416 273.826 113.146 275.014C113.213 273.907 113.176 272.431 112.844 272.077Z" fill="#DFE30C"/>
<path d="M174.577 85.7888C176.016 87.8184 177.241 89.7815 178.489 91.8259C179.736 93.8481 180.887 95.9368 182.009 98.0549C184.208 102.313 186.23 106.705 187.647 111.613C187.817 112.233 187.979 112.853 188.127 113.495C188.201 113.812 188.275 114.137 188.334 114.462L188.43 114.949L188.481 115.2L188.54 115.598C188.784 117.679 188.452 119.207 188.09 120.595C187.323 123.347 186.208 125.584 185.013 127.746C183.81 129.894 182.496 131.909 181.094 133.842C179.692 135.783 178.238 137.621 176.614 139.429L172.777 136.735C174.777 132.728 176.813 128.617 178.378 124.587C178.769 123.584 179.123 122.58 179.419 121.598C179.729 120.624 179.972 119.665 180.098 118.794C180.23 117.945 180.216 117.148 180.12 116.934C180.12 116.927 180.112 116.912 180.105 116.904L180.061 116.735L179.965 116.38C179.906 116.144 179.839 115.908 179.758 115.672C179.618 115.2 179.448 114.712 179.278 114.233C177.884 110.343 175.869 106.395 173.714 102.542C172.636 100.601 171.485 98.697 170.341 96.7781C169.197 94.8814 167.95 92.9551 166.791 91.169L174.577 85.7888Z" fill="#FFB573"/>
<path d="M173.655 82.1945C179.507 83.3754 184.644 97.6933 184.644 97.6933L172.43 107.642C172.43 107.642 168.43 100.365 165.227 93.3462C161.736 85.7002 166.57 80.7701 173.662 82.1945H173.655Z" fill="white"/>
<path opacity="0.4" d="M173.655 82.1945C179.507 83.3754 184.644 97.6933 184.644 97.6933L172.43 107.642C172.43 107.642 168.43 100.365 165.227 93.3462C161.736 85.7002 166.57 80.7701 173.662 82.1945H173.655Z" fill="#DFE30C"/>
<path d="M91.9502 102.469L88.9998 113.108L89.7038 113.304L92.6542 102.664L91.9502 102.469Z" fill="#DFE30C"/>
<path d="M87.9212 117.031L86.6451 121.632L87.3492 121.827L88.6252 117.226L87.9212 117.031Z" fill="#DFE30C"/>
<path d="M171.122 97.5149L109.772 80.5231C105.109 79.2318 100.283 81.9649 98.9914 86.6276L82.0004 147.981C80.7092 152.644 83.4421 157.471 88.1046 158.762L149.455 175.754C154.118 177.045 158.944 174.312 160.236 169.649L177.226 108.296C178.518 103.633 175.785 98.8063 171.122 97.5149Z" fill="#DFE30C"/>
<path d="M134.504 114.137C134.179 114.137 133.855 114.092 133.53 114.004C131.589 113.465 130.445 111.458 130.984 109.509L133.928 98.8815C134.467 96.9404 136.482 95.7965 138.423 96.3352C140.364 96.874 141.508 98.8815 140.969 100.83L138.024 111.458C137.574 113.074 136.105 114.137 134.511 114.137H134.504Z" fill="white"/>
<path d="M121.788 158.618C121.596 158.618 121.397 158.589 121.205 158.537C120.039 158.212 119.353 157.009 119.678 155.843L122.622 145.215C122.947 144.049 124.15 143.37 125.316 143.688C126.482 144.012 127.168 145.215 126.844 146.382L123.899 157.009C123.633 157.976 122.748 158.618 121.788 158.618Z" fill="white"/>
<path d="M145.559 120.211C145.175 120.211 144.806 120.011 144.607 119.657C144.312 119.133 144.496 118.462 145.02 118.166L154.622 112.727C155.146 112.432 155.817 112.616 156.113 113.14C156.408 113.664 156.223 114.336 155.699 114.631L146.098 120.07C145.928 120.166 145.744 120.211 145.559 120.211Z" fill="white"/>
<path d="M104.084 145.156C103.191 145.156 102.327 144.691 101.855 143.857C101.161 142.632 101.589 141.068 102.822 140.374L112.423 134.935C113.648 134.241 115.213 134.669 115.906 135.901C116.6 137.127 116.172 138.691 114.94 139.385L105.338 144.824C104.94 145.053 104.512 145.156 104.084 145.156Z" fill="white"/>
<path d="M157.899 137.437C157.773 137.437 157.64 137.422 157.507 137.385L146.88 134.44C146.105 134.226 145.648 133.422 145.862 132.647C146.076 131.872 146.88 131.414 147.655 131.628L158.282 134.573C159.057 134.787 159.515 135.591 159.301 136.366C159.124 137.016 158.533 137.437 157.891 137.437H157.899Z" fill="white"/>
<path d="M111.965 126.174C111.707 126.174 111.449 126.137 111.183 126.071L100.556 123.126C98.9988 122.698 98.0911 121.089 98.5191 119.532C98.9471 117.974 100.556 117.067 102.113 117.495L112.74 120.44C114.298 120.868 115.205 122.476 114.777 124.034C114.416 125.325 113.242 126.174 111.965 126.174Z" fill="white"/>
<path d="M144.076 155.504C143.441 155.504 142.821 155.172 142.489 154.581L137.05 144.979C136.556 144.101 136.866 142.987 137.736 142.492C138.615 141.998 139.729 142.308 140.223 143.178L145.662 152.78C146.157 153.659 145.847 154.773 144.976 155.267C144.688 155.43 144.386 155.504 144.076 155.504Z" fill="white"/>
<path d="M120.593 115.487C119.449 115.487 118.334 114.889 117.729 113.819L112.29 104.217C111.397 102.638 111.951 100.631 113.53 99.7376C115.109 98.8445 117.117 99.3981 118.01 100.977L123.449 110.579C124.342 112.159 123.788 114.166 122.209 115.059C121.7 115.347 121.139 115.487 120.593 115.487Z" fill="white"/>
<path d="M174.991 135.304L168.659 135.075L171.729 142.44C171.729 142.44 177.168 141.437 176.954 138.492L174.998 135.296L174.991 135.304Z" fill="#FFB573"/>
<path d="M164.415 138.116L165.943 143.747L171.721 142.44L168.659 135.075L164.415 138.116Z" fill="#FFB573"/>
</g>
</g>
<defs>
<clipPath id="clip0_193_10801">
<rect width="311" height="311" fill="white" transform="translate(0.5)"/>
</clipPath>
<clipPath id="clip1_193_10801">
<rect width="369" height="275" fill="white" transform="translate(-29 18)"/>
</clipPath>
</defs>
</svg>
