<svg width="47" height="61" viewBox="0 0 47 61" fill="none" xmlns="http://www.w3.org/2000/svg">
<g clip-path="url(#clip0_845_34844)">
<path d="M2.9449 33.7057L4.67382 35.8827L-1.29786 40.6253C-2.955 41.9414 -3.24634 44.3028 -1.97846 45.8993L2.632 51.7045C-3.12859 56.2795 2.76443 63.4329 8.39509 58.961L13.0056 64.7662C13.6169 65.5361 14.5179 66.0245 15.5101 66.1242C16.5024 66.2238 17.5047 65.9264 18.2966 65.2975L23.9697 60.792C23.5901 60.9001 29.4184 56.5454 32.0315 54.3894L37.7046 49.8839C38.4965 49.2549 39.0131 48.346 39.1407 47.3569C39.2684 46.3679 38.9966 45.3797 38.3852 44.6099L34.4017 39.5751L32.2623 41.2517C30.0229 43.0302 26.1374 42.1032 24.4085 39.9263C22.6795 37.7493 22.7951 34.1748 24.7296 32.1598L26.8252 30.2253L23.4012 25.7429C22.7898 24.9731 21.8889 24.4847 20.8966 24.385C19.9043 24.2854 18.902 24.5827 18.1101 25.2117L12.1384 29.9543L10.4095 27.7774C9.64527 26.8151 8.51911 26.2045 7.27877 26.08C6.03844 25.9554 4.78552 26.3271 3.79566 27.1133C2.80579 27.8994 2.16005 29.0356 2.0005 30.2719C1.84095 31.5083 2.18066 32.7434 2.9449 33.7057Z" fill="#D84B4B"/>
</g>
<path fill-rule="evenodd" clip-rule="evenodd" d="M43.8978 30.8653C44.0181 32.7106 44.2989 35.639 44.4994 37.4041C44.9405 41.0547 46.0634 51.4046 46.2639 53.8516C46.4243 55.9778 46.1035 56.7801 44.9806 57.0609C41.251 57.9836 37.6418 58.3045 36.1981 57.783C35.2356 57.422 34.9148 57.0609 34.3132 55.5766L33.832 54.4534L33.1101 54.8947C32.8427 55.0602 32.1994 55.3593 31.4123 55.6968C31.9778 55.25 32.4978 54.8331 32.9305 54.4757L38.6693 49.918C39.4704 49.2818 39.9859 48.3534 40.1025 47.3371C40.2191 46.3208 39.9272 45.2998 39.291 44.4987L34.7332 38.7599L32.4679 40.559C31.9317 40.9848 31.3403 41.289 30.7259 41.4752C30.8832 41.2258 31.0511 40.9629 31.2253 40.6936C31.6204 40.0349 32.0244 39.385 32.3584 38.8475C32.7364 38.2393 33.025 37.7751 33.1101 37.6047L33.431 37.003L30.7842 36.9227C28.8592 36.8425 27.8967 36.7222 27.2551 36.4815C26.3221 36.1225 25.2285 35.0248 24.664 33.9643C24.9883 33.3801 25.4321 32.8477 25.9911 32.4038L28.2564 30.6047L23.6986 24.8658C23.0624 24.0648 22.1341 23.5492 21.1178 23.4327C20.1014 23.3161 19.0805 23.608 18.2794 24.2442L12.2385 29.0418L10.4394 26.7765C9.94847 26.1584 9.31838 25.6763 8.60918 25.3635C11.3778 18.5255 16.5201 10.8608 23.2047 3.46612C24.3276 2.22253 25.5708 0.938821 26.0119 0.577778C26.4404 0.213403 26.64 0.0437124 26.8614 0.00751935C27.0544 -0.0240269 27.2639 0.0458455 27.6561 0.17662C28.1374 0.296967 29.6613 0.898705 31.0248 1.46033C34.2731 2.82427 41.8526 5.47191 43.6171 5.91319C45.5019 6.39458 45.5822 6.55504 45.5421 9.52362C45.502 13.3346 44.8603 21.5584 44.4994 22.8822C44.4192 23.2432 44.0582 23.8049 43.6973 24.1258L43.0958 24.6874L39.3261 24.6473C37.2407 24.6072 34.4736 24.5269 33.1502 24.4467L30.7441 24.3264L30.7039 22.3206C30.6237 20.1944 30.4232 19.5927 30.0222 20.5154C29.6613 21.4781 27.1749 26.5729 26.8541 27.0141C26.6936 27.2548 26.6134 27.4955 26.6535 27.5356C26.6937 27.5758 27.8566 27.5356 29.2602 27.4554C30.6237 27.3351 34.3934 27.2147 37.6418 27.1345C42.4541 27.0542 43.5369 27.0944 43.6171 27.2949C43.6572 27.4153 43.7775 29.0199 43.8978 30.8653Z" fill="#0066FF"/>
<defs>
<clipPath id="clip0_845_34844">
<rect x="24.4182" y="60.418" width="38.9297" height="21.2061" rx="4.73488" transform="rotate(-128.456 24.4182 60.418)" fill="white"/>
</clipPath>
</defs>
</svg>
