<svg width="129" height="101" viewBox="0 0 129 101" fill="none" xmlns="http://www.w3.org/2000/svg">
<g clip-path="url(#clip0_7_34136)">
<path d="M43.1102 34.2057L44.8391 36.3827L38.8674 41.1253C37.2103 42.4414 36.9189 44.8028 38.1868 46.3993L42.7973 52.2045C37.0367 56.7795 42.9297 63.9329 48.5604 59.461L53.1708 65.2662C53.7822 66.0361 54.6832 66.5245 55.6754 66.6242C56.6677 66.7238 57.67 66.4264 58.4619 65.7975L64.135 61.292C63.7554 61.4001 69.5837 57.0454 72.1968 54.8894L77.8699 50.3839C78.6618 49.7549 79.1784 48.846 79.306 47.8569C79.4336 46.8679 79.1619 45.8797 78.5505 45.1099L74.567 40.0751L72.4275 41.7517C70.1882 43.5302 66.3027 42.6032 64.5738 40.4263C62.8448 38.2493 62.9604 34.6748 64.8948 32.6598L66.9905 30.7253L63.5665 26.2429C62.9551 25.4731 62.0541 24.9847 61.0619 24.885C60.0696 24.7854 59.0673 25.0827 58.2754 25.7117L52.3037 30.4543L50.5748 28.2774C49.8106 27.3151 48.6844 26.7045 47.4441 26.58C46.2037 26.4554 44.9508 26.8271 43.9609 27.6133C42.9711 28.3994 42.3253 29.5356 42.1658 30.7719C42.0062 32.0083 42.3459 33.2434 43.1102 34.2057Z" fill="#D84B4B"/>
</g>
<path fill-rule="evenodd" clip-rule="evenodd" d="M84.0631 31.3653C84.1834 33.2106 84.4641 36.139 84.6647 37.9041C85.1058 41.5547 86.2287 51.9046 86.4292 54.3516C86.5896 56.4778 86.2688 57.2801 85.1459 57.5609C81.4163 58.4836 77.807 58.8045 76.3633 58.283C75.4009 57.922 75.08 57.5609 74.4785 56.0766L73.9973 54.9534L73.2754 55.3947C73.008 55.5602 72.3647 55.8593 71.5776 56.1967C72.1431 55.75 72.6631 55.3331 73.0958 54.9757L78.8346 50.418C79.6357 49.7818 80.1512 48.8534 80.2678 47.8371C80.3844 46.8208 80.0925 45.7998 79.4562 44.9987L74.8985 39.2599L72.6332 41.059C72.097 41.4848 71.5055 41.789 70.8912 41.9752C71.0485 41.7258 71.2164 41.4629 71.3906 41.1936C71.7857 40.5349 72.1896 39.885 72.5237 39.3475C72.9017 38.7393 73.1903 38.2751 73.2754 38.1047L73.5962 37.503L70.9494 37.4227C69.0245 37.3425 68.062 37.2222 67.4204 36.9815C66.4874 36.6225 65.3938 35.5248 64.8293 34.4643C65.1536 33.8801 65.5974 33.3477 66.1563 32.9038L68.4217 31.1047L63.8639 25.3658C63.2277 24.5648 62.2993 24.0492 61.283 23.9327C60.2667 23.8161 59.2457 24.108 58.4447 24.7442L52.4038 29.5418L50.6047 27.2765C50.1138 26.6584 49.4837 26.1763 48.7745 25.8635C51.543 19.0255 56.6854 11.3608 63.37 3.96612C64.4929 2.72253 65.736 1.43882 66.1772 1.07778C66.6057 0.713403 66.8053 0.543712 67.0267 0.507519C67.2197 0.475973 67.4292 0.545846 67.8214 0.67662C68.3026 0.796967 69.8266 1.39871 71.1901 1.96033C74.4384 3.32427 82.0179 5.97191 83.7824 6.41319C85.6672 6.89458 85.7474 7.05504 85.7073 10.0236C85.6672 13.8346 85.0256 22.0584 84.6647 23.3822C84.5845 23.7432 84.2235 24.3049 83.8626 24.6258L83.2611 25.1874L79.4914 25.1473C77.406 25.1072 74.6389 25.0269 73.3155 24.9467L70.9093 24.8264L70.8692 22.8206C70.789 20.6944 70.5885 20.0927 70.1875 21.0154C69.8266 21.9781 67.3402 27.0729 67.0193 27.5141C66.8589 27.7548 66.7787 27.9955 66.8188 28.0356C66.8589 28.0758 68.0219 28.0356 69.4255 27.9554C70.789 27.8351 74.5587 27.7147 77.807 27.6345C82.6194 27.5542 83.7022 27.5944 83.7824 27.7949C83.8225 27.9153 83.9428 29.5199 84.0631 31.3653Z" fill="#0066FF"/>
<path d="M22.5456 76.56C23.0123 76.56 23.4256 76.52 23.7856 76.44C24.1456 76.36 24.4856 76.2533 24.8056 76.12V73.91H23.3656C23.1523 73.91 22.9856 73.8533 22.8656 73.74C22.7456 73.6267 22.6856 73.4833 22.6856 73.31V71.45H27.8656V77.6C27.4923 77.8733 27.1023 78.11 26.6956 78.31C26.2956 78.5033 25.8656 78.6633 25.4056 78.79C24.9523 78.9167 24.4656 79.01 23.9456 79.07C23.4323 79.13 22.879 79.16 22.2856 79.16C21.219 79.16 20.2323 78.9733 19.3256 78.6C18.419 78.22 17.6323 77.7 16.9656 77.04C16.3056 76.3733 15.7856 75.5867 15.4056 74.68C15.0323 73.7667 14.8456 72.7767 14.8456 71.71C14.8456 70.6233 15.0256 69.6267 15.3856 68.72C15.7456 67.8067 16.259 67.02 16.9256 66.36C17.599 65.7 18.409 65.1867 19.3556 64.82C20.309 64.4533 21.3723 64.27 22.5456 64.27C23.1523 64.27 23.7223 64.32 24.2556 64.42C24.789 64.52 25.279 64.6567 25.7256 64.83C26.179 65.0033 26.5923 65.21 26.9656 65.45C27.339 65.69 27.6723 65.95 27.9656 66.23L26.9856 67.72C26.8923 67.86 26.779 67.97 26.6456 68.05C26.519 68.13 26.379 68.17 26.2256 68.17C26.0256 68.17 25.819 68.1033 25.6056 67.97C25.339 67.81 25.0856 67.6733 24.8456 67.56C24.6123 67.44 24.3723 67.3433 24.1256 67.27C23.879 67.1967 23.619 67.1433 23.3456 67.11C23.0723 67.0767 22.7656 67.06 22.4256 67.06C21.7923 67.06 21.2223 67.1733 20.7156 67.4C20.209 67.62 19.7756 67.9333 19.4156 68.34C19.0623 68.7467 18.789 69.2367 18.5956 69.81C18.4023 70.3767 18.3056 71.01 18.3056 71.71C18.3056 72.4833 18.4123 73.17 18.6256 73.77C18.839 74.37 19.1323 74.8767 19.5056 75.29C19.8856 75.7033 20.3323 76.02 20.8456 76.24C21.3656 76.4533 21.9323 76.56 22.5456 76.56ZM34.5239 79V68.63H36.3639C36.5173 68.63 36.6439 68.6433 36.7439 68.67C36.8506 68.6967 36.9373 68.74 37.0039 68.8C37.0773 68.8533 37.1306 68.9267 37.1639 69.02C37.2039 69.1133 37.2373 69.2267 37.2639 69.36L37.4339 70.33C37.8139 69.7433 38.2406 69.28 38.7139 68.94C39.1873 68.6 39.7039 68.43 40.2639 68.43C40.7373 68.43 41.1173 68.5433 41.4039 68.77L41.0039 71.05C40.9773 71.19 40.9239 71.29 40.8439 71.35C40.7639 71.4033 40.6573 71.43 40.5239 71.43C40.4106 71.43 40.2773 71.4167 40.1239 71.39C39.9706 71.3567 39.7773 71.34 39.5439 71.34C38.7306 71.34 38.0906 71.7733 37.6239 72.64V79H34.5239ZM54.3503 79C54.057 79 53.8337 78.96 53.6803 78.88C53.5337 78.8 53.4103 78.6333 53.3103 78.38L53.0903 77.81C52.8303 78.03 52.5803 78.2233 52.3403 78.39C52.1003 78.5567 51.8503 78.7 51.5903 78.82C51.337 78.9333 51.0637 79.0167 50.7703 79.07C50.4837 79.13 50.1637 79.16 49.8103 79.16C49.337 79.16 48.907 79.1 48.5203 78.98C48.1337 78.8533 47.8037 78.67 47.5303 78.43C47.2637 78.19 47.057 77.8933 46.9103 77.54C46.7637 77.18 46.6903 76.7667 46.6903 76.3C46.6903 75.9333 46.7837 75.5567 46.9703 75.17C47.157 74.7833 47.4803 74.4333 47.9403 74.12C48.4003 73.8 49.0203 73.5333 49.8003 73.32C50.5803 73.1067 51.5637 72.9867 52.7503 72.96V72.52C52.7503 71.9133 52.6237 71.4767 52.3703 71.21C52.1237 70.9367 51.7703 70.8 51.3103 70.8C50.9437 70.8 50.6437 70.84 50.4103 70.92C50.177 71 49.967 71.09 49.7803 71.19C49.6003 71.29 49.4237 71.38 49.2503 71.46C49.077 71.54 48.8703 71.58 48.6303 71.58C48.417 71.58 48.2337 71.53 48.0803 71.43C47.9337 71.3233 47.817 71.1933 47.7303 71.04L47.1703 70.07C47.797 69.5167 48.4903 69.1067 49.2503 68.84C50.017 68.5667 50.837 68.43 51.7103 68.43C52.337 68.43 52.9003 68.5333 53.4003 68.74C53.907 68.94 54.3337 69.2233 54.6803 69.59C55.0337 69.95 55.3037 70.38 55.4903 70.88C55.677 71.38 55.7703 71.9267 55.7703 72.52V79H54.3503ZM50.7903 77.11C51.1903 77.11 51.5403 77.04 51.8403 76.9C52.1403 76.76 52.4437 76.5333 52.7503 76.22V74.78C52.1303 74.8067 51.6203 74.86 51.2203 74.94C50.8203 75.02 50.5037 75.12 50.2703 75.24C50.037 75.36 49.8737 75.4967 49.7803 75.65C49.6937 75.8033 49.6503 75.97 49.6503 76.15C49.6503 76.5033 49.747 76.7533 49.9403 76.9C50.1337 77.04 50.417 77.11 50.7903 77.11ZM61.1763 68.63H63.6563C63.8763 68.63 64.0663 68.68 64.2263 68.78C64.3863 68.88 64.4829 69.01 64.5163 69.17L65.5563 73.82C65.6363 74.1733 65.7096 74.5167 65.7763 74.85C65.8429 75.1833 65.9029 75.5133 65.9563 75.84C66.0496 75.5133 66.1463 75.1867 66.2463 74.86C66.3529 74.5267 66.4563 74.18 66.5563 73.82L67.8563 69.16C67.8963 69.0067 67.9929 68.88 68.1463 68.78C68.2996 68.6733 68.4763 68.62 68.6763 68.62H70.0563C70.2763 68.62 70.4629 68.6733 70.6163 68.78C70.7763 68.88 70.8763 69.0067 70.9163 69.16L72.1563 73.82C72.2496 74.1733 72.3429 74.5167 72.4363 74.85C72.5363 75.1833 72.6296 75.52 72.7163 75.86C72.7696 75.5267 72.8329 75.1967 72.9063 74.87C72.9863 74.5367 73.0696 74.1867 73.1563 73.82L74.2563 69.17C74.2896 69.01 74.3829 68.88 74.5363 68.78C74.6963 68.68 74.8763 68.63 75.0763 68.63H77.4363L74.2163 79H71.6963C71.5629 79 71.4496 78.96 71.3563 78.88C71.2629 78.8 71.1896 78.6667 71.1363 78.48L69.6563 73.31C69.5896 73.0767 69.5263 72.8467 69.4663 72.62C69.4063 72.3933 69.3529 72.1667 69.3063 71.94C69.2596 72.1733 69.2063 72.4067 69.1463 72.64C69.0929 72.8667 69.0296 73.0967 68.9563 73.33L67.4563 78.48C67.3563 78.8267 67.1363 79 66.7963 79H64.3963L61.1763 68.63ZM86.4458 68.63V79H83.3458V68.63H86.4458ZM86.8058 65.79C86.8058 66.0367 86.7558 66.27 86.6558 66.49C86.5558 66.7033 86.4191 66.8933 86.2458 67.06C86.0725 67.22 85.8691 67.35 85.6358 67.45C85.4091 67.5433 85.1658 67.59 84.9058 67.59C84.6525 67.59 84.4158 67.5433 84.1958 67.45C83.9758 67.35 83.7791 67.22 83.6058 67.06C83.4391 66.8933 83.3058 66.7033 83.2058 66.49C83.1125 66.27 83.0658 66.0367 83.0658 65.79C83.0658 65.5367 83.1125 65.3 83.2058 65.08C83.3058 64.86 83.4391 64.6667 83.6058 64.5C83.7791 64.3333 83.9758 64.2033 84.1958 64.11C84.4158 64.0167 84.6525 63.97 84.9058 63.97C85.1658 63.97 85.4091 64.0167 85.6358 64.11C85.8691 64.2033 86.0725 64.3333 86.2458 64.5C86.4191 64.6667 86.5558 64.86 86.6558 65.08C86.7558 65.3 86.8058 65.5367 86.8058 65.79ZM96.6489 64.03V72.42H97.1089C97.3023 72.42 97.4489 72.3933 97.5489 72.34C97.6556 72.2867 97.7556 72.19 97.8489 72.05L99.8089 69.13C99.9223 68.9567 100.056 68.83 100.209 68.75C100.369 68.67 100.569 68.63 100.809 68.63H103.649L100.969 72.32C100.842 72.4933 100.702 72.6467 100.549 72.78C100.402 72.9133 100.242 73.0333 100.069 73.14C100.369 73.3667 100.629 73.6667 100.849 74.04L103.769 79H100.969C100.736 79 100.532 78.9633 100.359 78.89C100.192 78.81 100.056 78.6733 99.9489 78.48L97.9889 74.81C97.8956 74.6433 97.7989 74.5367 97.6989 74.49C97.5989 74.4367 97.4489 74.41 97.2489 74.41H96.6489V79H93.5489V64.03H96.6489ZM112.872 68.63V79H109.772V68.63H112.872ZM113.232 65.79C113.232 66.0367 113.182 66.27 113.082 66.49C112.982 66.7033 112.846 66.8933 112.672 67.06C112.499 67.22 112.296 67.35 112.062 67.45C111.836 67.5433 111.592 67.59 111.332 67.59C111.079 67.59 110.842 67.5433 110.622 67.45C110.402 67.35 110.206 67.22 110.032 67.06C109.866 66.8933 109.732 66.7033 109.632 66.49C109.539 66.27 109.492 66.0367 109.492 65.79C109.492 65.5367 109.539 65.3 109.632 65.08C109.732 64.86 109.866 64.6667 110.032 64.5C110.206 64.3333 110.402 64.2033 110.622 64.11C110.842 64.0167 111.079 63.97 111.332 63.97C111.592 63.97 111.836 64.0167 112.062 64.11C112.296 64.2033 112.499 64.3333 112.672 64.5C112.846 64.6667 112.982 64.86 113.082 65.08C113.182 65.3 113.232 65.5367 113.232 65.79Z" fill="black"/>
<path d="M20.6931 90.224C20.7571 90.224 20.8131 90.25 20.8611 90.302L21.3231 90.8C20.9711 91.208 20.5431 91.526 20.0391 91.754C19.5391 91.982 18.9331 92.096 18.2211 92.096C17.6051 92.096 17.0451 91.99 16.5411 91.778C16.0371 91.562 15.6071 91.262 15.2511 90.878C14.8951 90.49 14.6191 90.026 14.4231 89.486C14.2271 88.946 14.1291 88.352 14.1291 87.704C14.1291 87.056 14.2311 86.462 14.4351 85.922C14.6391 85.382 14.9251 84.918 15.2931 84.53C15.6651 84.142 16.1091 83.842 16.6251 83.63C17.1411 83.414 17.7111 83.306 18.3351 83.306C18.9471 83.306 19.4871 83.404 19.9551 83.6C20.4231 83.796 20.8351 84.062 21.1911 84.398L20.8071 84.932C20.7831 84.972 20.7511 85.006 20.7111 85.034C20.6751 85.058 20.6251 85.07 20.5611 85.07C20.4891 85.07 20.4011 85.032 20.2971 84.956C20.1931 84.876 20.0571 84.788 19.8891 84.692C19.7211 84.596 19.5111 84.51 19.2591 84.434C19.0071 84.354 18.6971 84.314 18.3291 84.314C17.8851 84.314 17.4791 84.392 17.1111 84.548C16.7431 84.7 16.4251 84.922 16.1571 85.214C15.8931 85.506 15.6871 85.862 15.5391 86.282C15.3911 86.702 15.3171 87.176 15.3171 87.704C15.3171 88.24 15.3931 88.718 15.5451 89.138C15.7011 89.558 15.9111 89.914 16.1751 90.206C16.4431 90.494 16.7571 90.714 17.1171 90.866C17.4811 91.018 17.8731 91.094 18.2931 91.094C18.5491 91.094 18.7791 91.08 18.9831 91.052C19.1911 91.02 19.3811 90.972 19.5531 90.908C19.7291 90.844 19.8911 90.764 20.0391 90.668C20.1911 90.568 20.3411 90.45 20.4891 90.314C20.5571 90.254 20.6251 90.224 20.6931 90.224ZM23.3996 87.14C23.5916 86.724 23.8276 86.4 24.1076 86.168C24.3876 85.932 24.7296 85.814 25.1336 85.814C25.2616 85.814 25.3836 85.828 25.4996 85.856C25.6196 85.884 25.7256 85.928 25.8176 85.988L25.7396 86.786C25.7156 86.886 25.6556 86.936 25.5596 86.936C25.5036 86.936 25.4216 86.924 25.3136 86.9C25.2056 86.876 25.0836 86.864 24.9476 86.864C24.7556 86.864 24.5836 86.892 24.4316 86.948C24.2836 87.004 24.1496 87.088 24.0296 87.2C23.9136 87.308 23.8076 87.444 23.7116 87.608C23.6196 87.768 23.5356 87.952 23.4596 88.16V92H22.3856V85.922H22.9976C23.1136 85.922 23.1936 85.944 23.2376 85.988C23.2816 86.032 23.3116 86.108 23.3276 86.216L23.3996 87.14ZM30.5786 88.298C30.5786 88.05 30.5426 87.824 30.4706 87.62C30.4026 87.412 30.3006 87.234 30.1646 87.086C30.0326 86.934 29.8706 86.818 29.6786 86.738C29.4866 86.654 29.2686 86.612 29.0246 86.612C28.5126 86.612 28.1066 86.762 27.8066 87.062C27.5106 87.358 27.3266 87.77 27.2546 88.298H30.5786ZM31.4426 91.148C31.3106 91.308 31.1526 91.448 30.9686 91.568C30.7846 91.684 30.5866 91.78 30.3746 91.856C30.1666 91.932 29.9506 91.988 29.7266 92.024C29.5026 92.064 29.2806 92.084 29.0606 92.084C28.6406 92.084 28.2526 92.014 27.8966 91.874C27.5446 91.73 27.2386 91.522 26.9786 91.25C26.7226 90.974 26.5226 90.634 26.3786 90.23C26.2346 89.826 26.1626 89.362 26.1626 88.838C26.1626 88.414 26.2266 88.018 26.3546 87.65C26.4866 87.282 26.6746 86.964 26.9186 86.696C27.1626 86.424 27.4606 86.212 27.8126 86.06C28.1646 85.904 28.5606 85.826 29.0006 85.826C29.3646 85.826 29.7006 85.888 30.0086 86.012C30.3206 86.132 30.5886 86.308 30.8126 86.54C31.0406 86.768 31.2186 87.052 31.3466 87.392C31.4746 87.728 31.5386 88.112 31.5386 88.544C31.5386 88.712 31.5206 88.824 31.4846 88.88C31.4486 88.936 31.3806 88.964 31.2806 88.964H27.2186C27.2306 89.348 27.2826 89.682 27.3746 89.966C27.4706 90.25 27.6026 90.488 27.7706 90.68C27.9386 90.868 28.1386 91.01 28.3706 91.106C28.6026 91.198 28.8626 91.244 29.1506 91.244C29.4186 91.244 29.6486 91.214 29.8406 91.154C30.0366 91.09 30.2046 91.022 30.3446 90.95C30.4846 90.878 30.6006 90.812 30.6926 90.752C30.7886 90.688 30.8706 90.656 30.9386 90.656C31.0266 90.656 31.0946 90.69 31.1426 90.758L31.4426 91.148ZM36.1444 89.264C35.6524 89.28 35.2324 89.32 34.8844 89.384C34.5404 89.444 34.2584 89.524 34.0384 89.624C33.8224 89.724 33.6644 89.842 33.5644 89.978C33.4684 90.114 33.4204 90.266 33.4204 90.434C33.4204 90.594 33.4464 90.732 33.4984 90.848C33.5504 90.964 33.6204 91.06 33.7084 91.136C33.8004 91.208 33.9064 91.262 34.0264 91.298C34.1504 91.33 34.2824 91.346 34.4224 91.346C34.6104 91.346 34.7824 91.328 34.9384 91.292C35.0944 91.252 35.2404 91.196 35.3764 91.124C35.5164 91.052 35.6484 90.966 35.7724 90.866C35.9004 90.766 36.0244 90.652 36.1444 90.524V89.264ZM32.6944 86.78C33.0304 86.456 33.3924 86.214 33.7804 86.054C34.1684 85.894 34.5984 85.814 35.0704 85.814C35.4104 85.814 35.7124 85.87 35.9764 85.982C36.2404 86.094 36.4624 86.25 36.6424 86.45C36.8224 86.65 36.9584 86.892 37.0504 87.176C37.1424 87.46 37.1884 87.772 37.1884 88.112V92H36.7144C36.6104 92 36.5304 91.984 36.4744 91.952C36.4184 91.916 36.3744 91.848 36.3424 91.748L36.2224 91.172C36.0624 91.32 35.9064 91.452 35.7544 91.568C35.6024 91.68 35.4424 91.776 35.2744 91.856C35.1064 91.932 34.9264 91.99 34.7344 92.03C34.5464 92.074 34.3364 92.096 34.1044 92.096C33.8684 92.096 33.6464 92.064 33.4384 92C33.2304 91.932 33.0484 91.832 32.8924 91.7C32.7404 91.568 32.6184 91.402 32.5264 91.202C32.4384 90.998 32.3944 90.758 32.3944 90.482C32.3944 90.242 32.4604 90.012 32.5924 89.792C32.7244 89.568 32.9384 89.37 33.2344 89.198C33.5304 89.026 33.9164 88.886 34.3924 88.778C34.8684 88.666 35.4524 88.602 36.1444 88.586V88.112C36.1444 87.64 36.0424 87.284 35.8384 87.044C35.6344 86.8 35.3364 86.678 34.9444 86.678C34.6804 86.678 34.4584 86.712 34.2784 86.78C34.1024 86.844 33.9484 86.918 33.8164 87.002C33.6884 87.082 33.5764 87.156 33.4804 87.224C33.3884 87.288 33.2964 87.32 33.2044 87.32C33.1324 87.32 33.0704 87.302 33.0184 87.266C32.9664 87.226 32.9224 87.178 32.8864 87.122L32.6944 86.78ZM45.9536 88.298C45.9536 88.05 45.9176 87.824 45.8456 87.62C45.7776 87.412 45.6756 87.234 45.5396 87.086C45.4076 86.934 45.2456 86.818 45.0536 86.738C44.8616 86.654 44.6436 86.612 44.3996 86.612C43.8876 86.612 43.4816 86.762 43.1816 87.062C42.8856 87.358 42.7016 87.77 42.6296 88.298H45.9536ZM46.8176 91.148C46.6856 91.308 46.5276 91.448 46.3436 91.568C46.1596 91.684 45.9616 91.78 45.7496 91.856C45.5416 91.932 45.3256 91.988 45.1016 92.024C44.8776 92.064 44.6556 92.084 44.4356 92.084C44.0156 92.084 43.6276 92.014 43.2716 91.874C42.9196 91.73 42.6136 91.522 42.3536 91.25C42.0976 90.974 41.8976 90.634 41.7536 90.23C41.6096 89.826 41.5376 89.362 41.5376 88.838C41.5376 88.414 41.6016 88.018 41.7296 87.65C41.8616 87.282 42.0496 86.964 42.2936 86.696C42.5376 86.424 42.8356 86.212 43.1876 86.06C43.5396 85.904 43.9356 85.826 44.3756 85.826C44.7396 85.826 45.0756 85.888 45.3836 86.012C45.6956 86.132 45.9636 86.308 46.1876 86.54C46.4156 86.768 46.5936 87.052 46.7216 87.392C46.8496 87.728 46.9136 88.112 46.9136 88.544C46.9136 88.712 46.8956 88.824 46.8596 88.88C46.8236 88.936 46.7556 88.964 46.6556 88.964H42.5936C42.6056 89.348 42.6576 89.682 42.7496 89.966C42.8456 90.25 42.9776 90.488 43.1456 90.68C43.3136 90.868 43.5136 91.01 43.7456 91.106C43.9776 91.198 44.2376 91.244 44.5256 91.244C44.7936 91.244 45.0236 91.214 45.2156 91.154C45.4116 91.09 45.5796 91.022 45.7196 90.95C45.8596 90.878 45.9756 90.812 46.0676 90.752C46.1636 90.688 46.2456 90.656 46.3136 90.656C46.4016 90.656 46.4696 90.69 46.5176 90.758L46.8176 91.148ZM49.2334 86.804C49.3654 86.656 49.5054 86.522 49.6534 86.402C49.8014 86.282 49.9574 86.18 50.1214 86.096C50.2894 86.008 50.4654 85.942 50.6494 85.898C50.8374 85.85 51.0394 85.826 51.2554 85.826C51.5874 85.826 51.8794 85.882 52.1314 85.994C52.3874 86.102 52.5994 86.258 52.7674 86.462C52.9394 86.662 53.0694 86.904 53.1574 87.188C53.2454 87.472 53.2894 87.786 53.2894 88.13V92H52.2154V88.13C52.2154 87.67 52.1094 87.314 51.8974 87.062C51.6894 86.806 51.3714 86.678 50.9434 86.678C50.6274 86.678 50.3314 86.754 50.0554 86.906C49.7834 87.058 49.5314 87.264 49.2994 87.524V92H48.2254V85.922H48.8674C49.0194 85.922 49.1134 85.996 49.1494 86.144L49.2334 86.804ZM62.2171 87.002C62.1851 87.046 62.1531 87.08 62.1211 87.104C62.0891 87.128 62.0451 87.14 61.9891 87.14C61.9291 87.14 61.8631 87.116 61.7911 87.068C61.7191 87.016 61.6291 86.96 61.5211 86.9C61.4171 86.84 61.2871 86.786 61.1311 86.738C60.9791 86.686 60.7911 86.66 60.5671 86.66C60.2671 86.66 60.0031 86.714 59.7751 86.822C59.5471 86.926 59.3551 87.078 59.1991 87.278C59.0471 87.478 58.9311 87.72 58.8511 88.004C58.7751 88.288 58.7371 88.606 58.7371 88.958C58.7371 89.326 58.7791 89.654 58.8631 89.942C58.9471 90.226 59.0651 90.466 59.2171 90.662C59.3731 90.854 59.5591 91.002 59.7751 91.106C59.9951 91.206 60.2411 91.256 60.5131 91.256C60.7731 91.256 60.9871 91.226 61.1551 91.166C61.3231 91.102 61.4611 91.032 61.5691 90.956C61.6811 90.88 61.7731 90.812 61.8451 90.752C61.9211 90.688 61.9951 90.656 62.0671 90.656C62.1551 90.656 62.2231 90.69 62.2711 90.758L62.5711 91.148C62.4391 91.312 62.2891 91.452 62.1211 91.568C61.9531 91.684 61.7711 91.782 61.5751 91.862C61.3831 91.938 61.1811 91.994 60.9691 92.03C60.7571 92.066 60.5411 92.084 60.3211 92.084C59.9411 92.084 59.5871 92.014 59.2591 91.874C58.9351 91.734 58.6531 91.532 58.4131 91.268C58.1731 91 57.9851 90.672 57.8491 90.284C57.7131 89.896 57.6451 89.454 57.6451 88.958C57.6451 88.506 57.7071 88.088 57.8311 87.704C57.9591 87.32 58.1431 86.99 58.3831 86.714C58.6271 86.434 58.9251 86.216 59.2771 86.06C59.6331 85.904 60.0411 85.826 60.5011 85.826C60.9291 85.826 61.3051 85.896 61.6291 86.036C61.9571 86.172 62.2471 86.366 62.4991 86.618L62.2171 87.002ZM66.1741 85.826C66.6181 85.826 67.0181 85.9 67.3741 86.048C67.7301 86.196 68.0341 86.406 68.2861 86.678C68.5381 86.95 68.7301 87.28 68.8621 87.668C68.9981 88.052 69.0661 88.482 69.0661 88.958C69.0661 89.438 68.9981 89.87 68.8621 90.254C68.7301 90.638 68.5381 90.966 68.2861 91.238C68.0341 91.51 67.7301 91.72 67.3741 91.868C67.0181 92.012 66.6181 92.084 66.1741 92.084C65.7261 92.084 65.3221 92.012 64.9621 91.868C64.6061 91.72 64.3021 91.51 64.0501 91.238C63.7981 90.966 63.6041 90.638 63.4681 90.254C63.3361 89.87 63.2701 89.438 63.2701 88.958C63.2701 88.482 63.3361 88.052 63.4681 87.668C63.6041 87.28 63.7981 86.95 64.0501 86.678C64.3021 86.406 64.6061 86.196 64.9621 86.048C65.3221 85.9 65.7261 85.826 66.1741 85.826ZM66.1741 91.25C66.7741 91.25 67.2221 91.05 67.5181 90.65C67.8141 90.246 67.9621 89.684 67.9621 88.964C67.9621 88.24 67.8141 87.676 67.5181 87.272C67.2221 86.868 66.7741 86.666 66.1741 86.666C65.8701 86.666 65.6041 86.718 65.3761 86.822C65.1521 86.926 64.9641 87.076 64.8121 87.272C64.6641 87.468 64.5521 87.71 64.4761 87.998C64.4041 88.282 64.3681 88.604 64.3681 88.964C64.3681 89.684 64.5161 90.246 64.8121 90.65C65.1121 91.05 65.5661 91.25 66.1741 91.25ZM70.4207 92V85.922H71.0627C71.2147 85.922 71.3087 85.996 71.3447 86.144L71.4227 86.768C71.6467 86.492 71.8987 86.266 72.1787 86.09C72.4587 85.914 72.7827 85.826 73.1507 85.826C73.5587 85.826 73.8887 85.94 74.1407 86.168C74.3967 86.396 74.5807 86.704 74.6927 87.092C74.7807 86.872 74.8927 86.682 75.0287 86.522C75.1687 86.362 75.3247 86.23 75.4967 86.126C75.6687 86.022 75.8507 85.946 76.0427 85.898C76.2387 85.85 76.4367 85.826 76.6367 85.826C76.9567 85.826 77.2407 85.878 77.4887 85.982C77.7407 86.082 77.9527 86.23 78.1247 86.426C78.3007 86.622 78.4347 86.864 78.5267 87.152C78.6187 87.436 78.6647 87.762 78.6647 88.13V92H77.5907V88.13C77.5907 87.654 77.4867 87.294 77.2787 87.05C77.0707 86.802 76.7707 86.678 76.3787 86.678C76.2027 86.678 76.0347 86.71 75.8747 86.774C75.7187 86.834 75.5807 86.924 75.4607 87.044C75.3407 87.164 75.2447 87.316 75.1727 87.5C75.1047 87.68 75.0707 87.89 75.0707 88.13V92H73.9967V88.13C73.9967 87.642 73.8987 87.278 73.7027 87.038C73.5067 86.798 73.2207 86.678 72.8447 86.678C72.5807 86.678 72.3367 86.75 72.1127 86.894C71.8887 87.034 71.6827 87.226 71.4947 87.47V92H70.4207ZM85.2859 85.922V92H84.6499C84.4979 92 84.4019 91.926 84.3619 91.778L84.2779 91.124C84.0139 91.416 83.7179 91.652 83.3899 91.832C83.0619 92.008 82.6859 92.096 82.2619 92.096C81.9299 92.096 81.6359 92.042 81.3799 91.934C81.1279 91.822 80.9159 91.666 80.7439 91.466C80.5719 91.266 80.4419 91.024 80.3539 90.74C80.2699 90.456 80.2279 90.142 80.2279 89.798V85.922H81.2959V89.798C81.2959 90.258 81.3999 90.614 81.6079 90.866C81.8199 91.118 82.1419 91.244 82.5739 91.244C82.8899 91.244 83.1839 91.17 83.4559 91.022C83.7319 90.87 83.9859 90.662 84.2179 90.398V85.922H85.2859ZM87.9873 86.804C88.1193 86.656 88.2593 86.522 88.4073 86.402C88.5553 86.282 88.7113 86.18 88.8753 86.096C89.0433 86.008 89.2193 85.942 89.4033 85.898C89.5913 85.85 89.7933 85.826 90.0093 85.826C90.3413 85.826 90.6333 85.882 90.8853 85.994C91.1413 86.102 91.3533 86.258 91.5213 86.462C91.6933 86.662 91.8233 86.904 91.9113 87.188C91.9993 87.472 92.0433 87.786 92.0433 88.13V92H90.9693V88.13C90.9693 87.67 90.8633 87.314 90.6513 87.062C90.4433 86.806 90.1253 86.678 89.6973 86.678C89.3813 86.678 89.0853 86.754 88.8093 86.906C88.5373 87.058 88.2853 87.264 88.0533 87.524V92H86.9793V85.922H87.6213C87.7733 85.922 87.8673 85.996 87.9033 86.144L87.9873 86.804ZM94.7987 85.922V92H93.7307V85.922H94.7987ZM95.0267 84.014C95.0267 84.118 95.0047 84.216 94.9607 84.308C94.9207 84.396 94.8647 84.476 94.7927 84.548C94.7247 84.616 94.6427 84.67 94.5467 84.71C94.4547 84.75 94.3567 84.77 94.2527 84.77C94.1487 84.77 94.0507 84.75 93.9587 84.71C93.8707 84.67 93.7927 84.616 93.7247 84.548C93.6567 84.476 93.6027 84.396 93.5627 84.308C93.5227 84.216 93.5027 84.118 93.5027 84.014C93.5027 83.91 93.5227 83.812 93.5627 83.72C93.6027 83.624 93.6567 83.542 93.7247 83.474C93.7927 83.402 93.8707 83.346 93.9587 83.306C94.0507 83.266 94.1487 83.246 94.2527 83.246C94.3567 83.246 94.4547 83.266 94.5467 83.306C94.6427 83.346 94.7247 83.402 94.7927 83.474C94.8647 83.542 94.9207 83.624 94.9607 83.72C95.0047 83.812 95.0267 83.91 95.0267 84.014ZM100.514 87.368C100.314 87.1 100.098 86.914 99.8655 86.81C99.6335 86.702 99.3735 86.648 99.0855 86.648C98.5215 86.648 98.0875 86.85 97.7835 87.254C97.4795 87.658 97.3275 88.234 97.3275 88.982C97.3275 89.378 97.3615 89.718 97.4295 90.002C97.4975 90.282 97.5975 90.514 97.7295 90.698C97.8615 90.878 98.0235 91.01 98.2155 91.094C98.4075 91.178 98.6255 91.22 98.8695 91.22C99.2215 91.22 99.5275 91.14 99.7875 90.98C100.052 90.82 100.294 90.594 100.514 90.302V87.368ZM101.582 83.162V92H100.946C100.794 92 100.698 91.926 100.658 91.778L100.562 91.04C100.302 91.352 100.006 91.604 99.6735 91.796C99.3415 91.988 98.9575 92.084 98.5215 92.084C98.1735 92.084 97.8575 92.018 97.5735 91.886C97.2895 91.75 97.0475 91.552 96.8475 91.292C96.6475 91.032 96.4935 90.708 96.3855 90.32C96.2775 89.932 96.2235 89.486 96.2235 88.982C96.2235 88.534 96.2835 88.118 96.4035 87.734C96.5235 87.346 96.6955 87.01 96.9195 86.726C97.1435 86.442 97.4175 86.22 97.7415 86.06C98.0695 85.896 98.4375 85.814 98.8455 85.814C99.2175 85.814 99.5355 85.878 99.7995 86.006C100.068 86.13 100.306 86.304 100.514 86.528V83.162H101.582ZM106.562 89.264C106.07 89.28 105.65 89.32 105.302 89.384C104.958 89.444 104.676 89.524 104.456 89.624C104.24 89.724 104.082 89.842 103.982 89.978C103.886 90.114 103.838 90.266 103.838 90.434C103.838 90.594 103.864 90.732 103.916 90.848C103.968 90.964 104.038 91.06 104.126 91.136C104.218 91.208 104.324 91.262 104.444 91.298C104.568 91.33 104.7 91.346 104.84 91.346C105.028 91.346 105.2 91.328 105.356 91.292C105.512 91.252 105.658 91.196 105.794 91.124C105.934 91.052 106.066 90.966 106.19 90.866C106.318 90.766 106.442 90.652 106.562 90.524V89.264ZM103.112 86.78C103.448 86.456 103.81 86.214 104.198 86.054C104.586 85.894 105.016 85.814 105.488 85.814C105.828 85.814 106.13 85.87 106.394 85.982C106.658 86.094 106.88 86.25 107.06 86.45C107.24 86.65 107.376 86.892 107.468 87.176C107.56 87.46 107.606 87.772 107.606 88.112V92H107.132C107.028 92 106.948 91.984 106.892 91.952C106.836 91.916 106.792 91.848 106.76 91.748L106.64 91.172C106.48 91.32 106.324 91.452 106.172 91.568C106.02 91.68 105.86 91.776 105.692 91.856C105.524 91.932 105.344 91.99 105.152 92.03C104.964 92.074 104.754 92.096 104.522 92.096C104.286 92.096 104.064 92.064 103.856 92C103.648 91.932 103.466 91.832 103.31 91.7C103.158 91.568 103.036 91.402 102.944 91.202C102.856 90.998 102.812 90.758 102.812 90.482C102.812 90.242 102.878 90.012 103.01 89.792C103.142 89.568 103.356 89.37 103.652 89.198C103.948 89.026 104.334 88.886 104.81 88.778C105.286 88.666 105.87 88.602 106.562 88.586V88.112C106.562 87.64 106.46 87.284 106.256 87.044C106.052 86.8 105.754 86.678 105.362 86.678C105.098 86.678 104.876 86.712 104.696 86.78C104.52 86.844 104.366 86.918 104.234 87.002C104.106 87.082 103.994 87.156 103.898 87.224C103.806 87.288 103.714 87.32 103.622 87.32C103.55 87.32 103.488 87.302 103.436 87.266C103.384 87.226 103.34 87.178 103.304 87.122L103.112 86.78ZM113.193 87.368C112.993 87.1 112.777 86.914 112.545 86.81C112.313 86.702 112.053 86.648 111.765 86.648C111.201 86.648 110.767 86.85 110.463 87.254C110.159 87.658 110.007 88.234 110.007 88.982C110.007 89.378 110.041 89.718 110.109 90.002C110.177 90.282 110.277 90.514 110.409 90.698C110.541 90.878 110.703 91.01 110.895 91.094C111.087 91.178 111.305 91.22 111.549 91.22C111.901 91.22 112.207 91.14 112.467 90.98C112.731 90.82 112.973 90.594 113.193 90.302V87.368ZM114.261 83.162V92H113.625C113.473 92 113.377 91.926 113.337 91.778L113.241 91.04C112.981 91.352 112.685 91.604 112.353 91.796C112.021 91.988 111.637 92.084 111.201 92.084C110.853 92.084 110.537 92.018 110.253 91.886C109.969 91.75 109.727 91.552 109.527 91.292C109.327 91.032 109.173 90.708 109.065 90.32C108.957 89.932 108.903 89.486 108.903 88.982C108.903 88.534 108.963 88.118 109.083 87.734C109.203 87.346 109.375 87.01 109.599 86.726C109.823 86.442 110.097 86.22 110.421 86.06C110.749 85.896 111.117 85.814 111.525 85.814C111.897 85.814 112.215 85.878 112.479 86.006C112.747 86.13 112.985 86.304 113.193 86.528V83.162H114.261Z" fill="black"/>
<defs>
<clipPath id="clip0_7_34136">
<rect x="64.5835" y="60.918" width="38.9297" height="21.2061" rx="4.73488" transform="rotate(-128.456 64.5835 60.918)" fill="white"/>
</clipPath>
</defs>
</svg>
