<svg width="162" height="61" viewBox="0 0 162 61" fill="none" xmlns="http://www.w3.org/2000/svg">
<g clip-path="url(#clip0_7_34147)">
<path d="M3.27546 33.7057L5.00439 35.8827L-0.967293 40.6253C-2.62443 41.9414 -2.91578 44.3028 -1.6479 45.8993L2.96257 51.7045C-2.79803 56.2795 3.095 63.4329 8.72566 58.961L13.3361 64.7662C13.9475 65.5361 14.8484 66.0245 15.8407 66.1242C16.833 66.2238 17.8353 65.9264 18.6272 65.2975L24.3003 60.792C23.9206 60.9001 29.749 56.5454 32.3621 54.3894L38.0352 49.8839C38.8271 49.2549 39.3436 48.346 39.4713 47.3569C39.5989 46.3679 39.3272 45.3797 38.7158 44.6099L34.7323 39.5751L32.5928 41.2517C30.3534 43.0302 26.468 42.1032 24.739 39.9263C23.0101 37.7493 23.1257 34.1748 25.0601 32.1598L27.1558 30.2253L23.7317 25.7429C23.1204 24.9731 22.2194 24.4847 21.2272 24.385C20.2349 24.2854 19.2326 24.5827 18.4407 25.2117L12.469 29.9543L10.7401 27.7774C9.97583 26.8151 8.84967 26.2045 7.60934 26.08C6.369 25.9554 5.11609 26.3271 4.12622 27.1133C3.13635 27.8994 2.49062 29.0356 2.33107 30.2719C2.17152 31.5083 2.51123 32.7434 3.27546 33.7057Z" fill="#D84B4B"/>
</g>
<path fill-rule="evenodd" clip-rule="evenodd" d="M44.2284 30.8653C44.3487 32.7106 44.6294 35.639 44.8299 37.4041C45.2711 41.0547 46.394 51.4046 46.5945 53.8516C46.7549 55.9778 46.4341 56.7801 45.3112 57.0609C41.5816 57.9836 37.9723 58.3045 36.5286 57.783C35.5662 57.422 35.2453 57.0609 34.6438 55.5766L34.1625 54.4534L33.4407 54.8947C33.1733 55.0602 32.5299 55.3593 31.7429 55.6967C32.3084 55.25 32.8284 54.8331 33.2611 54.4757L38.9999 49.918C39.801 49.2818 40.3165 48.3534 40.4331 47.3371C40.5497 46.3208 40.2577 45.2998 39.6215 44.4987L35.0638 38.7599L32.7984 40.559C32.2623 40.9848 31.6708 41.289 31.0565 41.4752C31.2138 41.2258 31.3817 40.9629 31.5559 40.6936C31.951 40.0349 32.3549 39.385 32.689 38.8475C33.067 38.2393 33.3555 37.7751 33.4407 37.6047L33.7615 37.003L31.1147 36.9227C29.1898 36.8425 28.2273 36.7222 27.5857 36.4815C26.6526 36.1225 25.5591 35.0248 24.9946 33.9643C25.3189 33.3801 25.7627 32.8477 26.3216 32.4038L28.587 30.6047L24.0292 24.8658C23.393 24.0648 22.4646 23.5492 21.4483 23.4327C20.432 23.3161 19.411 23.608 18.61 24.2442L12.5691 29.0418L10.77 26.7765C10.279 26.1584 9.64895 25.6763 8.93974 25.3635C11.7083 18.5255 16.8507 10.8608 23.5353 3.46612C24.6581 2.22253 25.9013 0.938821 26.3425 0.577778C26.771 0.213403 26.9706 0.0437124 27.192 0.00751935C27.3849 -0.0240269 27.5945 0.0458455 27.9867 0.17662C28.4679 0.296967 29.9918 0.898705 31.3553 1.46033C34.6037 2.82427 42.1831 5.47191 43.9477 5.91319C45.8325 6.39458 45.9127 6.55504 45.8726 9.52362C45.8325 13.3346 45.1909 21.5584 44.8299 22.8822C44.7497 23.2432 44.3888 23.8049 44.0279 24.1258L43.4263 24.6874L39.6567 24.6473C37.5713 24.6072 34.8042 24.5269 33.4808 24.4467L31.0746 24.3264L31.0345 22.3206C30.9543 20.1944 30.7538 19.5927 30.3528 20.5154C29.9918 21.4781 27.5055 26.5729 27.1846 27.0141C27.0242 27.2548 26.944 27.4955 26.9841 27.5356C27.0242 27.5758 28.1872 27.5356 29.5908 27.4554C30.9543 27.3351 34.724 27.2147 37.9723 27.1345C42.7847 27.0542 43.8675 27.0944 43.9477 27.2949C43.9878 27.4153 44.1081 29.0199 44.2284 30.8653Z" fill="#0066FF"/>
<path d="M62.6678 28.028C63.1345 28.028 63.5478 27.988 63.9078 27.908C64.2678 27.828 64.6078 27.7213 64.9278 27.588V25.378H63.4878C63.2745 25.378 63.1078 25.3213 62.9878 25.208C62.8678 25.0947 62.8078 24.9513 62.8078 24.778V22.918H67.9878V29.068C67.6145 29.3413 67.2245 29.578 66.8178 29.778C66.4178 29.9713 65.9878 30.1313 65.5278 30.258C65.0745 30.3847 64.5878 30.478 64.0678 30.538C63.5545 30.598 63.0012 30.628 62.4078 30.628C61.3412 30.628 60.3545 30.4413 59.4478 30.068C58.5412 29.688 57.7545 29.168 57.0878 28.508C56.4278 27.8413 55.9078 27.0547 55.5278 26.148C55.1545 25.2347 54.9678 24.2447 54.9678 23.178C54.9678 22.0913 55.1478 21.0947 55.5078 20.188C55.8678 19.2747 56.3812 18.488 57.0478 17.828C57.7212 17.168 58.5312 16.6547 59.4778 16.288C60.4312 15.9213 61.4945 15.738 62.6678 15.738C63.2745 15.738 63.8445 15.788 64.3778 15.888C64.9112 15.988 65.4012 16.1247 65.8478 16.298C66.3012 16.4713 66.7145 16.678 67.0878 16.918C67.4612 17.158 67.7945 17.418 68.0878 17.698L67.1078 19.188C67.0145 19.328 66.9012 19.438 66.7678 19.518C66.6412 19.598 66.5012 19.638 66.3478 19.638C66.1478 19.638 65.9412 19.5713 65.7278 19.438C65.4612 19.278 65.2078 19.1413 64.9678 19.028C64.7345 18.908 64.4945 18.8113 64.2478 18.738C64.0012 18.6647 63.7412 18.6113 63.4678 18.578C63.1945 18.5447 62.8878 18.528 62.5478 18.528C61.9145 18.528 61.3445 18.6413 60.8378 18.868C60.3312 19.088 59.8978 19.4013 59.5378 19.808C59.1845 20.2147 58.9112 20.7047 58.7178 21.278C58.5245 21.8447 58.4278 22.478 58.4278 23.178C58.4278 23.9513 58.5345 24.638 58.7478 25.238C58.9612 25.838 59.2545 26.3447 59.6278 26.758C60.0078 27.1713 60.4545 27.488 60.9678 27.708C61.4878 27.9213 62.0545 28.028 62.6678 28.028Z" fill="white"/>
<path d="M74.6461 30.468V20.098H76.4861C76.6395 20.098 76.7661 20.1113 76.8661 20.138C76.9728 20.1647 77.0595 20.208 77.1261 20.268C77.1995 20.3213 77.2528 20.3947 77.2861 20.488C77.3261 20.5813 77.3594 20.6947 77.3861 20.828L77.5561 21.798C77.9361 21.2113 78.3628 20.748 78.8361 20.408C79.3095 20.068 79.8261 19.898 80.3861 19.898C80.8594 19.898 81.2395 20.0113 81.5261 20.238L81.1261 22.518C81.0995 22.658 81.0461 22.758 80.9661 22.818C80.8861 22.8713 80.7795 22.898 80.6461 22.898C80.5328 22.898 80.3995 22.8847 80.2461 22.858C80.0928 22.8247 79.8995 22.808 79.6661 22.808C78.8528 22.808 78.2128 23.2413 77.7461 24.108V30.468H74.6461Z" fill="white"/>
<path d="M94.4725 30.468C94.1792 30.468 93.9559 30.428 93.8025 30.348C93.6559 30.268 93.5325 30.1013 93.4325 29.848L93.2125 29.278C92.9525 29.498 92.7025 29.6913 92.4625 29.858C92.2225 30.0247 91.9725 30.168 91.7125 30.288C91.4592 30.4013 91.1859 30.4847 90.8925 30.538C90.6059 30.598 90.2859 30.628 89.9325 30.628C89.4592 30.628 89.0292 30.568 88.6425 30.448C88.2559 30.3213 87.9259 30.138 87.6525 29.898C87.3859 29.658 87.1792 29.3613 87.0325 29.008C86.8859 28.648 86.8125 28.2347 86.8125 27.768C86.8125 27.4013 86.9059 27.0247 87.0925 26.638C87.2792 26.2513 87.6025 25.9013 88.0625 25.588C88.5225 25.268 89.1425 25.0013 89.9225 24.788C90.7025 24.5747 91.6859 24.4547 92.8725 24.428V23.988C92.8725 23.3813 92.7459 22.9447 92.4925 22.678C92.2459 22.4047 91.8925 22.268 91.4325 22.268C91.0659 22.268 90.7659 22.308 90.5325 22.388C90.2992 22.468 90.0892 22.558 89.9025 22.658C89.7225 22.758 89.5459 22.848 89.3725 22.928C89.1992 23.008 88.9925 23.048 88.7525 23.048C88.5392 23.048 88.3559 22.998 88.2025 22.898C88.0559 22.7913 87.9392 22.6613 87.8525 22.508L87.2925 21.538C87.9192 20.9847 88.6125 20.5747 89.3725 20.308C90.1392 20.0347 90.9592 19.898 91.8325 19.898C92.4592 19.898 93.0225 20.0013 93.5225 20.208C94.0292 20.408 94.4559 20.6913 94.8025 21.058C95.1559 21.418 95.4259 21.848 95.6125 22.348C95.7992 22.848 95.8925 23.3947 95.8925 23.988V30.468H94.4725ZM90.9125 28.578C91.3125 28.578 91.6625 28.508 91.9625 28.368C92.2625 28.228 92.5659 28.0013 92.8725 27.688V26.248C92.2525 26.2747 91.7425 26.328 91.3425 26.408C90.9425 26.488 90.6259 26.588 90.3925 26.708C90.1592 26.828 89.9959 26.9647 89.9025 27.118C89.8159 27.2713 89.7725 27.438 89.7725 27.618C89.7725 27.9713 89.8692 28.2213 90.0625 28.368C90.2559 28.508 90.5392 28.578 90.9125 28.578Z" fill="white"/>
<path d="M101.298 20.098H103.778C103.998 20.098 104.188 20.148 104.348 20.248C104.508 20.348 104.605 20.478 104.638 20.638L105.678 25.288C105.758 25.6413 105.832 25.9847 105.898 26.318C105.965 26.6513 106.025 26.9813 106.078 27.308C106.172 26.9813 106.268 26.6547 106.368 26.328C106.475 25.9947 106.578 25.648 106.678 25.288L107.978 20.628C108.018 20.4747 108.115 20.348 108.268 20.248C108.422 20.1413 108.598 20.088 108.798 20.088H110.178C110.398 20.088 110.585 20.1413 110.738 20.248C110.898 20.348 110.998 20.4747 111.038 20.628L112.278 25.288C112.372 25.6413 112.465 25.9847 112.558 26.318C112.658 26.6513 112.752 26.988 112.838 27.328C112.892 26.9947 112.955 26.6647 113.028 26.338C113.108 26.0047 113.192 25.6547 113.278 25.288L114.378 20.638C114.412 20.478 114.505 20.348 114.658 20.248C114.818 20.148 114.998 20.098 115.198 20.098H117.558L114.338 30.468H111.818C111.685 30.468 111.572 30.428 111.478 30.348C111.385 30.268 111.312 30.1347 111.258 29.948L109.778 24.778C109.712 24.5447 109.648 24.3147 109.588 24.088C109.528 23.8613 109.475 23.6347 109.428 23.408C109.382 23.6413 109.328 23.8747 109.268 24.108C109.215 24.3347 109.152 24.5647 109.078 24.798L107.578 29.948C107.478 30.2947 107.258 30.468 106.918 30.468H104.518L101.298 20.098Z" fill="white"/>
<path d="M126.568 20.098V30.468H123.468V20.098H126.568ZM126.928 17.258C126.928 17.5047 126.878 17.738 126.778 17.958C126.678 18.1713 126.541 18.3613 126.368 18.528C126.195 18.688 125.991 18.818 125.758 18.918C125.531 19.0113 125.288 19.058 125.028 19.058C124.775 19.058 124.538 19.0113 124.318 18.918C124.098 18.818 123.901 18.688 123.728 18.528C123.561 18.3613 123.428 18.1713 123.328 17.958C123.235 17.738 123.188 17.5047 123.188 17.258C123.188 17.0047 123.235 16.768 123.328 16.548C123.428 16.328 123.561 16.1347 123.728 15.968C123.901 15.8013 124.098 15.6713 124.318 15.578C124.538 15.4847 124.775 15.438 125.028 15.438C125.288 15.438 125.531 15.4847 125.758 15.578C125.991 15.6713 126.195 15.8013 126.368 15.968C126.541 16.1347 126.678 16.328 126.778 16.548C126.878 16.768 126.928 17.0047 126.928 17.258Z" fill="white"/>
<path d="M136.771 15.498V23.888H137.231C137.424 23.888 137.571 23.8613 137.671 23.808C137.778 23.7547 137.878 23.658 137.971 23.518L139.931 20.598C140.044 20.4247 140.178 20.298 140.331 20.218C140.491 20.138 140.691 20.098 140.931 20.098H143.771L141.091 23.788C140.964 23.9613 140.824 24.1147 140.671 24.248C140.524 24.3813 140.364 24.5013 140.191 24.608C140.491 24.8347 140.751 25.1347 140.971 25.508L143.891 30.468H141.091C140.858 30.468 140.654 30.4313 140.481 30.358C140.314 30.278 140.178 30.1413 140.071 29.948L138.111 26.278C138.018 26.1113 137.921 26.0047 137.821 25.958C137.721 25.9047 137.571 25.878 137.371 25.878H136.771V30.468H133.671V15.498H136.771Z" fill="white"/>
<path d="M152.995 20.098V30.468H149.895V20.098H152.995ZM153.355 17.258C153.355 17.5047 153.305 17.738 153.205 17.958C153.105 18.1713 152.968 18.3613 152.795 18.528C152.621 18.688 152.418 18.818 152.185 18.918C151.958 19.0113 151.715 19.058 151.455 19.058C151.201 19.058 150.965 19.0113 150.745 18.918C150.525 18.818 150.328 18.688 150.155 18.528C149.988 18.3613 149.855 18.1713 149.755 17.958C149.661 17.738 149.615 17.5047 149.615 17.258C149.615 17.0047 149.661 16.768 149.755 16.548C149.855 16.328 149.988 16.1347 150.155 15.968C150.328 15.8013 150.525 15.6713 150.745 15.578C150.965 15.4847 151.201 15.438 151.455 15.438C151.715 15.438 151.958 15.4847 152.185 15.578C152.418 15.6713 152.621 15.8013 152.795 15.968C152.968 16.1347 153.105 16.328 153.205 16.548C153.305 16.768 153.355 17.0047 153.355 17.258Z" fill="white"/>
<path d="M60.6592 41.69C60.7232 41.69 60.7792 41.716 60.8272 41.768L61.2892 42.266C60.9372 42.674 60.5092 42.992 60.0052 43.22C59.5052 43.448 58.8992 43.562 58.1872 43.562C57.5712 43.562 57.0112 43.456 56.5072 43.244C56.0032 43.028 55.5732 42.728 55.2172 42.344C54.8612 41.956 54.5852 41.492 54.3892 40.952C54.1932 40.412 54.0952 39.818 54.0952 39.17C54.0952 38.522 54.1972 37.928 54.4012 37.388C54.6052 36.848 54.8912 36.384 55.2592 35.996C55.6312 35.608 56.0752 35.308 56.5912 35.096C57.1072 34.88 57.6772 34.772 58.3012 34.772C58.9132 34.772 59.4532 34.87 59.9212 35.066C60.3892 35.262 60.8012 35.528 61.1572 35.864L60.7732 36.398C60.7492 36.438 60.7172 36.472 60.6772 36.5C60.6412 36.524 60.5912 36.536 60.5272 36.536C60.4552 36.536 60.3672 36.498 60.2632 36.422C60.1592 36.342 60.0232 36.254 59.8552 36.158C59.6872 36.062 59.4772 35.976 59.2252 35.9C58.9732 35.82 58.6632 35.78 58.2952 35.78C57.8512 35.78 57.4452 35.858 57.0772 36.014C56.7092 36.166 56.3912 36.388 56.1232 36.68C55.8592 36.972 55.6532 37.328 55.5052 37.748C55.3572 38.168 55.2832 38.642 55.2832 39.17C55.2832 39.706 55.3592 40.184 55.5112 40.604C55.6672 41.024 55.8772 41.38 56.1412 41.672C56.4092 41.96 56.7232 42.18 57.0832 42.332C57.4472 42.484 57.8392 42.56 58.2592 42.56C58.5152 42.56 58.7452 42.546 58.9492 42.518C59.1572 42.486 59.3472 42.438 59.5192 42.374C59.6952 42.31 59.8572 42.23 60.0052 42.134C60.1572 42.034 60.3072 41.916 60.4552 41.78C60.5232 41.72 60.5912 41.69 60.6592 41.69Z" fill="white"/>
<path d="M63.3656 38.606C63.5576 38.19 63.7936 37.866 64.0736 37.634C64.3536 37.398 64.6956 37.28 65.0996 37.28C65.2276 37.28 65.3496 37.294 65.4656 37.322C65.5856 37.35 65.6916 37.394 65.7836 37.454L65.7056 38.252C65.6816 38.352 65.6216 38.402 65.5256 38.402C65.4696 38.402 65.3876 38.39 65.2796 38.366C65.1716 38.342 65.0496 38.33 64.9136 38.33C64.7216 38.33 64.5496 38.358 64.3976 38.414C64.2496 38.47 64.1156 38.554 63.9956 38.666C63.8796 38.774 63.7736 38.91 63.6776 39.074C63.5856 39.234 63.5016 39.418 63.4256 39.626V43.466H62.3516V37.388H62.9636C63.0796 37.388 63.1596 37.41 63.2036 37.454C63.2476 37.498 63.2776 37.574 63.2936 37.682L63.3656 38.606Z" fill="white"/>
<path d="M70.5446 39.764C70.5446 39.516 70.5086 39.29 70.4366 39.086C70.3686 38.878 70.2666 38.7 70.1306 38.552C69.9986 38.4 69.8366 38.284 69.6446 38.204C69.4526 38.12 69.2346 38.078 68.9906 38.078C68.4786 38.078 68.0726 38.228 67.7726 38.528C67.4766 38.824 67.2926 39.236 67.2206 39.764H70.5446ZM71.4086 42.614C71.2766 42.774 71.1186 42.914 70.9346 43.034C70.7506 43.15 70.5526 43.246 70.3406 43.322C70.1326 43.398 69.9166 43.454 69.6926 43.49C69.4686 43.53 69.2466 43.55 69.0266 43.55C68.6066 43.55 68.2186 43.48 67.8626 43.34C67.5106 43.196 67.2046 42.988 66.9446 42.716C66.6886 42.44 66.4886 42.1 66.3446 41.696C66.2006 41.292 66.1286 40.828 66.1286 40.304C66.1286 39.88 66.1926 39.484 66.3206 39.116C66.4526 38.748 66.6406 38.43 66.8846 38.162C67.1286 37.89 67.4266 37.678 67.7786 37.526C68.1306 37.37 68.5266 37.292 68.9666 37.292C69.3306 37.292 69.6666 37.354 69.9746 37.478C70.2866 37.598 70.5546 37.774 70.7786 38.006C71.0066 38.234 71.1846 38.518 71.3126 38.858C71.4406 39.194 71.5046 39.578 71.5046 40.01C71.5046 40.178 71.4866 40.29 71.4506 40.346C71.4146 40.402 71.3466 40.43 71.2466 40.43H67.1846C67.1966 40.814 67.2486 41.148 67.3406 41.432C67.4366 41.716 67.5686 41.954 67.7366 42.146C67.9046 42.334 68.1046 42.476 68.3366 42.572C68.5686 42.664 68.8286 42.71 69.1166 42.71C69.3846 42.71 69.6146 42.68 69.8066 42.62C70.0026 42.556 70.1706 42.488 70.3106 42.416C70.4506 42.344 70.5666 42.278 70.6586 42.218C70.7546 42.154 70.8366 42.122 70.9046 42.122C70.9926 42.122 71.0606 42.156 71.1086 42.224L71.4086 42.614Z" fill="white"/>
<path d="M76.1105 40.73C75.6185 40.746 75.1985 40.786 74.8505 40.85C74.5065 40.91 74.2245 40.99 74.0045 41.09C73.7885 41.19 73.6305 41.308 73.5305 41.444C73.4345 41.58 73.3865 41.732 73.3865 41.9C73.3865 42.06 73.4125 42.198 73.4645 42.314C73.5165 42.43 73.5865 42.526 73.6745 42.602C73.7665 42.674 73.8725 42.728 73.9925 42.764C74.1165 42.796 74.2485 42.812 74.3885 42.812C74.5765 42.812 74.7485 42.794 74.9045 42.758C75.0605 42.718 75.2065 42.662 75.3425 42.59C75.4825 42.518 75.6145 42.432 75.7385 42.332C75.8665 42.232 75.9905 42.118 76.1105 41.99V40.73ZM72.6605 38.246C72.9965 37.922 73.3585 37.68 73.7465 37.52C74.1345 37.36 74.5645 37.28 75.0365 37.28C75.3765 37.28 75.6785 37.336 75.9425 37.448C76.2065 37.56 76.4285 37.716 76.6085 37.916C76.7885 38.116 76.9245 38.358 77.0165 38.642C77.1085 38.926 77.1545 39.238 77.1545 39.578V43.466H76.6805C76.5765 43.466 76.4965 43.45 76.4405 43.418C76.3845 43.382 76.3405 43.314 76.3085 43.214L76.1885 42.638C76.0285 42.786 75.8725 42.918 75.7205 43.034C75.5685 43.146 75.4085 43.242 75.2405 43.322C75.0725 43.398 74.8925 43.456 74.7005 43.496C74.5125 43.54 74.3025 43.562 74.0705 43.562C73.8345 43.562 73.6125 43.53 73.4045 43.466C73.1965 43.398 73.0145 43.298 72.8585 43.166C72.7065 43.034 72.5845 42.868 72.4925 42.668C72.4045 42.464 72.3605 42.224 72.3605 41.948C72.3605 41.708 72.4265 41.478 72.5585 41.258C72.6905 41.034 72.9045 40.836 73.2005 40.664C73.4965 40.492 73.8825 40.352 74.3585 40.244C74.8345 40.132 75.4185 40.068 76.1105 40.052V39.578C76.1105 39.106 76.0085 38.75 75.8045 38.51C75.6005 38.266 75.3025 38.144 74.9105 38.144C74.6465 38.144 74.4245 38.178 74.2445 38.246C74.0685 38.31 73.9145 38.384 73.7825 38.468C73.6545 38.548 73.5425 38.622 73.4465 38.69C73.3545 38.754 73.2625 38.786 73.1705 38.786C73.0985 38.786 73.0365 38.768 72.9845 38.732C72.9325 38.692 72.8885 38.644 72.8525 38.588L72.6605 38.246Z" fill="white"/>
<path d="M85.9196 39.764C85.9196 39.516 85.8836 39.29 85.8116 39.086C85.7436 38.878 85.6416 38.7 85.5056 38.552C85.3736 38.4 85.2116 38.284 85.0196 38.204C84.8276 38.12 84.6096 38.078 84.3656 38.078C83.8536 38.078 83.4476 38.228 83.1476 38.528C82.8516 38.824 82.6676 39.236 82.5956 39.764H85.9196ZM86.7836 42.614C86.6516 42.774 86.4936 42.914 86.3096 43.034C86.1256 43.15 85.9276 43.246 85.7156 43.322C85.5076 43.398 85.2916 43.454 85.0676 43.49C84.8436 43.53 84.6216 43.55 84.4016 43.55C83.9816 43.55 83.5936 43.48 83.2376 43.34C82.8856 43.196 82.5796 42.988 82.3196 42.716C82.0636 42.44 81.8636 42.1 81.7196 41.696C81.5756 41.292 81.5036 40.828 81.5036 40.304C81.5036 39.88 81.5676 39.484 81.6956 39.116C81.8276 38.748 82.0156 38.43 82.2596 38.162C82.5036 37.89 82.8016 37.678 83.1536 37.526C83.5056 37.37 83.9016 37.292 84.3416 37.292C84.7056 37.292 85.0416 37.354 85.3496 37.478C85.6616 37.598 85.9296 37.774 86.1536 38.006C86.3816 38.234 86.5596 38.518 86.6876 38.858C86.8156 39.194 86.8796 39.578 86.8796 40.01C86.8796 40.178 86.8616 40.29 86.8256 40.346C86.7896 40.402 86.7216 40.43 86.6216 40.43H82.5596C82.5716 40.814 82.6236 41.148 82.7156 41.432C82.8116 41.716 82.9436 41.954 83.1116 42.146C83.2796 42.334 83.4796 42.476 83.7116 42.572C83.9436 42.664 84.2036 42.71 84.4916 42.71C84.7596 42.71 84.9896 42.68 85.1816 42.62C85.3776 42.556 85.5456 42.488 85.6856 42.416C85.8256 42.344 85.9416 42.278 86.0336 42.218C86.1296 42.154 86.2116 42.122 86.2796 42.122C86.3676 42.122 86.4356 42.156 86.4836 42.224L86.7836 42.614Z" fill="white"/>
<path d="M89.1995 38.27C89.3315 38.122 89.4715 37.988 89.6195 37.868C89.7675 37.748 89.9235 37.646 90.0875 37.562C90.2555 37.474 90.4315 37.408 90.6155 37.364C90.8035 37.316 91.0055 37.292 91.2215 37.292C91.5535 37.292 91.8455 37.348 92.0975 37.46C92.3535 37.568 92.5655 37.724 92.7335 37.928C92.9055 38.128 93.0355 38.37 93.1235 38.654C93.2115 38.938 93.2555 39.252 93.2555 39.596V43.466H92.1815V39.596C92.1815 39.136 92.0755 38.78 91.8635 38.528C91.6555 38.272 91.3375 38.144 90.9095 38.144C90.5935 38.144 90.2975 38.22 90.0215 38.372C89.7495 38.524 89.4975 38.73 89.2655 38.99V43.466H88.1915V37.388H88.8335C88.9855 37.388 89.0795 37.462 89.1155 37.61L89.1995 38.27Z" fill="white"/>
<path d="M102.183 38.468C102.151 38.512 102.119 38.546 102.087 38.57C102.055 38.594 102.011 38.606 101.955 38.606C101.895 38.606 101.829 38.582 101.757 38.534C101.685 38.482 101.595 38.426 101.487 38.366C101.383 38.306 101.253 38.252 101.097 38.204C100.945 38.152 100.757 38.126 100.533 38.126C100.233 38.126 99.9692 38.18 99.7412 38.288C99.5132 38.392 99.3212 38.544 99.1652 38.744C99.0132 38.944 98.8972 39.186 98.8172 39.47C98.7412 39.754 98.7032 40.072 98.7032 40.424C98.7032 40.792 98.7452 41.12 98.8292 41.408C98.9132 41.692 99.0312 41.932 99.1832 42.128C99.3392 42.32 99.5252 42.468 99.7412 42.572C99.9612 42.672 100.207 42.722 100.479 42.722C100.739 42.722 100.953 42.692 101.121 42.632C101.289 42.568 101.427 42.498 101.535 42.422C101.647 42.346 101.739 42.278 101.811 42.218C101.887 42.154 101.961 42.122 102.033 42.122C102.121 42.122 102.189 42.156 102.237 42.224L102.537 42.614C102.405 42.778 102.255 42.918 102.087 43.034C101.919 43.15 101.737 43.248 101.541 43.328C101.349 43.404 101.147 43.46 100.935 43.496C100.723 43.532 100.507 43.55 100.287 43.55C99.9072 43.55 99.5532 43.48 99.2252 43.34C98.9012 43.2 98.6192 42.998 98.3792 42.734C98.1392 42.466 97.9512 42.138 97.8152 41.75C97.6792 41.362 97.6112 40.92 97.6112 40.424C97.6112 39.972 97.6732 39.554 97.7972 39.17C97.9252 38.786 98.1092 38.456 98.3492 38.18C98.5932 37.9 98.8912 37.682 99.2432 37.526C99.5992 37.37 100.007 37.292 100.467 37.292C100.895 37.292 101.271 37.362 101.595 37.502C101.923 37.638 102.213 37.832 102.465 38.084L102.183 38.468Z" fill="white"/>
<path d="M106.14 37.292C106.584 37.292 106.984 37.366 107.34 37.514C107.696 37.662 108 37.872 108.252 38.144C108.504 38.416 108.696 38.746 108.828 39.134C108.964 39.518 109.032 39.948 109.032 40.424C109.032 40.904 108.964 41.336 108.828 41.72C108.696 42.104 108.504 42.432 108.252 42.704C108 42.976 107.696 43.186 107.34 43.334C106.984 43.478 106.584 43.55 106.14 43.55C105.692 43.55 105.288 43.478 104.928 43.334C104.572 43.186 104.268 42.976 104.016 42.704C103.764 42.432 103.57 42.104 103.434 41.72C103.302 41.336 103.236 40.904 103.236 40.424C103.236 39.948 103.302 39.518 103.434 39.134C103.57 38.746 103.764 38.416 104.016 38.144C104.268 37.872 104.572 37.662 104.928 37.514C105.288 37.366 105.692 37.292 106.14 37.292ZM106.14 42.716C106.74 42.716 107.188 42.516 107.484 42.116C107.78 41.712 107.928 41.15 107.928 40.43C107.928 39.706 107.78 39.142 107.484 38.738C107.188 38.334 106.74 38.132 106.14 38.132C105.836 38.132 105.57 38.184 105.342 38.288C105.118 38.392 104.93 38.542 104.778 38.738C104.63 38.934 104.518 39.176 104.442 39.464C104.37 39.748 104.334 40.07 104.334 40.43C104.334 41.15 104.482 41.712 104.778 42.116C105.078 42.516 105.532 42.716 106.14 42.716Z" fill="white"/>
<path d="M110.387 43.466V37.388H111.029C111.181 37.388 111.275 37.462 111.311 37.61L111.389 38.234C111.613 37.958 111.865 37.732 112.145 37.556C112.425 37.38 112.749 37.292 113.117 37.292C113.525 37.292 113.855 37.406 114.107 37.634C114.363 37.862 114.547 38.17 114.659 38.558C114.747 38.338 114.859 38.148 114.995 37.988C115.135 37.828 115.291 37.696 115.463 37.592C115.635 37.488 115.817 37.412 116.009 37.364C116.205 37.316 116.403 37.292 116.603 37.292C116.923 37.292 117.207 37.344 117.455 37.448C117.707 37.548 117.919 37.696 118.091 37.892C118.267 38.088 118.401 38.33 118.493 38.618C118.585 38.902 118.631 39.228 118.631 39.596V43.466H117.557V39.596C117.557 39.12 117.453 38.76 117.245 38.516C117.037 38.268 116.737 38.144 116.345 38.144C116.169 38.144 116.001 38.176 115.841 38.24C115.685 38.3 115.547 38.39 115.427 38.51C115.307 38.63 115.211 38.782 115.139 38.966C115.071 39.146 115.037 39.356 115.037 39.596V43.466H113.963V39.596C113.963 39.108 113.865 38.744 113.669 38.504C113.473 38.264 113.187 38.144 112.811 38.144C112.547 38.144 112.303 38.216 112.079 38.36C111.855 38.5 111.649 38.692 111.461 38.936V43.466H110.387Z" fill="white"/>
<path d="M125.252 37.388V43.466H124.616C124.464 43.466 124.368 43.392 124.328 43.244L124.244 42.59C123.98 42.882 123.684 43.118 123.356 43.298C123.028 43.474 122.652 43.562 122.228 43.562C121.896 43.562 121.602 43.508 121.346 43.4C121.094 43.288 120.882 43.132 120.71 42.932C120.538 42.732 120.408 42.49 120.32 42.206C120.236 41.922 120.194 41.608 120.194 41.264V37.388H121.262V41.264C121.262 41.724 121.366 42.08 121.574 42.332C121.786 42.584 122.108 42.71 122.54 42.71C122.856 42.71 123.15 42.636 123.422 42.488C123.698 42.336 123.952 42.128 124.184 41.864V37.388H125.252Z" fill="white"/>
<path d="M127.953 38.27C128.085 38.122 128.225 37.988 128.373 37.868C128.521 37.748 128.677 37.646 128.841 37.562C129.009 37.474 129.185 37.408 129.369 37.364C129.557 37.316 129.759 37.292 129.975 37.292C130.307 37.292 130.599 37.348 130.851 37.46C131.107 37.568 131.319 37.724 131.487 37.928C131.659 38.128 131.789 38.37 131.877 38.654C131.965 38.938 132.009 39.252 132.009 39.596V43.466H130.935V39.596C130.935 39.136 130.829 38.78 130.617 38.528C130.409 38.272 130.091 38.144 129.663 38.144C129.347 38.144 129.051 38.22 128.775 38.372C128.503 38.524 128.251 38.73 128.019 38.99V43.466H126.945V37.388H127.587C127.739 37.388 127.833 37.462 127.869 37.61L127.953 38.27Z" fill="white"/>
<path d="M134.765 37.388V43.466H133.697V37.388H134.765ZM134.993 35.48C134.993 35.584 134.971 35.682 134.927 35.774C134.887 35.862 134.831 35.942 134.759 36.014C134.691 36.082 134.609 36.136 134.513 36.176C134.421 36.216 134.323 36.236 134.219 36.236C134.115 36.236 134.017 36.216 133.925 36.176C133.837 36.136 133.759 36.082 133.691 36.014C133.623 35.942 133.569 35.862 133.529 35.774C133.489 35.682 133.469 35.584 133.469 35.48C133.469 35.376 133.489 35.278 133.529 35.186C133.569 35.09 133.623 35.008 133.691 34.94C133.759 34.868 133.837 34.812 133.925 34.772C134.017 34.732 134.115 34.712 134.219 34.712C134.323 34.712 134.421 34.732 134.513 34.772C134.609 34.812 134.691 34.868 134.759 34.94C134.831 35.008 134.887 35.09 134.927 35.186C134.971 35.278 134.993 35.376 134.993 35.48Z" fill="white"/>
<path d="M140.48 38.834C140.28 38.566 140.064 38.38 139.832 38.276C139.6 38.168 139.34 38.114 139.052 38.114C138.488 38.114 138.054 38.316 137.75 38.72C137.446 39.124 137.294 39.7 137.294 40.448C137.294 40.844 137.328 41.184 137.396 41.468C137.464 41.748 137.564 41.98 137.696 42.164C137.828 42.344 137.99 42.476 138.182 42.56C138.374 42.644 138.592 42.686 138.836 42.686C139.188 42.686 139.494 42.606 139.754 42.446C140.018 42.286 140.26 42.06 140.48 41.768V38.834ZM141.548 34.628V43.466H140.912C140.76 43.466 140.664 43.392 140.624 43.244L140.528 42.506C140.268 42.818 139.972 43.07 139.64 43.262C139.308 43.454 138.924 43.55 138.488 43.55C138.14 43.55 137.824 43.484 137.54 43.352C137.256 43.216 137.014 43.018 136.814 42.758C136.614 42.498 136.46 42.174 136.352 41.786C136.244 41.398 136.19 40.952 136.19 40.448C136.19 40 136.25 39.584 136.37 39.2C136.49 38.812 136.662 38.476 136.886 38.192C137.11 37.908 137.384 37.686 137.708 37.526C138.036 37.362 138.404 37.28 138.812 37.28C139.184 37.28 139.502 37.344 139.766 37.472C140.034 37.596 140.272 37.77 140.48 37.994V34.628H141.548Z" fill="white"/>
<path d="M146.528 40.73C146.036 40.746 145.616 40.786 145.268 40.85C144.924 40.91 144.642 40.99 144.422 41.09C144.206 41.19 144.048 41.308 143.948 41.444C143.852 41.58 143.804 41.732 143.804 41.9C143.804 42.06 143.83 42.198 143.882 42.314C143.934 42.43 144.004 42.526 144.092 42.602C144.184 42.674 144.29 42.728 144.41 42.764C144.534 42.796 144.666 42.812 144.806 42.812C144.994 42.812 145.166 42.794 145.322 42.758C145.478 42.718 145.624 42.662 145.76 42.59C145.9 42.518 146.032 42.432 146.156 42.332C146.284 42.232 146.408 42.118 146.528 41.99V40.73ZM143.078 38.246C143.414 37.922 143.776 37.68 144.164 37.52C144.552 37.36 144.982 37.28 145.454 37.28C145.794 37.28 146.096 37.336 146.36 37.448C146.624 37.56 146.846 37.716 147.026 37.916C147.206 38.116 147.342 38.358 147.434 38.642C147.526 38.926 147.572 39.238 147.572 39.578V43.466H147.098C146.994 43.466 146.914 43.45 146.858 43.418C146.802 43.382 146.758 43.314 146.726 43.214L146.606 42.638C146.446 42.786 146.29 42.918 146.138 43.034C145.986 43.146 145.826 43.242 145.658 43.322C145.49 43.398 145.31 43.456 145.118 43.496C144.93 43.54 144.72 43.562 144.488 43.562C144.252 43.562 144.03 43.53 143.822 43.466C143.614 43.398 143.432 43.298 143.276 43.166C143.124 43.034 143.002 42.868 142.91 42.668C142.822 42.464 142.778 42.224 142.778 41.948C142.778 41.708 142.844 41.478 142.976 41.258C143.108 41.034 143.322 40.836 143.618 40.664C143.914 40.492 144.3 40.352 144.776 40.244C145.252 40.132 145.836 40.068 146.528 40.052V39.578C146.528 39.106 146.426 38.75 146.222 38.51C146.018 38.266 145.72 38.144 145.328 38.144C145.064 38.144 144.842 38.178 144.662 38.246C144.486 38.31 144.332 38.384 144.2 38.468C144.072 38.548 143.96 38.622 143.864 38.69C143.772 38.754 143.68 38.786 143.588 38.786C143.516 38.786 143.454 38.768 143.402 38.732C143.35 38.692 143.306 38.644 143.27 38.588L143.078 38.246Z" fill="white"/>
<path d="M153.159 38.834C152.959 38.566 152.743 38.38 152.511 38.276C152.279 38.168 152.019 38.114 151.731 38.114C151.167 38.114 150.733 38.316 150.429 38.72C150.125 39.124 149.973 39.7 149.973 40.448C149.973 40.844 150.007 41.184 150.075 41.468C150.143 41.748 150.243 41.98 150.375 42.164C150.507 42.344 150.669 42.476 150.861 42.56C151.053 42.644 151.271 42.686 151.515 42.686C151.867 42.686 152.173 42.606 152.433 42.446C152.697 42.286 152.939 42.06 153.159 41.768V38.834ZM154.227 34.628V43.466H153.591C153.439 43.466 153.343 43.392 153.303 43.244L153.207 42.506C152.947 42.818 152.651 43.07 152.319 43.262C151.987 43.454 151.603 43.55 151.167 43.55C150.819 43.55 150.503 43.484 150.219 43.352C149.935 43.216 149.693 43.018 149.493 42.758C149.293 42.498 149.139 42.174 149.031 41.786C148.923 41.398 148.869 40.952 148.869 40.448C148.869 40 148.929 39.584 149.049 39.2C149.169 38.812 149.341 38.476 149.565 38.192C149.789 37.908 150.063 37.686 150.387 37.526C150.715 37.362 151.083 37.28 151.491 37.28C151.863 37.28 152.181 37.344 152.445 37.472C152.713 37.596 152.951 37.77 153.159 37.994V34.628H154.227Z" fill="white"/>
<defs>
<clipPath id="clip0_7_34147">
<rect x="24.7488" y="60.418" width="38.9297" height="21.2061" rx="4.73488" transform="rotate(-128.456 24.7488 60.418)" fill="white"/>
</clipPath>
</defs>
</svg>
